<svg xmlns="http://www.w3.org/2000/svg" viewBox="0 0 324.83 98.98"><defs><style>.cls-1{fill:#fcbf00;}.cls-2{fill:#005086;}.cls-3{fill:#706f6f;}</style></defs><g id="Capa_2" data-name="Capa 2"><g id="Capa_1-2" data-name="Capa 1"><path class="cls-1" d="M121.35,57.71h-8.8v9.7H109V45.09h13.36v3.54h-9.83v5.54h8.8Z"/><path class="cls-1" d="M137.84,67.41H124.26V45.09h13.58v3.54h-10v5.54h9.42v3.54h-9.42v6.18h10Z"/><path class="cls-1" d="M144.28,67.41h-3.53V45.09h3.12l8,17.68L160,45.09h3.12V67.41h-3.54V53.75l-6.16,13.66h-2.93l-6.18-13.66Z"/><path class="cls-1" d="M169.53,67.41H166V45.09h3.12l8,17.68,8.06-17.68h3.12V67.41H184.8V53.75l-6.17,13.66h-2.92l-6.18-13.66Z"/><path class="cls-1" d="M204.83,67.41H191.25V45.09h13.58v3.54H194.78v5.54h9.43v3.54h-9.43v6.18h10.05Z"/><path class="cls-1" d="M207.74,67.41V45.09h8.59c3.84,0,6.39,1.15,7.63,3.46q1.08,2,1.08,7.5v.41Q225,62,224,64c-1.24,2.3-3.79,3.44-7.63,3.44Zm3.53-3.52h5.06c2.44,0,4-.54,4.53-1.61.44-.8.65-2.74.65-5.82v-.41c0-3.07-.21-5-.65-5.83-.57-1.06-2.09-1.59-4.53-1.59h-5.06Z"/><path class="cls-1" d="M241.53,67.41H228V45.09h13.58v3.54H231.48v5.54h9.43v3.54h-9.43v6.18h10.05Z"/><path class="cls-1" d="M269.78,67.41h-17v-6.2a10.29,10.29,0,0,1,.6-4.17q1.16-2.35,4.53-2.36h6.7c.83,0,1.29-.1,1.4-.31a7.64,7.64,0,0,0,.2-2.37v-.69a7.91,7.91,0,0,0-.2-2.39c-.11-.19-.57-.29-1.4-.29h-6.79a2.71,2.71,0,0,0-1.24.18c-.12.07-.21.27-.26.58l-.29,1.73-3.48-.55.27-1.75c.4-2.48,2.07-3.73,5-3.73h6.79q3.35,0,4.5,2.16a9.09,9.09,0,0,1,.64,4.06V52a9.12,9.12,0,0,1-.64,4.06c-.77,1.43-2.28,2.14-4.5,2.14h-6.7c-.78,0-1.23.14-1.36.4a7.91,7.91,0,0,0-.25,2.61v2.68h13.45Z"/><path class="cls-1" d="M273.89,64.66c-.79-1.28-1.19-3.92-1.19-7.9v-1q0-6,1.19-7.9a6,6,0,0,1,3.48-2.52,16.18,16.18,0,0,1,4.51-.52c4.07,0,6.73,1,8,3,.8,1.29,1.19,3.92,1.19,7.9v1c0,4-.39,6.62-1.19,7.9a5.9,5.9,0,0,1-3.48,2.53,16.2,16.2,0,0,1-4.5.51Q275.77,67.7,273.89,64.66Zm3-14.95c-.44.71-.67,2.72-.67,6v1c0,3.32.23,5.33.67,6.05q.86,1.36,5,1.37c2.75,0,4.42-.46,5-1.37.45-.72.67-2.73.67-6.05v-1q0-5-.67-6c-.56-.91-2.23-1.37-5-1.37S277.46,48.8,276.89,49.71Z"/><path class="cls-1" d="M311.18,67.41h-17v-6.2a10.29,10.29,0,0,1,.6-4.17q1.17-2.35,4.53-2.36H306c.83,0,1.3-.1,1.4-.31a7.19,7.19,0,0,0,.21-2.37v-.69a7.44,7.44,0,0,0-.21-2.39c-.1-.19-.57-.29-1.4-.29h-6.79a2.71,2.71,0,0,0-1.24.18c-.12.07-.21.27-.26.58l-.29,1.73L294,50.57l.28-1.75c.39-2.48,2.06-3.73,5-3.73H306q3.36,0,4.51,2.16a9.24,9.24,0,0,1,.64,4.06V52a9.27,9.27,0,0,1-.64,4.06q-1.17,2.14-4.51,2.14h-6.7c-.78,0-1.23.14-1.35.4a7.63,7.63,0,0,0-.25,2.61v2.68h13.45Z"/><path class="cls-1" d="M322.32,67.41H318.8V48.63h-6V45.09h9.54Z"/><path class="cls-2" d="M118,8.3v1.9h-2.09V13h-2.16V10.2h-5.34l-.26-.48L111.76.87h2.32l-3,7.43h2.7V6.56l1.93-1.07h.23V8.3Z"/><path class="cls-2" d="M118.43,4.16a3.5,3.5,0,1,1,3.51,3.52A3.5,3.5,0,0,1,118.43,4.16Zm5.46,0a2,2,0,1,0-2,2A2,2,0,0,0,123.89,4.16Z"/><path class="cls-2" d="M130.8,7a6.3,6.3,0,0,1,6.53-6.3,8.28,8.28,0,0,1,4.37,1.26V3.5h-.14a7.09,7.09,0,0,0-4.15-1.42A5,5,0,0,0,132.35,7a4.93,4.93,0,0,0,5.06,4.79,7.09,7.09,0,0,0,4.15-1.42h.14v1.57a8.2,8.2,0,0,1-4.34,1.27A6.3,6.3,0,0,1,130.8,7Z"/><path class="cls-2" d="M143.25,6.92a6.31,6.31,0,0,1,12.61,0,6.31,6.31,0,0,1-12.61,0Zm11.06,0a4.75,4.75,0,1,0-9.5,0,4.75,4.75,0,1,0,9.5,0Z"/><path class="cls-2" d="M167,.87h1.52V13h-.39L160,4.35V13h-1.52V.87h.41L167,9.55Z"/><path class="cls-2" d="M177.05,6.68h5.41v5.1a9.48,9.48,0,0,1-5,1.4A6.16,6.16,0,0,1,171.08,7a6.2,6.2,0,0,1,6.37-6.3,7.21,7.21,0,0,1,4.48,1.48V3.78h-.12a6.64,6.64,0,0,0-4.36-1.7A4.79,4.79,0,0,0,172.63,7a4.76,4.76,0,0,0,4.86,4.79,6.65,6.65,0,0,0,3.56-.85V8.1h-4Z"/><path class="cls-2" d="M194.12,13h-1.55l-.32-2.08a2.77,2.77,0,0,0-2.88-2.59h-2.61V13h-1.52V.87h4.11c2.87,0,4.55,1.37,4.55,3.7a3.12,3.12,0,0,1-2.15,3.11,4,4,0,0,1,2,3.18Zm-4.77-6.08c2,0,3-.9,3-2.34s-1-2.26-3-2.26h-2.59v4.6Z"/><path class="cls-2" d="M203.62,2.29h-5.34v4h4.24v1.4h-4.24v3.82h5.34V13h-6.86V.87h6.86Z"/><path class="cls-2" d="M205.59,12V10.5a4.77,4.77,0,0,0,3.18,1.26c1.52,0,2.54-.71,2.54-1.94a1.76,1.76,0,0,0-1.26-1.72l-2.16-.87A3.34,3.34,0,0,1,205.57,4c0-2,1.56-3.31,3.82-3.31a6.48,6.48,0,0,1,2.82.65V2.86a5.54,5.54,0,0,0-2.79-.78c-1.69,0-2.31.88-2.31,1.9a2,2,0,0,0,1.35,1.94l2.23.9a3.08,3.08,0,0,1,2.17,3c0,2.19-2,3.32-4,3.32A4.93,4.93,0,0,1,205.59,12Z"/><path class="cls-2" d="M214.52,6.92a6.31,6.31,0,0,1,12.61,0,6.31,6.31,0,0,1-12.61,0Zm11.06,0a4.76,4.76,0,1,0-9.51,0,4.76,4.76,0,1,0,9.51,0Z"/><path class="cls-2" d="M247.12,13H245.6l-1.49-8.16-3.85,7.61h-.37L236,4.8,234.57,13h-1.52L235.18.87h.41l4.49,8.66L244.56.87H245Z"/><path class="cls-2" d="M256.49,2.29h-5.34v4h4.24v1.4h-4.24v3.82h5.34V13h-6.86V.87h6.86Z"/><path class="cls-2" d="M263.14,6.51l3.44,6.32V13H265l-2.73-4.81L259.5,13h-1.63v-.14l3.53-6.2L258.2,1V.87h1.59l2.44,4.27L264.65.87h1.6V1Z"/><path class="cls-2" d="M268.84,13V.87h1.52V13Z"/><path class="cls-2" d="M273,7a6.3,6.3,0,0,1,6.53-6.3,8.28,8.28,0,0,1,4.37,1.26V3.5h-.14a7.06,7.06,0,0,0-4.15-1.42A5,5,0,0,0,274.54,7a4.93,4.93,0,0,0,5.06,4.79,7.06,7.06,0,0,0,4.15-1.42h.14v1.57a8.2,8.2,0,0,1-4.34,1.27A6.31,6.31,0,0,1,273,7Z"/><path class="cls-2" d="M296.29,5.44V13h-1.52V9.22h-6.94V13h-1.52V5.44c0-2.84,2-4.76,5-4.76S296.29,2.6,296.29,5.44Zm-8.46,2.38h6.94V5.45a3.47,3.47,0,0,0-6.94,0Z"/><path class="cls-2" d="M308.09.87h1.52V13h-.4l-8.08-8.62V13H299.6V.87H300l8.07,8.68Z"/><path class="cls-2" d="M312.21,6.92a6.31,6.31,0,0,1,12.62,0,6.31,6.31,0,0,1-12.62,0Zm11.06,0a4.75,4.75,0,1,0-9.5,0,4.75,4.75,0,1,0,9.5,0Z"/><path class="cls-2" d="M112.28,24.14A4.57,4.57,0,0,1,117.06,29a4.6,4.6,0,0,1-4.78,4.89h-3V24.14Zm0,8.62A3.44,3.44,0,0,0,115.8,29a3.43,3.43,0,0,0-3.52-3.74h-1.77v7.48Z"/><path class="cls-2" d="M124.73,25.28h-4.31v3.27h3.42v1.13h-3.42v3.08h4.31v1.15H119.2V24.14h5.53Z"/><path class="cls-2" d="M143.88,33.91h-1.53l-1.5-8.23L137,33.35h-.36l-3.89-7.69-1.49,8.25h-1.53l2.15-12.21h.41l4.54,8.74,4.51-8.74h.42Z"/><path class="cls-2" d="M153.36,23.13H148v4.08h4.28v1.41H148v3.86h5.39v1.43h-6.92V21.7h6.92Z"/><path class="cls-2" d="M159.75,21.7c3.64,0,6,2.53,6,6.1a5.74,5.74,0,0,1-6,6.11H156V21.7Zm0,10.78c2.67,0,4.39-1.92,4.39-4.68s-1.74-4.67-4.39-4.67h-2.22v9.35Z"/><path class="cls-2" d="M168.39,33.91V21.7h1.53V33.91Z"/><path class="cls-2" d="M172.57,27.85a6.37,6.37,0,0,1,6.6-6.36,8.43,8.43,0,0,1,4.41,1.27v1.59h-.14a7.15,7.15,0,0,0-4.19-1.43,4.89,4.89,0,1,0,0,9.77,7.22,7.22,0,0,0,4.19-1.43h.14v1.58a8.35,8.35,0,0,1-4.38,1.27A6.36,6.36,0,0,1,172.57,27.85Z"/><path class="cls-2" d="M186.17,33.91V21.7h1.53V33.91Z"/><path class="cls-2" d="M199.77,21.7h1.54V33.91h-.4l-8.17-8.71v8.71h-1.53V21.7h.42l8.14,8.75Z"/><path class="cls-2" d="M214.74,26.3v7.62h-1.53v-3.8h-7v3.8h-1.53V26.3c0-2.86,2-4.79,5-4.79S214.74,23.44,214.74,26.3Zm-8.55,2.41h7V26.32a3.51,3.51,0,0,0-7,0Z"/><path class="cls-2" d="M224.17,24.14A4.57,4.57,0,0,1,228.94,29a4.6,4.6,0,0,1-4.77,4.89h-3V24.14Zm0,8.62A3.43,3.43,0,0,0,227.68,29a3.43,3.43,0,0,0-3.51-3.74h-1.78v7.48Z"/><path class="cls-2" d="M236.62,25.28H232.3v3.27h3.42v1.13H232.3v3.08h4.32v1.15h-5.54V24.14h5.54Z"/><path class="cls-2" d="M240,32.76h4.31v1.15h-5.53V24.14H240Z"/><path class="cls-2" d="M253.15,21.7a5.71,5.71,0,0,1,6,6.1,5.75,5.75,0,0,1-6,6.11H249.4V21.7Zm0,10.78c2.67,0,4.4-1.92,4.4-4.68s-1.75-4.67-4.4-4.67h-2.21v9.35Z"/><path class="cls-2" d="M268.71,23.13h-5.38v4.08h4.27v1.41h-4.27v3.86h5.38v1.43h-6.92V21.7h6.92Z"/><path class="cls-2" d="M274.84,21.7c2.91,0,4.85,1.53,4.85,3.91s-1.94,3.9-4.85,3.9h-1.95v4.4h-1.54V21.7Zm0,6.38c2,0,3.3-.85,3.3-2.47s-1.33-2.48-3.3-2.48h-1.95v4.95Z"/><path class="cls-2" d="M281.21,27.8a6.37,6.37,0,1,1,6.37,6.31A6.24,6.24,0,0,1,281.21,27.8Zm11.16,0a4.8,4.8,0,1,0-4.79,4.89A4.79,4.79,0,0,0,292.37,27.8Z"/><path class="cls-2" d="M305.54,33.91H304l-.32-2.1a2.8,2.8,0,0,0-2.91-2.61h-2.63v4.71h-1.54V21.7h4.15c2.9,0,4.59,1.38,4.59,3.73a3.14,3.14,0,0,1-2.16,3.14,4,4,0,0,1,2,3.21Zm-4.81-6.14c2,0,3-.91,3-2.36s-1.05-2.28-3-2.28h-2.61v4.64Z"/><path class="cls-2" d="M314.88,21.7v1.43h-3.33V33.91H310V23.13h-3.37V21.7Z"/><path class="cls-2" d="M324.06,23.13h-5.39v4.08h4.27v1.41h-4.27v3.86h5.39v1.43h-6.93V21.7h6.93Z"/><path class="cls-3" d="M116.75,95.62v.89h-6.83V84.11h.94V95.62Z"/><path class="cls-3" d="M127.65,92.12c0,.14,0,.28,0,.42h-8.08a3.62,3.62,0,0,0,3.78,3.31,3.4,3.4,0,0,0,3.09-1.61l.78.46a4.4,4.4,0,0,1-3.88,2,4.63,4.63,0,1,1,4.33-4.58Zm-8.1-.45h7.17a3.44,3.44,0,0,0-3.48-3.36A3.59,3.59,0,0,0,119.55,91.67Z"/><path class="cls-3" d="M130.27,92.08A4.69,4.69,0,1,1,135,96.7,4.61,4.61,0,0,1,130.27,92.08Zm8.46,0A3.78,3.78,0,1,0,135,95.85,3.72,3.72,0,0,0,138.73,92.08ZM135,86.41l1.62-2.25h-1.07l-1.43,2.25Z"/><path class="cls-3" d="M150.47,91v5.51h-.91V91a2.45,2.45,0,0,0-2.63-2.69c-1.74,0-3.12,1.13-3.12,3.52v4.68h-.89V87.65h.89v1.69a3.37,3.37,0,0,1,3.2-1.88A3.28,3.28,0,0,1,150.47,91Z"/><path class="cls-3" d="M154.68,99h-.82l.68-3.68h1.1Z"/><path class="cls-3" d="M177.21,91.21c0,3-2.3,5.49-6,5.49a6.39,6.39,0,1,1-.07-12.78,6.16,6.16,0,0,1,5.37,3l-.84.5a5.08,5.08,0,0,0-4.53-2.59,5.49,5.49,0,1,0,.07,11c3,0,4.87-1.86,5.07-4.18H171v-.89h6.26Z"/><path class="cls-3" d="M187.68,85h-3.92V96.51h-1V85h-3.92v-.89h8.81Z"/><path class="cls-3" d="M189.36,90.31a6.44,6.44,0,1,1,6.44,6.39A6.38,6.38,0,0,1,189.36,90.31Zm11.93,0a5.5,5.5,0,1,0-5.49,5.49A5.45,5.45,0,0,0,201.29,90.31Z"/><path class="cls-3" d="M210.89,98.28,218,82.34h.71L211.6,98.28Z"/><path class="cls-3" d="M227.11,90.31a6.49,6.49,0,1,1,6.49,6.44A6.41,6.41,0,0,1,227.11,90.31Zm10.13,0A3.64,3.64,0,1,0,233.6,94,3.54,3.54,0,0,0,237.24,90.31Z"/><path class="cls-3" d="M242.31,90.31a6.47,6.47,0,0,1,11.84-3.58l-2.46,1.42a3.22,3.22,0,0,0-2.89-1.52,3.68,3.68,0,0,0,0,7.36,3.21,3.21,0,0,0,2.89-1.52l2.46,1.42a6.2,6.2,0,0,1-5.35,2.86A6.3,6.3,0,0,1,242.31,90.31Z"/><path class="cls-3" d="M265,86.84h-3.21v9.67H259V86.84h-3.21V84.11H265Z"/><path class="cls-3" d="M265.36,95.07a1.7,1.7,0,1,1,1.69,1.68A1.69,1.69,0,0,1,265.36,95.07Z"/><path class="cls-3" d="M282.23,84.11v12.4h-2.85V87.1l-2.21.61-.7-2.43,3.26-1.17Z"/><path class="cls-3" d="M294.79,94.52h-1.25v2h-2.89v-2H285V91.9l4-7.79H292l-4,7.79h2.6V89.25h2.89V91.9h1.25Z"/><path class="cls-3" d="M297.18,89.94H304v2.55h-6.78Z"/><path class="cls-3" d="M312.11,84.11v12.4h-2.85V87.1l-2.21.61-.7-2.43,3.27-1.17Z"/><path class="cls-3" d="M324.14,92.38a4.65,4.65,0,0,1-9.28,0,4.52,4.52,0,0,1,.73-2.51l3.82-5.76h3.28L320,88A4.25,4.25,0,0,1,324.14,92.38Zm-2.86,0a1.69,1.69,0,0,0-1.78-1.72,1.72,1.72,0,1,0,0,3.44A1.69,1.69,0,0,0,321.28,92.38Z"/><path class="cls-2" d="M87.67,1.48c-2.69-4.8-9.94,3.17-6,8.41C83.78,12.71,90.37,6.27,87.67,1.48Z"/><path class="cls-2" d="M89.32,17.67c-5.24.92-7.66-7.78-13.58-11.43S62.08,7.49,58.94,11s-5.85,3.38-5.85,3.38,2.84,1.91,7.36-1.27,9.78-5.59,13.43,0c0,0-.65-.2-1.85-.64,0,0-7.26,6.88-8.88,14.17s.17,11.83-.5,16.69c-.46,3.3-5.35,7.85-7.69,14l-.54-1.76c-5.9-17.32-11.76-35-13.75-41.34-1.29-3.87-1-4.46,4.79-5.14V6.32H26.11V9.16c4.87.63,6.25,1.17,8.57,7.68C39.21,30.2,46.1,50.55,51.53,67.38H54l.06-.56c0,.13,0,.25.06.37S55,60.53,59.23,56s9.62-10.44,9.62-10.44-2.76.14-4.07,1.23c0,0,1.36-2,7-3.8s9-2.16,10.81-5.37-3.42-9.73-11.41-10.31c0,0,5-7.95,10.56-10.64l-1.2,2.24c3.5,4.93,8.82,4,12.78.72S97.75,11,97.75,11,94.56,16.75,89.32,17.67ZM72.57,34.56c3,.2,5.49,1.89,4.69,2.34-2.85.76-7.94,3.71-7.94,3.71a18,18,0,0,1-.08-5c-3-.34-3.52-2.1-3.52-2.1A38.3,38.3,0,0,0,72.57,34.56Z"/><path class="cls-2" d="M0,9.16c6.81.63,7.54,1,7.54,8.8V54.8c0,7.93-.73,8.37-7.54,8.86v2.88H21.2V63.66c-6.72-.49-7.5-.83-7.5-8.86V18c0-7.82.78-8.17,7.5-8.8V6.32H0Z"/><path class="cls-3" d="M99.1,89.76H86.68a.37.37,0,0,1-.32-.17l-1.37-2a1,1,0,0,0-.84-.43,1.05,1.05,0,0,0-.85.43l-1.36,2a.4.4,0,0,1-.32.17h-3a1,1,0,0,0-1,.73l-1.66,5.69L74.38,76a.61.61,0,0,0-1.21,0L71.31,93.61,69.4,90.27a1,1,0,0,0-.89-.51H64.45a.4.4,0,0,1-.32-.17L61.4,85.51a1,1,0,0,0-.86-.45,1.06,1.06,0,0,0-.86.45L57,89.59a.4.4,0,0,1-.32.17H44.08a.37.37,0,0,1-.32-.17l-1.37-2a1,1,0,0,0-.84-.43,1.05,1.05,0,0,0-.85.43l-1.36,2a.4.4,0,0,1-.32.17H36a1,1,0,0,0-1,.73l-1.66,5.69L31.78,76a.6.6,0,0,0-.6-.56.61.61,0,0,0-.61.54L28.71,93.61,26.8,90.27a1,1,0,0,0-.89-.51H21.85a.4.4,0,0,1-.32-.17L18.8,85.51a1,1,0,0,0-.86-.45,1.06,1.06,0,0,0-.86.45l-2.73,4.08a.4.4,0,0,1-.32.17H1.28a.22.22,0,0,0-.22.22v.2a.22.22,0,0,0,.22.22H14a1,1,0,0,0,.86-.46l2.73-4.07a.39.39,0,0,1,.64,0L21,89.94a1,1,0,0,0,.86.46h4.06a.39.39,0,0,1,.34.19L28.2,94a.58.58,0,0,0,.65.3.62.62,0,0,0,.48-.53l1.83-17.44,1.54,20a.61.61,0,0,0,.54.56h.07a.6.6,0,0,0,.58-.43l1.72-5.84A.39.39,0,0,1,36,90.4h3a1,1,0,0,0,.84-.44L41.23,88a.4.4,0,0,1,.64,0L43.24,90a.94.94,0,0,0,.48.35.2.2,0,0,0,.16.09H56.63a1,1,0,0,0,.86-.46l2.73-4.07a.39.39,0,0,1,.64,0l2.73,4.07a1,1,0,0,0,.86.46h4.06a.39.39,0,0,1,.34.19l2,3.42a.59.59,0,0,0,.65.3.62.62,0,0,0,.48-.53l1.83-17.45,1.54,20a.61.61,0,0,0,.54.56h.07a.6.6,0,0,0,.58-.43l1.72-5.84a.39.39,0,0,1,.37-.27h3a1,1,0,0,0,.84-.44L83.83,88a.4.4,0,0,1,.64,0L85.84,90a1,1,0,0,0,.84.44H99.1a.22.22,0,0,0,.22-.22V90A.22.22,0,0,0,99.1,89.76Z"/></g></g></svg>