<svg id="Layer_1" data-name="Layer 1" xmlns="http://www.w3.org/2000/svg" viewBox="0 0 60 50.57"><defs><style>.cls-1{fill:#515daa;}.cls-2{fill:#a2dbe0;}</style></defs><title>1</title><path class="cls-1" d="M946.79,11.93c-1.39-3.54-2.89-4.71-8.89-4.71a6.31,6.31,0,0,0-6.43,6.43c0,1.93,1.07,3.75,2.14,5.68,0.32,0.75.86,1.5,1.18,2.25l0.43,0.86a11.83,11.83,0,0,1,1.61,6.21,15,15,0,0,1-.75,4.29V33l-3.54,10.61-9.18-26,0.93-.13a3.2,3.2,0,0,0,3.11-3.21,3.16,3.16,0,0,0-3.21-3.21H924a41,41,0,0,1-12.54,0h-0.21A3.16,3.16,0,0,0,908,14.29a3.2,3.2,0,0,0,3.11,3.21l1.09,0.15,4.38,11.1L911.22,44.5l-9.64-27,0.11,0a3.28,3.28,0,0,0,3.11-3.21,3.16,3.16,0,0,0-3.21-3.21h-0.21a27.67,27.67,0,0,1-10.29,0h-0.21a3.16,3.16,0,0,0-3.21,3.21,3.27,3.27,0,0,0,3,3.21l13.16,36a6.38,6.38,0,0,0,4.5,4.07,7.24,7.24,0,0,0,1.5.21,6.58,6.58,0,0,0,6.11-4.39L922,35.18l6.43,18.21a4.86,4.86,0,0,0,2.79,3,4,4,0,0,0,3.32-.21,4.9,4.9,0,0,0,2.89-3.11l7.93-23.79A31.16,31.16,0,0,0,947.65,18V16.32A10.37,10.37,0,0,0,946.79,11.93Zm-35.57,3.43a1,1,0,0,1-1.07-1.07,1.06,1.06,0,0,1,1-1.07,38.87,38.87,0,0,0,13.18,0,1.06,1.06,0,0,1,1,1.07,1,1,0,0,1-1.07,1.07H924c-0.64.1-1.27,0.18-1.91,0.25a1.67,1.67,0,0,0-.34,0,39.17,39.17,0,0,1-8.68,0h0q-0.8-.09-1.6-0.21h-0.21Zm-21.43-1.07a1.06,1.06,0,0,1,1-1.07,26.82,26.82,0,0,0,10.93,0,1.06,1.06,0,0,1,1,1.07,1,1,0,0,1-1.07,1.07h-0.21q-0.66.12-1.33,0.22H900l-0.54.08a27.57,27.57,0,0,1-7.5-.15l-0.21,0h0l-0.61-.11h-0.21A1,1,0,0,1,889.79,14.29Zm55.61,3.86a28.54,28.54,0,0,1-2,10.5l-8,23.79a3.06,3.06,0,0,1-1.82,1.82,2.1,2.1,0,0,1-1.61.11,2.84,2.84,0,0,1-1.61-1.71l-7.5-21a1,1,0,0,0-1.93,0l-7,21a4.27,4.27,0,0,1-5,2.79,4.19,4.19,0,0,1-3-2.68l-12.74-34.9a27.23,27.23,0,0,0,3.1.19,27.41,27.41,0,0,0,3.22-.2l10.92,30.31a1,1,0,0,0,1.93,0l6.43-19.07a0.92,0.92,0,0,0,0-.75l-4-10.41c1,0.08,2,.12,3,0.12,1.16,0,2.35-.06,3.55-0.17l10.48,29.42a1,1,0,0,0,1.93,0l4.5-13.39a0.21,0.21,0,0,0,.11-0.21,16.35,16.35,0,0,0,.86-4.93,14.38,14.38,0,0,0-1.82-7.18l-0.43-.86c-0.43-.75-0.86-1.61-1.29-2.36-1-1.61-1.82-3.21-1.82-4.61A4.22,4.22,0,0,1,938,9.46c5.57,0,6,1.07,6.75,3.32a9.44,9.44,0,0,1,.64,3.54v1.82Z" transform="translate(-887.65 -7.21)"/><path class="cls-2" d="M945.4,18.14a28.54,28.54,0,0,1-2,10.5l-8,23.79a3.06,3.06,0,0,1-1.82,1.82,2.1,2.1,0,0,1-1.61.11,2.84,2.84,0,0,1-1.61-1.71l-7.5-21a1,1,0,0,0-1.93,0l-7,21a4.27,4.27,0,0,1-5,2.79,4.19,4.19,0,0,1-3-2.68l-12.74-34.9a27.23,27.23,0,0,0,3.1.19,27.41,27.41,0,0,0,3.22-.2l10.92,30.31a1,1,0,0,0,1.93,0l6.43-19.07a0.92,0.92,0,0,0,0-.75l-4-10.41c1,0.08,2,.12,3,0.12,1.16,0,2.35-.06,3.55-0.17l10.48,29.42a1,1,0,0,0,1.93,0l4.5-13.39a0.21,0.21,0,0,0,.11-0.21,16.35,16.35,0,0,0,.86-4.93,14.38,14.38,0,0,0-1.82-7.18l-0.43-.86c-0.43-.75-0.86-1.61-1.29-2.36-1-1.61-1.82-3.21-1.82-4.61A4.22,4.22,0,0,1,938,9.46c5.57,0,6,1.07,6.75,3.32a9.44,9.44,0,0,1,.64,3.54v1.82Z" transform="translate(-887.65 -7.21)"/></svg>