<svg id="Layer_1" data-name="Layer 1" xmlns="http://www.w3.org/2000/svg" xmlns:xlink="http://www.w3.org/1999/xlink" viewBox="0 0 60.49 58.12"><defs><style>.cls-1{fill:none;}.cls-2{clip-path:url(#clip-path);}.cls-3{fill:#a2dbe0;}.cls-4{fill:#515daa;}</style><clipPath id="clip-path" transform="translate(-1294 -115.05)"><rect class="cls-1" x="1303.19" y="122.36" width="42.88" height="25.05"/></clipPath></defs><title>icon_1_diseno_web_personalizado</title><g class="cls-2"><path class="cls-3" d="M1351.68,115.05h-54.37a2.81,2.81,0,0,0-2.81,2.81v41.25a0.94,0.94,0,0,0,.94.94h21.35l-1.5,7.5h-2a0.94,0.94,0,0,0-.94.94v2.81h-1.87v1.87h28.12V171.3h-1.87v-2.81a0.94,0.94,0,0,0-.94-0.94h-2l-1.5-7.5h21.36a0.94,0.94,0,0,0,.94-0.94V117.87A2.81,2.81,0,0,0,1351.68,115.05Zm-18.75,54.37h1.87v1.87h-20.62v-1.87h18.75Zm-15.73-1.87,1.5-7.5h11.59l1.5,7.5H1317.2Zm35.42-9.37h-56.24v-8.44h56.24v8.44Zm-13.12-34.68H1332a0.94,0.94,0,0,0-.94.94v8.44h1.87v-7.5h5.62v3.75h-3.75V131h3.75v4.69h-3.75v1.87h3.75v4.69h-3.75v1.87h3.75v3.75h-5.62v-7.5h-1.87v7.5h-3.75v-4.69c0-3.83,4.65-4.67,4.84-4.7a0.94,0.94,0,0,0,.65-1.41L1324.36,123a1,1,0,0,0-1.61,0l-8.44,14.06a0.94,0.94,0,0,0,.65,1.41c0.2,0,4.84.87,4.84,4.7v4.69h-3.75v-7.5h-1.87v7.5h-0.94V131h0.94v1.87h1.87v-2.81a0.93,0.93,0,0,0-.08-0.37l-2.81-6.56a0.94,0.94,0,0,0-1.72,0l-2.81,6.56a0.93,0.93,0,0,0-.08.37v17.81h-7.5V121.62h46.87v26.25h-7.5V124.43A0.94,0.94,0,0,0,1339.49,123.49Zm-17.81,21.56v-0.94h3.75v0.94h-3.75Zm3.75,1.87v0.94h-3.75v-0.94h3.75Zm-3.82-4.69c-0.45-3-3-4.59-5-5.28l6-10.08v7.86h1.87v-7.86l6,10.08c-2,.68-4.59,2.3-5,5.28h-3.89Zm-10.7-13.12,1.39-3.25,1.39,3.25h-2.79Zm0.46,1.87v16.87h-0.94V131h0.94Zm41.25,16.87h-2.81V120.68a0.94,0.94,0,0,0-.94-0.94h-48.75a0.94,0.94,0,0,0-.94.94v27.18h-2.81v-30a0.94,0.94,0,0,1,.94-0.94h54.37a0.94,0.94,0,0,1,.94.94v30Z" transform="translate(-1294 -115.05)"/></g><circle class="cls-3" cx="29.95" cy="38.15" r="1.93"/><path class="cls-4" d="M1354,122.88h-0.1a6.31,6.31,0,0,0-6.38-6.38h-47.14a6.31,6.31,0,0,0-6.38,6.38v29.75a6.31,6.31,0,0,0,6.38,6.38h17.1l-1.45,6.76h-6.57a0.91,0.91,0,0,0-1,1v3.86a0.91,0.91,0,0,0,1,1h29a0.91,0.91,0,0,0,1-1v-3.86a0.91,0.91,0,0,0-1-1H1332l-1.45-6.76h17.1a6.37,6.37,0,0,0,6.38-6.38V122.88Zm-16.52,44.82v1.93h-27V167.7h27ZM1318,165.77l1.45-6.76h9.08l1.45,6.76h-12Zm34-13.14a4.49,4.49,0,0,1-4.44,4.44h-47.14a4.49,4.49,0,0,1-4.44-4.44v-3.28h56v3.28Zm0-5.22h-56V122.88a4.49,4.49,0,0,1,4.44-4.44h47.14a4.49,4.49,0,0,1,4.44,4.44v24.54h0Z" transform="translate(-1294 -115.05)"/></svg>