<svg id="Layer_1" data-name="Layer 1" xmlns="http://www.w3.org/2000/svg" viewBox="0 0 58.84 58.84"><defs><style>.cls-1{fill:#a2dbe0;}.cls-2{fill:#515daa;}</style></defs><title>icon_4_integracion_servicios</title><path class="cls-1" d="M1304.34,266.37v-37a4.89,4.89,0,1,0-9.77.1c0,0.19,0,36.93,0,37,0,0.23-.06,0,3.21,7.38a1.79,1.79,0,0,0,3.33,0C1304.5,266.19,1304.34,266.63,1304.34,266.37Zm-4.79,6.77c-0.14.33-.1,0.11-1.36-2.67a6.32,6.32,0,0,1,2.54,0Zm1.89-4.28a7.87,7.87,0,0,0-4,0l-1.17-2.65a1.15,1.15,0,0,1,1.57-.91c0.63,0.25.51,0.77,1.27,1a1.27,1.27,0,0,0,1.36-.53,1.15,1.15,0,0,1,2.1.48Zm1.18-5.13a2.87,2.87,0,0,0-2.3,0V245.41a0.86,0.86,0,1,0-1.72,0v18.33a2.87,2.87,0,0,0-2.3,0V237.65h2.3v3.74a0.86,0.86,0,1,0,1.72,0v-3.74h2.3v26.09Zm0-27.81h-6.32v-1.38h6.32v1.38Zm0-3.1h-6.32v-1.38h6.32v1.38h0Zm0-3.1h-6.32v-0.26a3.2,3.2,0,0,1,3.37-3.25,3.17,3.17,0,0,1,2.95,3.15v0.35Z" transform="translate(-1294.57 -216.13)"/><path class="cls-2" d="M1341.78,255.1a0.86,0.86,0,0,0,.86-0.86v-4h8.79l0.19,0h0a2.2,2.2,0,0,0,.57-0.21l0,0h0a2.24,2.24,0,0,0,1.17-2V229.5a0.86,0.86,0,0,0-.33-0.68L1338,217a3.9,3.9,0,0,0-4.83,0l-9.55,7.51h-14a2.52,2.52,0,0,0-2.52,2.52v41.67a6.32,6.32,0,0,0,6.17,6.3h8.64a0.86,0.86,0,1,0,0-1.72h-4.25a6.24,6.24,0,0,0,0-9h29.46a4.54,4.54,0,0,1,3.3,7.7,4.49,4.49,0,0,1-3.22,1.35h-21.28a0.86,0.86,0,0,0,0,1.72h21.28a6.24,6.24,0,0,0,6.25-6.33,6.31,6.31,0,0,0-6.33-6.16h-4.44v-4.23a0.86,0.86,0,0,0-1.72,0v4.23h-24a1.45,1.45,0,0,0-1.12,2.31c0.34,0.55,2.16,1.58,2,4.17a4.53,4.53,0,0,1-4.46,4.29,4.59,4.59,0,0,1-4.58-4.58V227a0.8,0.8,0,0,1,.8-0.8h11.85l-3.27,2.57a0.92,0.92,0,0,0-.33.8V248a2.24,2.24,0,0,0,1.27,2,2.21,2.21,0,0,0,.51.18h0l0.18,0h21.11v4A0.86,0.86,0,0,0,1341.78,255.1Zm9.91-7.63-10.29-8.09,10.29-8.09v16.17Zm-14.74-6.77a2.18,2.18,0,0,1-2.7,0l-13.13-10.32h29Zm-2.7-22.36a2.18,2.18,0,0,1,2.7,0l13.13,10.32h-29Zm-14.68,29.14V231.34l10.26,8.06Zm1.49,1,10.16-8c2,1.55,2,1.59,2.34,1.8a3.89,3.89,0,0,0,2,.58c2,0,2.89-1.38,4.41-2.41l10.19,8h-29.14Z" transform="translate(-1294.57 -216.13)"/></svg>