<svg id="Layer_1" data-name="Layer 1" xmlns="http://www.w3.org/2000/svg" viewBox="0 0 60 59.97"><defs><style>.cls-1{fill:#a2dbe0;}.cls-2{fill:#515daa;}</style></defs><title>icon_5_protocolo_seguro</title><path class="cls-1" d="M1433.94,242.87h-20.52a0.88,0.88,0,0,0-.88.88v14.14a0.88,0.88,0,0,0,.88.88h20.51a0.9,0.9,0,0,0,.89-0.88V243.75A0.88,0.88,0,0,0,1433.94,242.87Zm-9.13,8.06a0.43,0.43,0,0,0-.2.4v2.43a0.88,0.88,0,0,1-.45.82,0.93,0.93,0,0,1-1.41-.81v-2.43a0.41,0.41,0,0,0-.18-0.38,1.83,1.83,0,0,1-.61-2.27,1.89,1.89,0,0,1,3.61.72A1.79,1.79,0,0,1,1424.81,250.93Z" transform="translate(-1393.67 -215.57)"/><path class="cls-2" d="M1396.49,256.44a1.37,1.37,0,0,0,.38-0.06,1.11,1.11,0,0,0,.67-1.42,27.78,27.78,0,0,1,45.54-29.28l0.17,0.17-3.36,0a1.11,1.11,0,0,0,0,2.23h0l6-.07a1.11,1.11,0,0,0,.78-0.33,1.1,1.1,0,0,0,.32-0.78l-0.07-6a1.11,1.11,0,0,0-1.13-1.1,1.13,1.13,0,0,0-1.1,1.13l0,3.36-0.17-.17a30,30,0,0,0-49.19,31.62A1.14,1.14,0,0,0,1396.49,256.44Z" transform="translate(-1393.67 -215.57)"/><path class="cls-2" d="M1443.53,265a27.8,27.8,0,0,1-39.27.44l-0.17-.17,3.36,0a1.11,1.11,0,0,0,0-2.23h0l-6,.09a1.13,1.13,0,0,0-1.1,1.13l0.07,6a1.12,1.12,0,0,0,1.11,1.1h0a1.13,1.13,0,0,0,1.1-1.13l0-3.36,0.17,0.17a30,30,0,0,0,49.19-31.62,1.11,1.11,0,1,0-2.09.75A27.62,27.62,0,0,1,1443.53,265Z" transform="translate(-1393.67 -215.57)"/><path class="cls-2" d="M1423.67,228.29a9,9,0,0,0-9,9v4.48h-0.39a2.9,2.9,0,0,0-2.89,2.89V257a2.9,2.9,0,0,0,2.89,2.89H1433a2.9,2.9,0,0,0,2.89-2.89V244.64a2.9,2.9,0,0,0-2.89-2.89h-0.39v-4.5A9,9,0,0,0,1423.67,228.29Zm-6.75,9a6.75,6.75,0,0,1,13.5,0v4.5h-13.5v-4.5h0Zm16.78,7.39V257a0.66,0.66,0,0,1-.66.66h-18.73a0.66,0.66,0,0,1-.66-0.66V244.64a0.66,0.66,0,0,1,.66-0.66H1433A0.67,0.67,0,0,1,1433.71,244.64Z" transform="translate(-1393.67 -215.57)"/></svg>