<svg id="Layer_1" data-name="Layer 1" xmlns="http://www.w3.org/2000/svg" viewBox="0 0 60 56"><defs><style>.cls-1{fill:#515daa;}.cls-2{fill:#a2dbe0;}</style></defs><title>icon_3_responsive</title><path class="cls-1" d="M1558.31,140.56v-22a5,5,0,0,0-5-5h-44a5,5,0,0,0-5,5v15a3,3,0,0,0-3,3v30a3,3,0,0,0,3,3h22a3,3,0,0,0,3-3h8.38a3,3,0,0,0,2.89-3.79l-2-7.21h5.69v11a3,3,0,0,0,3,3h11a3,3,0,0,0,3-3v-23A3,3,0,0,0,1558.31,140.56Zm-31,26a1,1,0,0,1-1,1h-22a1,1,0,0,1-1-1v-2h24v2Zm0-4h-24v-22h24v22Zm0-24h-24v-2a1,1,0,0,1,1-1h22a1,1,0,0,1,1,1v2Zm11.35,24.74a1,1,0,0,1-1,1.26h-8.38v-2h9.15Zm-9.35-2.74v-5h7.24l1.36,5h-8.6Zm15-7h-15v-6h15v6Zm0-10v2h-15v-9a3,3,0,0,0-3-3h-20v-15a3,3,0,0,1,3-3h44a3,3,0,0,1,3,3v22h-9A3,3,0,0,0,1544.31,143.56Zm15,23a1,1,0,0,1-1,1h-11a1,1,0,0,1-1-1v-2h13v2Zm0-4h-13v-15h13v15Zm0-17h-13v-2a1,1,0,0,1,1-1h11a1,1,0,0,1,1,1v2Z" transform="translate(-1501.31 -113.56)"/><rect class="cls-2" x="7" y="4" width="2" height="2" rx="1" ry="1"/><rect class="cls-2" x="11" y="4" width="2" height="2" rx="1" ry="1"/><rect class="cls-2" x="15" y="4" width="2" height="2" rx="1" ry="1"/><rect class="cls-2" x="3.49" y="28.5" width="2" height="2" rx="1" ry="1"/><rect class="cls-2" x="7.49" y="28.5" width="2" height="2" rx="1" ry="1"/><rect class="cls-2" x="46.18" y="35" width="2" height="2" rx="1" ry="1"/></svg>