<svg id="Layer_1" data-name="Layer 1" xmlns="http://www.w3.org/2000/svg" viewBox="0 0 60 55.65"><defs><style>.cls-1{fill:#515daa;}.cls-2{fill:#a2dbe0;}</style></defs><title>icon_7_creacion_cuentas_correo</title><path class="cls-1" d="M1353.55,358.29h0l-7.66-5.08v-17a1,1,0,0,0-1-1h-41.8a1,1,0,0,0-1,1v17l-7.66,5.08h0a1,1,0,0,0-.44.83v30.77a1,1,0,0,0,1,1h58a1,1,0,0,0,1-1V359.12a1,1,0,0,0-.44-0.83h0Zm-51.45,3.48-3.12-1.65h3.12v1.65Zm-6.12-1,22.85,12.12L1296,388V360.77Zm28,11.09,25.71,17h-51.42l25.71-17h0Zm5.16,1L1352,360.77V388l-22.85-15.15h0Zm16.73-12.78H1349l-3.12,1.65v-1.65Zm3.82-2h-3.82v-2.53Zm-5.8-20.9v25.59l-16.63,8.82-2.73-1.81a1,1,0,0,0-1.1,0l-2.73,1.81-16.63-8.82V337.22h39.81Zm-41.8,20.9h-3.81l3.81-2.53v2.53Z" transform="translate(-1293.99 -335.24)"/><path class="cls-2" d="M1324,361.37h7.92a1,1,0,0,0,0-2H1324a6.93,6.93,0,0,1-6.92-6.92v-0.29a6.92,6.92,0,1,1,13.85,0v0.73a1.5,1.5,0,0,1-3,0v-1.39a4.3,4.3,0,1,0-1.47,3.23,3.49,3.49,0,0,0,6.45-1.83v-0.73a8.91,8.91,0,0,0-17.82,0v0.29a8.92,8.92,0,0,0,8.91,8.91h0Zm-0.37-7.56a2.31,2.31,0,1,1,2.31-2.31A2.31,2.31,0,0,1,1323.62,353.81Z" transform="translate(-1293.99 -335.24)"/></svg>