<?xml version="1.0" encoding="utf-8"?>
<!-- Generator: Adobe Illustrator 22.0.0, SVG Export Plug-In . SVG Version: 6.00 Build 0)  -->
<svg version="1.1" id="Capa_1" xmlns="http://www.w3.org/2000/svg" xmlns:xlink="http://www.w3.org/1999/xlink" x="0px" y="0px"
	 viewBox="0 0 32 32" style="enable-background:new 0 0 32 32;" xml:space="preserve">
<style type="text/css">
	.st0{fill:#CB6120;}
	.st1{fill:#2D2B2B;}
</style>
<g>
	<path class="st0" d="M16,6.7c0,0-8.7,10.2-12.1,14.6c4-7,8.1-14,12.1-21c4.1,7.1,8.1,14,12.1,21C24.7,16.9,16,6.7,16,6.7z"/>
	<g>
		<path class="st1" d="M25.9,24.9c0,0-6.8-11.6-9.9-16.2c5.3,6.1,10.6,12.1,16,18.3c-8,1.6-15.9,3.2-23.8,4.7
			C13.5,29.9,25.9,24.9,25.9,24.9z"/>
		<path class="st1" d="M6.1,24.9c0,0,6.8-11.6,9.9-16.2C10.7,14.7,5.4,20.8,0,26.9c8,1.6,15.9,3.2,23.8,4.7
			C18.5,29.9,6.1,24.9,6.1,24.9z"/>
	</g>
</g>
</svg>
