<?xml version="1.0" encoding="utf-8"?>
<!-- Generator: Adobe Illustrator 22.0.0, SVG Export Plug-In . SVG Version: 6.00 Build 0)  -->
<svg version="1.1" id="Capa_1" xmlns="http://www.w3.org/2000/svg" xmlns:xlink="http://www.w3.org/1999/xlink" x="0px" y="0px"
	 viewBox="0 0 64 64" style="enable-background:new 0 0 64 64;" xml:space="preserve">
<style type="text/css">
	.st0{fill:#CB6120;}
	.st1{fill:#2D2B2B;}
</style>
<g>
	<path class="st0" d="M32,13.5c0,0-17.5,20.3-24.3,29.2c8.1-14,16.1-27.9,24.3-42c8.2,14.1,16.2,28.1,24.3,42
		C49.5,33.8,32,13.5,32,13.5z"/>
	<g>
		<path class="st1" d="M51.9,49.7c0,0-13.6-23.1-19.9-32.4c10.6,12.1,21.3,24.3,32,36.5c-16,3.2-31.8,6.3-47.6,9.5
			C27,59.7,51.9,49.7,51.9,49.7z"/>
		<path class="st1" d="M12.1,49.7c0,0,13.6-23.1,19.9-32.4C21.4,29.5,10.7,41.6,0,53.8c16,3.2,31.8,6.3,47.6,9.5
			C37,59.7,12.1,49.7,12.1,49.7z"/>
	</g>
</g>
</svg>
