<svg id="Layer_1" data-name="Layer 1" xmlns="http://www.w3.org/2000/svg" viewBox="0 0 455.84 511.57"><defs><style>.cls-1{fill:#c2aad2;}.cls-2{fill:#662d91;}.cls-3{fill:#fff;}.cls-4{fill:#612f88;}.cls-5{fill:none;stroke:#612f88;stroke-miterlimit:10;stroke-width:2.79px;}</style></defs><title>engradeser_logo</title><path class="cls-1" d="M388.75,59.87l-.64.52A156.08,156.08,0,0,1,371.8,72.72a46.92,46.92,0,0,1-9.86,4.77,19.18,19.18,0,0,1-5.22,1,9.27,9.27,0,0,1-4.33-.94A8.57,8.57,0,0,1,350.25,76a7.17,7.17,0,0,1-2.12-6.47,13.3,13.3,0,0,1,1.31-3.85,28.72,28.72,0,0,1,2.36-3.76c.45-.46.86-1,1.3-1.41a4.78,4.78,0,0,0,1.44,2.75,7.7,7.7,0,0,0,1.71,1.16,8.49,8.49,0,0,0,.95.4,11.12,11.12,0,0,0,5.83.39,17.35,17.35,0,0,0,5.28-2,24.05,24.05,0,0,0,8.34-7.52,13.7,13.7,0,0,0,1-1.65,13,13,0,0,0,1.19-3.76,6.15,6.15,0,0,0-.58-3.12,6.78,6.78,0,0,0-2.82-2.62l-.36-.18a10.39,10.39,0,0,0-4.16-.85,20.35,20.35,0,0,0-7.57,1.71,37.72,37.72,0,0,0-10.53,6.73,28.7,28.7,0,0,0-6.89,8.93,19.17,19.17,0,0,0-.95,2.2,19.53,19.53,0,0,0-1,3.6c-.3.24-.58.5-.88.74A27.89,27.89,0,0,1,338.85,70a10.41,10.41,0,0,1-2.18.7,3.33,3.33,0,0,1-1.86,0,3.28,3.28,0,0,1-1.46-1,4.22,4.22,0,0,1-1-1.61,7.05,7.05,0,0,1-.39-3.12,19,19,0,0,1,1.14-5.53,52.45,52.45,0,0,1,2.33-5.63,100.92,100.92,0,0,1,8.73-14.57q12-6.63,23.44-14.37A98.74,98.74,0,0,0,379.71,15,33.92,33.92,0,0,0,383,11.49a13.47,13.47,0,0,0,2.26-4l.22-.65a7.39,7.39,0,0,0,.24-2.22,4.54,4.54,0,0,0-.83-2.23A5.29,5.29,0,0,0,382.52.71a5.08,5.08,0,0,0-1.86-.26c-1.35-.13-3.48.41-6.37,1.59a47.53,47.53,0,0,0-10.76,6.9,114.45,114.45,0,0,0-14.84,14.74c-1.46,1.63-2.8,3.24-4,4.85l0,.06a57.84,57.84,0,0,0-3.56,5q-1.5,2.31-2.86,4.44a17.12,17.12,0,0,0,.16-3,9.74,9.74,0,0,0-.92-3.7,5.68,5.68,0,0,0-2.35-2.45c-.83-.37-1.4-.61-1.7-.72a9.1,9.1,0,0,0-3.36-.48q-2.79-.08-6.95,2.2a27.15,27.15,0,0,0-9.39,8.62A41.47,41.47,0,0,0,309.41,47a29,29,0,0,0-.91,3.28,68.79,68.79,0,0,1-5.37,5.17,29,29,0,0,1-4.77,3.3,15.08,15.08,0,0,1-2.53,1,5.67,5.67,0,0,1-2.45.15,1.76,1.76,0,0,1-1.45-1.7,3.57,3.57,0,0,1,.05-1.1,16.59,16.59,0,0,1,1-3.29,73.52,73.52,0,0,1,4.55-8.24c.56-.83,1.06-1.67,1.53-2.52a17,17,0,0,0,1.32-2.55,70.67,70.67,0,0,0,4.3-9.18,19.22,19.22,0,0,0,1.13-3.9,10.37,10.37,0,0,0,.11-2.75,4.51,4.51,0,0,0-1-2.45,4.23,4.23,0,0,0-2.3-1.14,6.69,6.69,0,0,0-1.23-.07,13.27,13.27,0,0,0-3.8.76A19.58,19.58,0,0,0,293.4,24a40.4,40.4,0,0,0-7,6.1q-1.74,1.73-3.3,3.61,2.54-5.26,4.5-9.57a2,2,0,0,1,.13-.4,5.63,5.63,0,0,1,.31-.57,7.12,7.12,0,0,1,.29-.74,2.31,2.31,0,0,1,.26-.48v-.07q.07-.46-.57-1.2a5.4,5.4,0,0,0-1.52-1.26,4.84,4.84,0,0,0-1.43-.55,3.42,3.42,0,0,0-1,0,2.6,2.6,0,0,0-1.81,1.71.58.58,0,0,0-.1.19l0,.07q-2.49,5.46-6.85,14.57-4.74,9.81-8.23,17.47a2.48,2.48,0,0,0-.2.38l-.23.58-.36.72a18.36,18.36,0,0,1-1.46,1.18,6.77,6.77,0,0,1-2.34,1.15,8.13,8.13,0,0,1-1.37.22,3,3,0,0,1-2.1-.92c-.68-.56-1-2.11-.95-4.66a51.39,51.39,0,0,1,2.23-11.24,194.51,194.51,0,0,1,6.79-18.88,4.61,4.61,0,0,0,.29-.68.68.68,0,0,0,.07-.27,1.35,1.35,0,0,0-.46-.89,5.76,5.76,0,0,0-1.63-1.12l-.74-.36a5.09,5.09,0,0,0-1.7-.36h-.21a1.24,1.24,0,0,0-1.1.6q-1.92,4.54-3.28,8.48A16,16,0,0,0,257.24,22a9,9,0,0,0-1.93-3.24,5.73,5.73,0,0,0-3-1.62c-.91-.1-1.53-.16-1.84-.16a8.92,8.92,0,0,0-3.36.56c-1.78.51-3.77,1.92-5.94,4.2a27,27,0,0,0-6.33,11.07,41.49,41.49,0,0,0-1.52,9.44c0,.54,0,1.08.07,1.62a65.78,65.78,0,0,1-5.6,9.13,29.51,29.51,0,0,1-3.69,4.29A13.73,13.73,0,0,1,221.93,59a4.63,4.63,0,0,1-2,.82,4.38,4.38,0,0,1-2.47-.42A4.31,4.31,0,0,1,216,58.11a6.81,6.81,0,0,1-1-2.86l-.06-.41q-.51-3.86.8-11.48,1.45-8,4.9-20.85a1.45,1.45,0,0,1,.09-.36l.08-.42a.8.8,0,0,0,0-.35,1.43,1.43,0,0,0-.53-.83,4.31,4.31,0,0,0-1.77-.86l-.86-.23a4.25,4.25,0,0,0-1.39-.09c-.79-.12-1.78-.28-3-.49h-.13a23.15,23.15,0,0,1-3.27-.73A18.83,18.83,0,0,0,211.17,13a8.41,8.41,0,0,0-.06-1.44l-.07-.48a4.9,4.9,0,0,0-.88-1.94,3.88,3.88,0,0,0-2.23-1.22,7.41,7.41,0,0,0-1.73,0,6,6,0,0,0-1.53.41A4.18,4.18,0,0,0,203,9.38a5.64,5.64,0,0,0-1.4,2.4,7.72,7.72,0,0,0-.23,3.4A8.16,8.16,0,0,0,205.57,21a.64.64,0,0,1,.22.11,4.67,4.67,0,0,0,.72.24.82.82,0,0,0,.23.11.22.22,0,0,1,.14.05l.69.22c-.66,5.42-3.25,16.5-5.24,21.28A67.28,67.28,0,0,1,194,57.57a117,117,0,0,1-7.51,9c0-1.47,0-2.89-.05-4.26,0-2.43.06-5.94.07-10.53s0-8.93,0-13-.06-6.67-.08-7.71a3.37,3.37,0,0,1,0-.73c0-.41,0-.87,0-1.39s0-1.1-.06-1.62,0-.85,0-1l0-.07q-.12-.39-.93-.51a5,5,0,0,0-2,.24,5.4,5.4,0,0,0-2.1,1.2,3.72,3.72,0,0,0-1.16,2.2A2.9,2.9,0,0,0,180,30l0,.06q.18,5.43.31,10.38l0-.06a21.54,21.54,0,0,0-3.22-6.24,9.45,9.45,0,0,0-2.87-2.49,5.66,5.66,0,0,0-3.33-.65c-.9.17-1.5.3-1.81.39a9,9,0,0,0-3,1.55q-2.32,1.55-4.41,5.79a27,27,0,0,0-2.7,12.46,41.48,41.48,0,0,0,1.39,9.46,29,29,0,0,0,1.08,3A69.94,69.94,0,0,1,160,71.29a29.22,29.22,0,0,1-2,5.45,15.42,15.42,0,0,1-1.45,2.31,5.63,5.63,0,0,1-1.91,1.54,1.77,1.77,0,0,1-2.17-.54,3.48,3.48,0,0,1-.6-.92,17,17,0,0,1-1.07-3.28,72,72,0,0,1-1.07-9.36c0-1-.11-2-.22-2.93a17.49,17.49,0,0,0-.4-2.84,70.19,70.19,0,0,0-1.83-10,19.46,19.46,0,0,0-1.34-3.83,10.14,10.14,0,0,0-1.51-2.31,4.51,4.51,0,0,0-2.22-1.42,4.2,4.2,0,0,0-2.53.4,6.49,6.49,0,0,0-1.05.67A13.36,13.36,0,0,0,136,47.06a20,20,0,0,0-2.18,4.26,40,40,0,0,0-2.19,9c-.28,1.61-.48,3.22-.6,4.85q-1-5.74-1.89-10.4a3.29,3.29,0,0,1-.11-.4,4.93,4.93,0,0,1-.09-.64c-.08-.27-.14-.53-.19-.78a3.24,3.24,0,0,1-.07-.54l0-.06c-.14-.29-.53-.5-1.16-.65a5.29,5.29,0,0,0-2-.14A4.59,4.59,0,0,0,124,52a3.52,3.52,0,0,0-.8.54,2.64,2.64,0,0,0-.48,2.44.57.57,0,0,0,0,.22l0,.06q1.14,5.91,2.88,15.85,1.81,10.73,3.42,19a2.26,2.26,0,0,0,.06.43c0,.18.09.38.15.61s.08.55.13.81a2.54,2.54,0,0,0,.13.5l0,.06a1.66,1.66,0,0,0,1.09.69,5.88,5.88,0,0,0,1.29.15c.29,2,.64,3.92.89,5.89a98.38,98.38,0,0,1,.34,22.35,42.88,42.88,0,0,1-2.52,10.75,20.75,20.75,0,0,1-6.2,8.43,21.36,21.36,0,0,1-7.68,3.85,22.94,22.94,0,0,1-5.36.61,20.3,20.3,0,0,1-3.36-.37,17.48,17.48,0,0,1-3.66-1.19,22.66,22.66,0,0,1-7.56-5.33,26.37,26.37,0,0,1-1.77-2,36.27,36.27,0,0,1-4.69-8,47.65,47.65,0,0,1-2-6.16l0,0a54.52,54.52,0,0,1-1.14-6.25,41.14,41.14,0,0,1,.44-12.15,44.71,44.71,0,0,1,2.81-9.4q3.7-7.84,6.94-11.57c1.66-2,2.94-3.5,3.86-4.47.22-.23.41-.44.56-.62l1-1a5.19,5.19,0,0,1,.55-.52.18.18,0,0,0,.06-.14,2,2,0,0,0,.56-.66.7.7,0,0,0-.15-.8,1.28,1.28,0,0,0-.54-.4.62.62,0,0,0-.65.12l-1.33.63a.72.72,0,0,1-.25.12,18,18,0,0,1-4.64,1.42,14.49,14.49,0,0,1-4.37,0,16.77,16.77,0,0,1-5.52-1.89,28,28,0,0,1-8-6.88,28.62,28.62,0,0,1-2-2.79,44.1,44.1,0,0,1-5.54-13,38.83,38.83,0,0,1-1.2-9.83,32.4,32.4,0,0,1,1-7.84q2.05-6.71,4.46-9.85a18.84,18.84,0,0,1,4.11-4.59,19.36,19.36,0,0,1,2-1.38,7.22,7.22,0,0,1,7.6-.21,15.88,15.88,0,0,1,3.61,3.32,17.66,17.66,0,0,1,2.6,4.57,28.24,28.24,0,0,1,2,10.29,23.35,23.35,0,0,1-.06,2.66l-.37.3a9.86,9.86,0,0,0-.81.73,4,4,0,0,0-.52,1.11,2.17,2.17,0,0,0,.09,1.33,2.54,2.54,0,0,0,.41.72l.35.33a2.61,2.61,0,0,0,1,.6,1.33,1.33,0,0,0,1.07,0l.21-.17a1.25,1.25,0,0,0,.47-.72,44.45,44.45,0,0,0,.63-6.88,30.48,30.48,0,0,0-2.19-11.18,22.51,22.51,0,0,0-2.88-5l-.43-.54a14.22,14.22,0,0,0-3.94-3.4c-3.58-1.87-6.49-2.19-8.73-1a35.41,35.41,0,0,0-5,3.13,25.22,25.22,0,0,0-4.93,5.32,39.42,39.42,0,0,0-5.16,9.53,37.23,37.23,0,0,0-1.39,17.32q1.35,9,4.27,13.45t3.86,5.61a32,32,0,0,0,11.24,9,19.11,19.11,0,0,0,7.19,1.78,13.45,13.45,0,0,0,3.91-.24.18.18,0,0,1-.06.14,5.19,5.19,0,0,0-.55.52,50,50,0,0,0-4.13,4.74,45.49,45.49,0,0,0-4.51,7.31,43.61,43.61,0,0,0-3.71,10.47,44.63,44.63,0,0,0-.84,14,37.28,37.28,0,0,0,1,6.34l0,.05a37.07,37.07,0,0,0,2.2,6.37,40.43,40.43,0,0,0,5.12,8.5,33.15,33.15,0,0,0,2.81,3.09,26.52,26.52,0,0,0,9.6,6.23,21.62,21.62,0,0,0,15.26,0,28.27,28.27,0,0,0,6.67-3.91,26.59,26.59,0,0,0,8-10.86A41.58,41.58,0,0,0,135,121.8,98.62,98.62,0,0,0,134.69,99c-.25-2-.59-4-.89-5.93a2.84,2.84,0,0,0,.35-.13,3.78,3.78,0,0,0,.86-.57,2.85,2.85,0,0,0,.48-2.44l-.09-.18,0-.09q-1.23-6.26-2.7-14.87a.3.3,0,0,1,0-.22l-.06-.43c0-1.5,0-3,0-4.48a85,85,0,0,1,.76-9A40.73,40.73,0,0,1,135.57,52a15.36,15.36,0,0,1,1.93-3.84,7.92,7.92,0,0,1,2-2.18,2.27,2.27,0,0,1,.46-.3q1.11-.54,1.71.69l.12.25a17.29,17.29,0,0,1,1.08,5.17q.27,3.06.54,7.79c.05.64.1,1.3.13,2,0,.9.1,1.75.19,2.57l-.06,0a22.16,22.16,0,0,0,.4,2.69,49.41,49.41,0,0,0,2.35,10.1,15.78,15.78,0,0,0,.78,1.9,13.75,13.75,0,0,0,1,1.66,6.86,6.86,0,0,0,2.48,2.28,4.91,4.91,0,0,0,4.28,0,6.71,6.71,0,0,0,1.11-.69,13.11,13.11,0,0,0,3.61-4.58,29.09,29.09,0,0,0,2.13-5.75c.43-1.74.78-3.48,1.08-5.24.05.1.09.2.15.3a17.13,17.13,0,0,0,2.5,3.39,11.67,11.67,0,0,0,2.72,2,6.76,6.76,0,0,0,2.33.66,8.78,8.78,0,0,0,2.11-.34,8.08,8.08,0,0,0,3.33-2c.4-.4.8-.83,1.19-1.28a1.74,1.74,0,0,1,.36-.46,7.85,7.85,0,0,0,.64-1,20,20,0,0,0,2.4-5.56c0,1.8,0,3.55.07,5.26s0,3.47,0,5.14c-2.39,2.32-4.84,4.67-7.31,7-.89.88-1.79,1.74-2.73,2.59a142.64,142.64,0,0,0-11.81,12.49,51.74,51.74,0,0,0-5,7.12,33,33,0,0,0-3.38,8.06,26.84,26.84,0,0,0-.8,8.79,27.61,27.61,0,0,0,1,5.39,28.52,28.52,0,0,0,1.15,3.15,13.43,13.43,0,0,0,6.17,6.58,12.1,12.1,0,0,0,8.55.73,7.68,7.68,0,0,0,1-.36,16.65,16.65,0,0,0,7.67-5.84q3.5-4.53,6.38-14t4.3-24.58q.39-3.26.55-6.29l0-.13q.21-3.13.21-6.48.08-4.08,0-7.63a112.57,112.57,0,0,0,9-10.58A68.38,68.38,0,0,0,204,43.74c2-4.83,4.47-15.39,5.3-21.4a19.75,19.75,0,0,0,3.42.89l1.19.11q-5,19.43-3.72,29.11a19.59,19.59,0,0,0,.73,3.34A9.55,9.55,0,0,0,213.39,60a7,7,0,0,0,3.06,1.73A8.42,8.42,0,0,0,223,60.58a17.21,17.21,0,0,0,2.43-1.91,31.83,31.83,0,0,0,3.94-4.53,70,70,0,0,0,4.37-6.93c.09.61.15,1.23.27,1.84a17.67,17.67,0,0,0,1.37,4,9.9,9.9,0,0,0,2,2.7,6.57,6.57,0,0,0,2,1.33,9.36,9.36,0,0,0,2.11.31,8.07,8.07,0,0,0,3.77-.9c.5-.26,1-.55,1.52-.86a1.82,1.82,0,0,1,.48-.34,7,7,0,0,0,.9-.73,24.86,24.86,0,0,0,4.39-5.12c.42-.68.84-1.4,1.26-2.17v.89a22.87,22.87,0,0,0,.15,3.14,12.89,12.89,0,0,0,1.16,4.19A6.37,6.37,0,0,0,257.27,58a5.52,5.52,0,0,0,2,.79,8.57,8.57,0,0,0,1.16.08,8.72,8.72,0,0,0,2.88-.43,12.29,12.29,0,0,0,2.48-1.19c.34-.25.64-.53,1-.79a5.31,5.31,0,0,0,1.31,1,4.57,4.57,0,0,0,1.43.55,4.08,4.08,0,0,0,1,0,2.83,2.83,0,0,0,1.8-1.71l0-.2.07-.06q2.63-5.79,6.43-13.68a.27.27,0,0,1,.1-.19l.2-.38c.86-1.25,1.73-2.46,2.62-3.65a82.56,82.56,0,0,1,5.85-6.92,41.79,41.79,0,0,1,6.78-5.8,15.4,15.4,0,0,1,3.8-2,7.69,7.69,0,0,1,2.87-.63,2,2,0,0,1,.55,0c.81.13,1.14.65,1,1.55l0,.27a17.69,17.69,0,0,1-2.12,4.84q-1.56,2.65-4.09,6.66c-.32.55-.67,1.11-1,1.7s-.94,1.48-1.33,2.2H294a21.93,21.93,0,0,0-1.24,2.42,48.62,48.62,0,0,0-3.94,9.59,14.14,14.14,0,0,0-.47,2,12.23,12.23,0,0,0-.18,1.91,6.88,6.88,0,0,0,.7,3.3,4.92,4.92,0,0,0,3.45,2.52,6.91,6.91,0,0,0,1.31.07,13,13,0,0,0,5.6-1.63,29.78,29.78,0,0,0,5.07-3.45c1.29-1.1,2.52-2.27,3.73-3.46,0,.07,0,.15,0,.22a17.62,17.62,0,0,0,.09,4.21A12,12,0,0,0,309.14,61a6.38,6.38,0,0,0,1.6,1.91,8.05,8.05,0,0,0,1.91.93,7.77,7.77,0,0,0,3.8.27,17.35,17.35,0,0,0,1.71-.36l.56-.17a6,6,0,0,0,1.09-.43,24.39,24.39,0,0,0,5.73-3.54A35.56,35.56,0,0,0,330,55.22a25.59,25.59,0,0,0-1.41,10,9.24,9.24,0,0,0,1.34,4.13,7.13,7.13,0,0,0,2,2,7.39,7.39,0,0,0,1.73.87,6.57,6.57,0,0,0,3.39.2,11.25,11.25,0,0,0,2.66-.83,24.09,24.09,0,0,0,3.93-2.39,10.94,10.94,0,0,0,.84,4.51,11.64,11.64,0,0,0,.83,1.55l.18.25a15.21,15.21,0,0,0,4.37,3.32,14.7,14.7,0,0,0,7,1.49,19.72,19.72,0,0,0,5.74-1.1,47.79,47.79,0,0,0,10.25-5,160.88,160.88,0,0,0,16.4-12.35c.44-.39.88-.76,1.31-1.1ZM346.92,35.34c.79-1.08,1.58-2.13,2.36-3.17l0-.06c1.09-1.37,2.2-2.79,3.32-4.29A152.39,152.39,0,0,1,366.26,12.6,61.48,61.48,0,0,1,375.66,5a25.81,25.81,0,0,1,2.87-1.56,6.78,6.78,0,0,1,2.78-.86,4.8,4.8,0,0,1,1.18.11,2.22,2.22,0,0,1,1.34,2,5.31,5.31,0,0,1-.27,2.08l-.11.32a13.07,13.07,0,0,1-2.27,3.63c-1,1.11-1.9,2.1-2.76,3A87.83,87.83,0,0,1,366.5,23.2q-6.3,4.36-12.89,8.34-3.44,2-6.82,4A.5.5,0,0,1,346.92,35.34ZM179,61.16a22,22,0,0,1-2.43,5.71,8.08,8.08,0,0,1-2.18,2.61,6.87,6.87,0,0,1-1.37.8,3.4,3.4,0,0,1-3.1-.86A11.67,11.67,0,0,1,167.17,65c-.26-.73-.5-1.44-.7-2.14a30.79,30.79,0,0,1-1-4.49q-.45-3.42-.64-6.93a33.14,33.14,0,0,1,1.08-11.22,14.93,14.93,0,0,1,2.45-4.94,5.81,5.81,0,0,1,1.7-1.71,6.49,6.49,0,0,1,1.06-.53,3,3,0,0,1,2.21.26,7.68,7.68,0,0,1,2.29,2,19.51,19.51,0,0,1,2.91,5.69l.21.72A35.2,35.2,0,0,1,179,61.16Zm1.4,22q-.21,3.12-.36,6.45l0,.56a148.27,148.27,0,0,1-3.14,23.45q-2.1,9-4.72,13.09-2.22,3.79-4.28,4.91a20,20,0,0,1-2.78,1.33,9.24,9.24,0,0,1-6.48-.71,11.59,11.59,0,0,1-5.26-5.71,24,24,0,0,1-1.07-2.88,24.63,24.63,0,0,1-.92-5,23.28,23.28,0,0,1,.7-8.19,39.29,39.29,0,0,1,8-14.5A144.86,144.86,0,0,1,171.86,83.6c.92-.9,1.87-1.79,2.84-2.7q2.94-2.79,5.86-5.66c0,1.75,0,3.44,0,5.05l-.18,2.76Zm26.74-66.23a1.59,1.59,0,0,0-.46-.35A3.48,3.48,0,0,1,205.41,15a6.71,6.71,0,0,1-.44-1.49,3.55,3.55,0,0,1,0-1,4.43,4.43,0,0,1,.18-.72,3.52,3.52,0,0,1,.85-1.35,2.46,2.46,0,0,1,1.34-.77,1.46,1.46,0,0,1,1.39.6,3.31,3.31,0,0,1,.54,1.45,5,5,0,0,1,0,1.17,15.66,15.66,0,0,1-1.09,4.62,3.34,3.34,0,0,0-.46-.28,1.28,1.28,0,0,0-.29-.17A.88.88,0,0,1,207.15,16.89Zm49.3,15.79-1,3.94q-.74,3.06-1.7,6a27.46,27.46,0,0,1-2.73,5.8,21.86,21.86,0,0,1-4,4.71A8,8,0,0,1,244.1,55a6.61,6.61,0,0,1-1.54.35,3.41,3.41,0,0,1-2.71-1.75,11.74,11.74,0,0,1-1.28-5.07c0-.78,0-1.53,0-2.26a30.09,30.09,0,0,1,.41-4.57c.4-2.27.9-4.54,1.48-6.8a33.1,33.1,0,0,1,4.4-10.38,15,15,0,0,1,3.82-4,5.79,5.79,0,0,1,2.14-1.13,6.5,6.5,0,0,1,1.16-.18,3,3,0,0,1,2,.92,6.79,6.79,0,0,1,1.53,2.55,18.42,18.42,0,0,1,1.12,6.3C256.63,30.22,256.56,31.45,256.45,32.68Zm67.91,25.54a22.28,22.28,0,0,1-5.28,3.27,8.37,8.37,0,0,1-3.26.88,7,7,0,0,1-1.61-.14,3.27,3.27,0,0,1-2-2.47c-.35-1.08-.27-2.83.26-5.25q.3-1.12.66-2.16a29.64,29.64,0,0,1,1.78-4.22c1.07-2,2.23-4.06,3.48-6a32.35,32.35,0,0,1,7.41-8.53,14.27,14.27,0,0,1,4.79-2.64A5.82,5.82,0,0,1,333,30.5a8.32,8.32,0,0,1,1.17.17,3,3,0,0,1,1.65,1.5,7.63,7.63,0,0,1,.75,2.92,19.28,19.28,0,0,1-.91,6.32l-.24.72A35.2,35.2,0,0,1,324.36,58.22Zm46.93-11.41a5.46,5.46,0,0,1,3.13-.23l1.12.44q1.47.73,1.38,3.06a8.09,8.09,0,0,1-.64,2.35l-.37.73c-.24.49-.52,1-.82,1.5a22.81,22.81,0,0,1-7.66,6.94,15.32,15.32,0,0,1-4.79,1.81,8.74,8.74,0,0,1-3.65,0,12.57,12.57,0,0,1-2.13-.64,3.51,3.51,0,0,1-2-2.59,4.63,4.63,0,0,1,.33-1.91c1.54-1.66,3.1-3.29,4.59-5a42.39,42.39,0,0,1,5.7-4A19.65,19.65,0,0,1,371.29,46.81Z" transform="translate(-32.11 -0.43)"/><path class="cls-2" d="M455.07,114.11a118.82,118.82,0,0,1-19.94,5.61A65.67,65.67,0,0,1,423.7,121a29.33,29.33,0,0,1-5.65-.28,13.41,13.41,0,0,1-2.67-.7,4.73,4.73,0,0,1-1.89-1.09,4.28,4.28,0,0,1-1.18-2.21,4.05,4.05,0,0,1,.15-1.91,6.78,6.78,0,0,1,1.64-2.55l.28-.29c1.82-1.85,5-4,9.55-6.42q7.21-3.75,19.47-8.94a1.87,1.87,0,0,1,.34-.15l.38-.2a.8.8,0,0,0,.29-.19,1.44,1.44,0,0,0,.33-.92,4.36,4.36,0,0,0-.41-1.93l-.34-.82a4.14,4.14,0,0,0-.79-1.15c-.39-.71-.87-1.59-1.43-2.64l-.09-.1a24.06,24.06,0,0,1-1.43-3,18.79,18.79,0,0,0,4.85-2.22,7.28,7.28,0,0,0,1.1-.93l.34-.34a5,5,0,0,0,1-1.89,3.89,3.89,0,0,0-.41-2.51,7.2,7.2,0,0,0-1-1.39,6,6,0,0,0-1.26-.95,4.09,4.09,0,0,0-1.89-.61,5.68,5.68,0,0,0-2.75.36A7.83,7.83,0,0,0,437.36,77a8.16,8.16,0,0,0-2.06,6.88.57.57,0,0,1,.05.24,5.55,5.55,0,0,0,.25.72.93.93,0,0,0,0,.24.2.2,0,0,1,.05.14l-6.07,4.52h0l-.47.25a155.68,155.68,0,0,1-18.36,9,46.26,46.26,0,0,1-10.59,2.79,19.34,19.34,0,0,1-5.32,0,9.32,9.32,0,0,1-4.07-1.76A8.45,8.45,0,0,1,389,98a7.18,7.18,0,0,1-.83-6.76,13.14,13.14,0,0,1,2-3.52,31.67,31.67,0,0,1,4.21-4.35.62.62,0,0,1,.22-.17l.13-.17a.07.07,0,0,1,0,.1,4.78,4.78,0,0,0,.9,3.19,7.82,7.82,0,0,0,1.46,1.47,9,9,0,0,0,.85.57,11.15,11.15,0,0,0,5.65,1.51,18,18,0,0,0,5.58-1,24.19,24.19,0,0,0,9.62-5.78,14.53,14.53,0,0,0,1.27-1.44A13,13,0,0,0,422,78.22a6.19,6.19,0,0,0,0-3.17,6.73,6.73,0,0,0-2.25-3.11l-.33-.25a10.59,10.59,0,0,0-3.91-1.64,20.37,20.37,0,0,0-7.76.24,37.38,37.38,0,0,0-11.63,4.58,29.75,29.75,0,0,0-4.76,3.44,35.91,35.91,0,0,1-5.5.18l-2.93-.22c.3-.56.58-1.14.84-1.73a45.65,45.65,0,0,0,2.47-6.11,1.16,1.16,0,0,1,.15-.38c.25-.82.52-1.64.83-2.47a4.16,4.16,0,0,1,.26-.8,14,14,0,0,1,.51-1.46.66.66,0,0,1,0-.3c.09-.22.15-.41.2-.57a1.2,1.2,0,0,1,.14-.35l.07-.12q.52-.31,1.08-.69L392.7,61l1.56-1.2a14.14,14.14,0,0,0,1.52-1.39l0-.06a9.31,9.31,0,0,0,.68-.95,3,3,0,0,0,.4-1.28,2.24,2.24,0,0,0-1.25-2.39,5.46,5.46,0,0,0-2.26-.77,6,6,0,0,0-2.51.28A8.25,8.25,0,0,0,388,55.35a19.07,19.07,0,0,0-2,2.75l-.4.64A65.86,65.86,0,0,0,381,68.17c-.51,1.24-1,2.48-1.43,3.7a11.61,11.61,0,0,0-.48,1.15,3,3,0,0,0-.21.6c-.17.43-.35.94-.56,1.54s-.4,1-.55,1.39-.27.55-.34.67a.41.41,0,0,1-.2.2l-.31,0q-2.26-.37-4.56-.69a17.59,17.59,0,0,0-3.63,0,6.81,6.81,0,0,0-3.63,1.43,7,7,0,0,0-1.28,1.53,5.33,5.33,0,0,0-.63,2,4.63,4.63,0,0,0,1.2,3.61,14.78,14.78,0,0,0,2,1.64,9.59,9.59,0,0,0,6,1.31,9.91,9.91,0,0,0,4.42-1.91,21.6,21.6,0,0,0,4.49-5.24L382,80c1.29.16,2.57.27,3.84.31s2.37.06,3.55,0c-.59.64-1.16,1.3-1.69,2s-.92,1.28-1.35,2a18.44,18.44,0,0,0-2.46,5.43,11,11,0,0,0-.09,4.93,12.7,12.7,0,0,0,.51,1.69l.14.28a15.25,15.25,0,0,0,3.65,4.1,14.86,14.86,0,0,0,6.55,2.8,19.71,19.71,0,0,0,5.84,0,47.49,47.49,0,0,0,11-2.9,160.54,160.54,0,0,0,18-8.75v0l.11-.08.32-.17c.51-.29,1.24-.92,1.72-1.18h0l4.8-3.25A17.22,17.22,0,0,0,438,90.86c.23.35.44.69.64,1q-18.42,7.95-25.25,14.93a20.31,20.31,0,0,0-2.2,2.63,9.76,9.76,0,0,0-1.84,4.51,7,7,0,0,0,.52,3.48,8.65,8.65,0,0,0,1.77,2.49,8.77,8.77,0,0,0,3.15,2,17.39,17.39,0,0,0,3,.74,31.69,31.69,0,0,0,6,.33,70.72,70.72,0,0,0,11.67-1.38,118.85,118.85,0,0,0,21-6ZM389.56,60.9a3.69,3.69,0,0,0,.26-.56,11.09,11.09,0,0,1,.79-1.84c.27-.48.46-.79.56-.94a5.38,5.38,0,0,1,1.17-1.36,3.3,3.3,0,0,1,1.84-.63,1.65,1.65,0,0,1,.63.16.43.43,0,0,1,.2.45,1.41,1.41,0,0,1-.2.44,4.28,4.28,0,0,1-.41.54,12.15,12.15,0,0,1-1.26,1.23l-1.58,1.11c-.53.42-1.08.82-1.65,1.22l-.33.27-.06,0ZM375.69,80.34a13.54,13.54,0,0,1-2,2.54,5.82,5.82,0,0,1-4.38,1.85,5.74,5.74,0,0,1-2.31-.36c-.52-.25-.82-.39-.89-.44A2.41,2.41,0,0,1,365,81.65a3.24,3.24,0,0,1,.49-1.31,3.57,3.57,0,0,1,.42-.54,4.57,4.57,0,0,1,1.7-1,11.91,11.91,0,0,1,4.5-.25c1.39.18,2.78.41,4.17.68C376.11,79.61,375.91,80,375.69,80.34Zm39.58-6.94a5.4,5.4,0,0,1,3.12.37c.6.38.94.59,1,.65.86.67,1.12,1.75.76,3.26a7.56,7.56,0,0,1-1.08,2.19l-.5.65c-.33.43-.7.87-1.09,1.31a22.77,22.77,0,0,1-8.85,5.34,15.34,15.34,0,0,1-5.05.85,8.78,8.78,0,0,1-3.58-.73,12,12,0,0,1-2-1,3.48,3.48,0,0,1-1.45-2.93,4.53,4.53,0,0,1,.88-2.16,4.42,4.42,0,0,1,1-.91,14.77,14.77,0,0,1,3.14-2.06,4.21,4.21,0,0,0,.54-.36,40.63,40.63,0,0,1,7-3.15A19.1,19.1,0,0,1,415.27,73.4ZM440,80a6.24,6.24,0,0,1,.91-1.26,3.46,3.46,0,0,1,.81-.64,5.91,5.91,0,0,1,.67-.3,3.76,3.76,0,0,1,1.59-.16,2.54,2.54,0,0,1,1.44.59,1.49,1.49,0,0,1,.37,1.47,3.21,3.21,0,0,1-.8,1.31,5.83,5.83,0,0,1-.92.74,15.5,15.5,0,0,1-4.32,2,2.2,2.2,0,0,0-.06-.53.9.9,0,0,0-.05-.34,1,1,0,0,1,0-.33,1.87,1.87,0,0,0,0-.58A3.34,3.34,0,0,1,440,80Z" transform="translate(-32.11 -0.43)"/><circle class="cls-3" cx="228.03" cy="275.23" r="200.58"/><path class="cls-4" d="M91.48,414.68l-1.55,1.19-1.4-1.82,1.65-1.26c1.54-1.19,2-2.52.92-3.92s-2.47-1.29-4-.1l-9.07,7c-1.54,1.19-2,2.55-.92,3.92s2.48,1.29,4,.1l2.23-1.72,1.4,1.82-2.14,1.64c-2.59,2-5.25,2.1-7.29-.55s-1.25-5.17,1.35-7.17L85.53,407c2.6-2,5.26-2.1,7.28.52S94.07,412.68,91.48,414.68Z" transform="translate(-32.11 -0.43)"/><path class="cls-4" d="M88.73,436.61l15.71-14.94,1.66,1.75L92,436.84l4.27,4.49-1.6,1.51Z" transform="translate(-32.11 -0.43)"/><path class="cls-4" d="M120,436.88l1.81,1.6-14.31,16.29-1.82-1.59Zm4.29-2.08,1.82,1.6-4.27.49-1.26-1.1Z" transform="translate(-32.11 -0.43)"/><path class="cls-4" d="M121.51,466.07l-1.76-1.27,12.71-17.57L135,449l-5.13,15.64L139,452l1.73,1.25L128,470.79l-2-1.47,5.79-17.46Z" transform="translate(-32.11 -0.43)"/><path class="cls-4" d="M154.47,461.83l-11,18.7-2.09-1.23,11-18.69Z" transform="translate(-32.11 -0.43)"/><path class="cls-4" d="M173.08,477.24l-.83,1.76-2.07-1,.88-1.88c.82-1.76.62-3.15-1-3.9s-2.79,0-3.62,1.75l-4.85,10.37c-.83,1.76-.6,3.17,1,3.91s2.8,0,3.62-1.76l1.2-2.55,2.07,1-1.14,2.44c-1.39,3-3.71,4.27-6.74,2.86s-3.48-4-2.09-7l4.75-10.15c1.39-3,3.71-4.27,6.71-2.87S174.47,474.27,173.08,477.24Z" transform="translate(-32.11 -0.43)"/><path class="cls-4" d="M184.47,494.67l-2.19,3.86-2.11-.71L191,478.62l3.31,1.12-3,21.85-2.29-.77.61-4.4Zm.95-1.87,4.58,1.55,1.68-12.64Z" transform="translate(-32.11 -0.43)"/><path class="cls-4" d="M227.05,505.17l-1.41,4.22-2.21-.3,7-20.93,3.47.47,1.23,22-2.39-.32-.25-4.44Zm.58-2,4.79.64-.77-12.72Z" transform="translate(-32.11 -0.43)"/><path class="cls-4" d="M250.48,511.78l.57-21.66,2.41.06L253,509.64l6.19.16-.06,2.2Z" transform="translate(-32.11 -0.43)"/><path class="cls-4" d="M275.86,511.47,274.51,492l-4,.28-.15-2.19,10.35-.73.15,2.2-4,.28,1.36,19.43Z" transform="translate(-32.11 -0.43)"/><path class="cls-4" d="M302.79,495.91l.37,2.13L298,499l1.34,7.59,6.4-1.13.38,2.16-8.77,1.55-3.77-21.33,8.78-1.55.38,2.16-6.4,1.13,1.29,7.29Z" transform="translate(-32.11 -0.43)"/><path class="cls-4" d="M320,481.85c3.27-1,5.12.31,6,3.4l.5,1.69c.67,2.29.28,3.95-1.34,5,2.07,0,3.23,1.35,3.88,3.58l.95,3.24a5.37,5.37,0,0,0,1.15,2.37l-2.35.69a5.75,5.75,0,0,1-1.13-2.42l-.95-3.27c-.69-2.34-2-2.76-3.93-2.2l-1.64.48,2.6,8.88-2.32.68-6.07-20.8Zm2.27,10c1.84-.53,2.77-1.45,2.11-3.71l-.58-2c-.55-1.87-1.52-2.65-3.24-2.15l-2.26.66,2.25,7.7Z" transform="translate(-32.11 -0.43)"/><path class="cls-4" d="M347.94,495.09l-2,.84-8.36-20,2.83-1.18,10.67,12.52-6-14.46,2-.82,8.36,20-2.32,1-11.87-14Z" transform="translate(-32.11 -0.43)"/><path class="cls-4" d="M369.83,480l1.4,4.22-1.94,1.08-7-20.92,3.05-1.71,14.2,16.88-2.11,1.18-2.86-3.4Zm-.74-2,4.21-2.36-8.23-9.71Z" transform="translate(-32.11 -0.43)"/><path class="cls-4" d="M394.13,470,382.9,454.13l-3.26,2.3-1.27-1.79,8.47-6,1.26,1.79-3.25,2.3,11.23,15.9Z" transform="translate(-32.11 -0.43)"/><path class="cls-4" d="M398.87,438.92l14.07,16.5L411.1,457,397,440.49Z" transform="translate(-32.11 -0.43)"/><path class="cls-4" d="M410.37,428.3l16,10.59-11.1-15.63,1.55-1.6,12.73,18-2.48,2.56-18.39-12.15Z" transform="translate(-32.11 -0.43)"/><path class="cls-4" d="M440,421.08l2.94,3.33-1.37,1.76L427,409.62l2.14-2.77,19.66,10-1.47,1.91-4-2Zm-1.45-1.52,3-3.82L430.1,410Z" transform="translate(-32.11 -0.43)"/><path class="cls-1" d="M260.63,82.06c-106.5,0-192.83,86.33-192.83,192.83s86.33,192.83,192.83,192.83,192.83-86.33,192.83-192.83S367.13,82.06,260.63,82.06ZM277,158.35l11.28,15.46L277,189.27l-11.29-15.46Zm124.57,193A58.58,58.58,0,0,1,382,372.28a61.34,61.34,0,0,1-12.48,6.22,63.15,63.15,0,0,1-13.28,3.32,59.3,59.3,0,0,1-13.42.35A68.73,68.73,0,0,1,330.1,380a54.7,54.7,0,0,1-12.54-5.12,50.31,50.31,0,0,1-10.86-8.35,54.27,54.27,0,0,1-7.93-10.36,76.82,76.82,0,0,1-5.35-10.86,197,197,0,0,1-6.7-21.1c-1.83-6.82-3.56-13.41-5.83-19.58a57.59,57.59,0,0,0-9-16.7,36.33,36.33,0,0,0-6.74-6.42,35.84,35.84,0,0,0-3.66-2.3,41.26,41.26,0,0,0-4.73-2.28c-1.15-.47-2.34-.88-3.54-1.26a43.15,43.15,0,0,1,18.56,25.55,56.87,56.87,0,0,1,1.85,12.06c0,.16,0,.31,0,.47.05,1,.08,2,.08,3v.07c0,1.17,0,2.33-.1,3.48a63.67,63.67,0,0,1-6.12,24c-10.83,22.76-34.66,38.57-62.34,38.57h-.67l-2-.05-1.31-.06a64.37,64.37,0,0,1-8.88-1.06l-1.55-.3-1.61-.35c-11-2.65-21.93-8.27-32.22-17.68-22.81-20.85-18.1-55.49-7.77-75.46,3.32-6.4,17.41-5.43,16.44,1.72-.93,6.75-3.65,17.73-1.68,28.17,3.8,19.6,20.56,31.07,41.71,28.95,18.32-1.84,29.78-14.43,31.9-32.73,2-17.46-4.85-29.68-19.07-36.9a4.76,4.76,0,0,1-1.14-7.65,33.7,33.7,0,0,0,9.22-15.42,30.7,30.7,0,0,0,1-6.6,31.76,31.76,0,0,0-4-16.92c-4.43-9.66-12.37-15.33-21.58-17.89a46.44,46.44,0,0,0-13.76-2.79c-12.61-.61-24.12,3.79-32,11.2l-5.54-29.14s.39-.39,1.15-1a59.09,59.09,0,0,1,44.72-17c32.1,1.55,56.93,27.79,55.44,58.61A53.88,53.88,0,0,1,242,261.17a56.49,56.49,0,0,1-6.12,7.27l-.1.17a69.41,69.41,0,0,0,11-4.25c17.35-8.11,52.68-30.17,86.55-85h33s-34.55,61.7-114.57,89c-.49.17-1,.35-1.45.51.74.05,1.49.14,2.23.21a53,53,0,0,1,6.33.91,46.88,46.88,0,0,1,10.89,3.81,45.87,45.87,0,0,1,9.76,6.62c6,5.22,10.4,11.8,14,18.37s6.47,13.33,9.28,19.77a180.69,180.69,0,0,0,8.63,18.16c3.12,5.46,6.63,10.13,10.66,13.18a27.4,27.4,0,0,0,6.34,3.73,32.28,32.28,0,0,0,7.26,1.94,44.36,44.36,0,0,0,8.18.47,32.68,32.68,0,0,0,7.57-1,28.42,28.42,0,0,0,12.64-7,27,27,0,0,0,4.34-5.33,26.1,26.1,0,0,0,2.78-5.92,34.65,34.65,0,0,0,1.64-12.47A35.29,35.29,0,0,0,370,312.09a33.34,33.34,0,0,0-20.44-18.32A38.8,38.8,0,0,0,333,292.13a44.12,44.12,0,0,0-9.16,2,56,56,0,0,0-9.36,4.21l-.05,0a1.81,1.81,0,0,1-2.46-.7,1.86,1.86,0,0,1-.11-1.51A39.9,39.9,0,0,1,327,277.72a48.36,48.36,0,0,1,24.68-8,52.49,52.49,0,0,1,26.85,6,55.29,55.29,0,0,1,28.34,61.84A54.84,54.84,0,0,1,401.55,351.4Z" transform="translate(-32.11 -0.43)"/><path class="cls-5" d="M459.21,155.13a226.82,226.82,0,0,1-6.57,227.26" transform="translate(-32.11 -0.43)"/><path class="cls-5" d="M66.82,381.42a226.75,226.75,0,0,1-1-235" transform="translate(-32.11 -0.43)"/></svg>