<?xml version="1.0" encoding="utf-8"?>
<!-- Generator: Adobe Illustrator 23.0.4, SVG Export Plug-In . SVG Version: 6.00 Build 0)  -->
<svg version="1.1" id="Layer_1" xmlns="http://www.w3.org/2000/svg" xmlns:xlink="http://www.w3.org/1999/xlink" x="0px" y="0px"
	 viewBox="0 0 512 181.57" style="enable-background:new 0 0 512 181.57;" xml:space="preserve">
<style type="text/css">
	.st0{fill:#6E509D;}
	.st1{fill:#B097C7;}
	.st2{fill:#FFFFFF;}
</style>
<g>
	<g>
		<g>
			<path class="st0" d="M302.93,104.42c-0.73-0.9-1.78-1.52-3.21-1.84c-2.92-0.52-6.09-0.49-9.43,0.1
				c-3.38,0.59-6.66,1.89-9.76,3.84c-3.1,1.95-5.9,4.64-8.35,8c-0.55,0.75-1.07,1.55-1.55,2.39l-0.18-13.53l-0.17-0.38
				c-0.48-1.07-1.29-1.88-2.35-2.35c-0.98-0.44-2-0.57-3.03-0.41c-0.97,0.15-1.88,0.54-2.7,1.15c-0.99,0.75-1.59,1.76-1.73,3.15
				v0.46c0,0.25,0.02,0.97,0.05,2.18c0.03,1.17,0.07,2.96,0.1,5.39c0.03,2.45,0.08,5.84,0.15,10.19c0.06,3.52,0.14,7.83,0.24,12.84
				c-0.56-1.81-1.65-2.64-2.58-3c-1.92-0.75-3.38-0.33-4.27,0.16l-0.45,0.34c-0.55,0.55-0.76,1.25-1.03,3.38
				c-0.16,1.26-0.46,2.85-0.89,4.71c-0.43,1.82-1.05,3.77-1.87,5.81c-0.78,1.94-1.85,3.75-3.16,5.38c-1.26,1.56-2.87,2.84-4.78,3.81
				c-1.83,0.93-4.1,1.31-6.9,1.13c-1.48,0-2.61-0.54-3.58-1.71c-1.19-1.43-2.2-3.3-3.02-5.55c-0.85-2.37-1.52-4.99-1.98-7.81
				c-0.4-2.48-0.78-4.87-1.14-7.16c0.46-0.26,1.09-0.62,1.98-1.1l5.73-3.1c2.18-1.17,4.44-2.42,6.79-3.73
				c2.4-1.34,4.57-2.68,6.46-3.97c1.95-1.34,3.51-2.58,4.62-3.7c2.05-2.05,1.77-3.75,1.32-4.67c-0.37-1.92-1.21-3.72-2.51-5.36
				c-1.29-1.63-2.83-3.06-4.58-4.24c-1.71-1.15-3.51-2.09-5.37-2.79c-1.94-0.74-3.75-1.22-5.18-1.1c-4.24-0.39-7.74,0.31-10.42,2.08
				c-2.6,1.71-4.63,4.03-6.02,6.89c-1.33,2.73-2.24,5.85-2.72,9.28c-0.46,3.31-0.72,6.59-0.78,9.6c-0.02,0.25-0.07,0.38-0.05,0.38
				c-0.15,0.13-0.37,0.23-0.64,0.32l-1.76,0.52c-0.85,0.25-1.64,0.68-2.31,1.25c-0.5,0.41-0.85,0.81-1.15,1.19
				c-1.54-1.32-3.39-2.12-5.57-2.31c-2.18-0.19-4.64,0-7.3,0.55c-2.4,0.5-4.77,0.85-7.05,1.05c-2.09,0.19-4.11-0.01-5.95-0.59
				c-1.54-0.48-2.8-1.64-3.84-3.54c-0.44-1.68-0.29-3.61,0.44-5.74c0.79-2.31,2.15-4.42,4.06-6.3c1.92-1.89,4.38-3.39,7.34-4.45
				c2.88-1.04,6.2-1.19,10.04-0.41c2.19,0.26,3.58-0.52,4.36-1.22c1.06-0.96,1.68-2.28,1.79-3.8c0.1-1.25-0.07-2.24-0.53-3.03
				c-0.45-0.77-1.15-1.38-2.02-1.75c-0.69-0.29-1.45-0.47-2.27-0.52c-0.56-0.03-1.17-0.08-1.9-0.15c-3.7-0.22-7.38,0.3-10.96,1.55
				c-3.55,1.25-6.8,3.06-9.69,5.4c-2.9,2.35-5.33,5.24-7.2,8.58c-1.9,3.39-2.97,7.07-3.2,10.98c-0.16,4.26,0.83,7.54,2.93,9.72
				c2.01,2.1,4.66,3.44,7.87,3.99c2.98,0.52,6.37,0.52,10.06,0.01c3.36-0.46,6.77-1.08,10.13-1.86c1.08,0.45,1.79,0.99,2.06,1.56
				c0.33,0.7,0.34,1.46,0.02,2.38c-0.4,1.16-1.19,2.43-2.36,3.78c-1.24,1.43-2.74,2.81-4.45,4.11c-1.74,1.31-3.66,2.52-5.72,3.6
				c-2.05,1.07-4.07,1.89-6.02,2.43c-1.89,0.53-3.7,0.77-5.39,0.7c-1.47-0.05-2.66-0.45-3.64-1.23l-0.9-0.71l-1.07,0.42
				c-3.5,1.38-4.13,3.54-4.05,5.11c0.1,1.9,1.16,3.75,3.16,5.49l0.34,0.29l0.43,0.12c0.97,0.28,2.07,0.42,3.32,0.42
				c0.98,0,2.06-0.09,3.24-0.26c2.49-0.36,5.19-1.05,8.03-2.06c2.81-1,5.67-2.27,8.49-3.79c2.86-1.54,5.48-3.28,7.81-5.17
				c2.38-1.94,4.37-4.06,5.91-6.3c1.66-2.41,2.54-4.98,2.62-7.77c-0.04-0.94-0.12-1.8-0.24-2.61c1,0.34,2.05,0.59,3.19,0.69
				c0.39,0.03,0.76,0.05,1.11,0.03c0.32,1.87,0.68,3.91,1.08,6.13c0.57,3.23,1.5,6.35,2.77,9.28c1.31,3.03,3.11,5.65,5.37,7.79
				c2.4,2.28,5.62,3.49,9.56,3.59c0.86,0.13,1.71,0.2,2.56,0.2c2.86,0,5.6-0.76,8.19-2.28c3.21-1.88,6.01-4.41,8.34-7.5
				c2.28-3.04,4.1-6.42,5.4-10.03c0.84-2.33,1.37-4.51,1.64-6.58c0.13,6.3,0.29,13.83,0.48,22.59l0.12,0.64
				c0.44,1.22,1.29,2.18,2.45,2.79c0.95,0.5,1.93,0.75,2.91,0.75c0.09,0,0.18,0,0.28-0.01c1.07-0.05,2.06-0.37,2.95-0.93
				c1.11-0.71,1.76-1.82,1.9-3.32c0.07-2.3,0.05-5.02-0.05-8.09c-0.1-2.97-0.1-6.16,0-9.48c0.1-3.29,0.41-6.63,0.91-9.94
				c0.48-3.2,1.42-6.3,2.79-9.24c0.88-1.95,2.11-3.84,3.66-5.61c1.55-1.77,3.39-3.33,5.45-4.64c2.06-1.3,4.38-2.29,6.89-2.96
				c2.5-0.66,5.21-0.9,8.09-0.71l0.49,0.03l0.45-0.2c0.97-0.43,1.77-1.12,2.36-2.03c0.61-0.94,0.89-1.97,0.83-3.05
				C304.04,106.3,303.65,105.31,302.93,104.42z M224.97,124.54c0.02-1.03,0.09-2.06,0.21-3.06c0.25-1.99,0.7-3.81,1.33-5.41
				c0.59-1.5,1.35-2.73,2.26-3.68c0.79-0.82,1.66-1.28,2.67-1.43c0.62-0.09,1.24-0.13,1.84-0.13c1.44,0,2.83,0.25,4.22,0.76
				c1.43,0.52,2.9,1.64,4.39,3.33L224.97,124.54z"/>
			<g>
				<path class="st1" d="M-0.05,18.06v79.4h26c0.66,0,1.11-0.17,1.33-0.5c0.22-0.33,0.37-1.14,0.44-2.43
					c0.07-1.29,0.11-3.34,0.11-6.14H10.02V60.07h13.72c0.96,0,1.51-0.59,1.66-1.77c0.15-1.18,0.22-3.69,0.22-7.52h-15.6V25.14H26.5
					c0.66,0,1.12-0.2,1.38-0.61c0.26-0.4,0.4-1.23,0.44-2.49c0.04-1.25,0.06-3.24,0.06-5.97H1.83C0.95,16.07,0.32,16.73-0.05,18.06z
					"/>
				<path class="st1" d="M61.29,42.42c-2.25-0.92-5.33-1.38-9.24-1.38c-1.92,0-3.96,0.19-6.14,0.55c-2.18,0.37-4.24,0.83-6.19,1.38
					c-1.95,0.55-3.63,1.16-5.03,1.82v52.66c3.32,0,5.68-0.04,7.08-0.11c1.4-0.07,2.25-0.24,2.54-0.5c0.29-0.26,0.44-0.72,0.44-1.38
					V51.55c1.03-0.59,2.19-1.03,3.48-1.33c1.29-0.29,2.45-0.44,3.49-0.44c2.36,0,3.89,0.66,4.59,1.99c0.7,1.33,1.05,3.65,1.05,6.97
					v38.72c3.39,0,5.81-0.04,7.25-0.11c1.44-0.07,2.32-0.24,2.66-0.5c0.33-0.26,0.5-0.72,0.5-1.38V55.64c0-3.61-0.52-6.49-1.55-8.63
					C65.18,44.88,63.54,43.35,61.29,42.42z"/>
				<path class="st1" d="M112.79,41.93h-13.5c-0.67-0.22-1.37-0.42-2.1-0.55c-1.18-0.22-2.25-0.33-3.21-0.33
					c-3.69,0-6.91,0.66-9.68,1.99c-2.77,1.33-4.92,3.47-6.47,6.42c-1.55,2.95-2.32,6.93-2.32,11.95c0,3.54,0.52,6.75,1.55,9.62
					c1.01,2.83,2.75,5.07,5.19,6.76c-0.98,0.78-1.9,1.57-2.7,2.37c-1.37,1.36-2.4,2.69-3.1,3.98c-0.7,1.29-1.09,2.53-1.16,3.7
					c-0.07,1.48,0.5,2.73,1.72,3.76c1.17,0.99,2.78,1.77,4.83,2.35c-0.1,0.07-0.2,0.12-0.3,0.19c-2.32,1.62-4.22,3.52-5.7,5.7
					c-1.48,2.18-2.21,4.55-2.21,7.13c0,1.92,0.44,3.82,1.33,5.7c0.89,1.88,2.62,3.43,5.2,4.65c2.58,1.22,6.34,1.82,11.28,1.82
					c5.01,0,9.05-0.85,12.11-2.54c3.06-1.7,5.33-3.95,6.8-6.75c1.47-2.8,2.21-5.86,2.21-9.18c0-2.95-0.61-5.31-1.83-7.08
					c-1.22-1.77-2.9-3.11-5.03-4.04c-2.14-0.92-4.72-1.6-7.74-2.05c-3.39-0.51-6.23-0.94-8.52-1.27c-2.29-0.33-3.43-0.98-3.43-1.93
					c0-0.74,0.31-1.55,0.94-2.43c0.46-0.65,0.95-1.24,1.47-1.8c1.34,0.22,2.76,0.36,4.34,0.36c4.28,0,7.72-0.75,10.34-2.27
					c2.62-1.51,4.54-3.69,5.75-6.53c1.22-2.84,1.83-6.21,1.83-10.12c0-3.98-0.76-7.17-2.27-9.57c-0.41-0.64-0.86-1.23-1.34-1.78
					c1.3,0.31,2.45,0.5,3.38,0.5c0.96,0,1.75-0.31,2.38-0.94c0.63-0.63,0.94-1.6,0.94-2.93c0-1.11-0.11-2.06-0.33-2.88
					C113.23,43.11,113.01,42.44,112.79,41.93z M101.34,98.34c0.63,0.89,0.94,2.1,0.94,3.65c0,1.77-0.76,3.54-2.27,5.31
					c-1.51,1.77-4.04,2.66-7.58,2.66c-2.21,0-3.93-0.22-5.14-0.66c-1.22-0.44-2.05-1.07-2.49-1.88c-0.44-0.81-0.66-1.77-0.66-2.88
					c0-1.55,0.4-3.06,1.22-4.54c0.81-1.48,1.86-2.78,3.15-3.93c0.36-0.32,0.73-0.57,1.1-0.85c0.06,0,0.12,0.01,0.18,0.02
					c3.47,0.22,6.1,0.57,7.91,1.05C99.49,96.78,100.71,97.46,101.34,98.34z M99.73,66.93c-0.52,2.07-1.31,3.56-2.38,4.48
					c-1.07,0.92-2.42,1.38-4.04,1.38c-1.99,0-3.48-0.42-4.48-1.27c-1-0.85-1.68-2.16-2.05-3.93c-0.37-1.77-0.55-3.94-0.55-6.53
					c0-3.17,0.31-5.68,0.94-7.52c0.63-1.84,1.51-3.17,2.66-3.98c1.14-0.81,2.41-1.22,3.82-1.22c2.28,0,4,0.81,5.14,2.43
					c1.14,1.62,1.72,4.35,1.72,8.18C100.51,62.21,100.25,64.86,99.73,66.93z"/>
				<path class="st1" d="M140.5,42.26c-1.07-0.81-3.08-1.22-6.03-1.22c-2.88,0-5.61,0.46-8.19,1.38c-2.58,0.92-4.91,2.12-6.97,3.59
					v51.44c3.39,0,5.81-0.04,7.25-0.11c1.44-0.07,2.3-0.24,2.6-0.5c0.29-0.26,0.44-0.72,0.44-1.38l0.11-42.48
					c0.96-0.74,2.01-1.29,3.15-1.66c1.14-0.37,2.23-0.55,3.26-0.55c0.89,0,1.73,0.09,2.54,0.28c0.81,0.19,1.59,0.46,2.32,0.83
					c0.44-1.11,0.74-2.21,0.89-3.32c0.15-1.11,0.22-1.95,0.22-2.55C142.1,44.32,141.57,43.07,140.5,42.26z"/>
				<path class="st1" d="M164.45,41.04c-4.28,0-7.93,0.37-10.95,1.11c-3.02,0.74-4.98,1.4-5.86,1.99c-0.44,0.3-0.77,0.77-1,1.44
					c-0.22,0.66-0.33,1.29-0.33,1.88c0,0.74,0.09,1.62,0.28,2.66c0.18,1.03,0.57,2.07,1.16,3.1c1.69-0.66,3.83-1.23,6.42-1.71
					c2.58-0.48,5.16-0.72,7.74-0.72c1.4,0,2.54,0.18,3.43,0.55c0.89,0.37,1.55,0.96,1.99,1.77c0.44,0.81,0.66,1.96,0.66,3.43
					c0,1.03,0,2.21,0,3.54c0,1.33,0,2.95,0,4.87c-1.03-0.59-2.31-1-3.82-1.22c-1.51-0.22-2.82-0.33-3.93-0.33
					c-1.77,0-3.49,0.24-5.14,0.72c-1.66,0.48-3.17,1.36-4.54,2.65c-1.37,1.29-2.43,3.14-3.21,5.53c-0.77,2.4-1.16,5.51-1.16,9.35
					c0,3.76,0.42,6.79,1.27,9.07c0.85,2.29,2.03,4,3.54,5.14c1.51,1.14,3.21,1.88,5.09,2.21c1.88,0.33,3.85,0.5,5.92,0.5
					c3.47,0,6.53-0.37,9.18-1.11c2.66-0.74,4.79-1.58,6.42-2.54c0.15-2.8,0.26-6.08,0.33-9.84c0.07-3.76,0.13-7.8,0.17-12.11
					c0.04-4.31,0.06-8.57,0.06-12.78v-5.64c0-5.02-1.07-8.52-3.21-10.51C172.82,42.04,169.32,41.04,164.45,41.04z M167.99,77.93
					c0,2.18-0.02,4.22-0.06,6.14c-0.04,1.92-0.13,3.43-0.28,4.53c-0.37,0.37-1.01,0.72-1.94,1.05c-0.92,0.33-1.9,0.5-2.93,0.5
					c-0.89,0-1.72-0.13-2.49-0.39c-0.77-0.26-1.42-0.72-1.94-1.38c-0.52-0.66-0.9-1.57-1.16-2.71c-0.26-1.14-0.39-2.6-0.39-4.37
					c0-2.21,0.17-3.98,0.5-5.31c0.33-1.33,0.81-2.38,1.44-3.15c0.63-0.77,1.36-1.29,2.21-1.55c0.85-0.26,1.71-0.39,2.6-0.39
					c0.66,0,1.42,0.08,2.27,0.22c0.85,0.15,1.57,0.41,2.16,0.77C167.99,73.75,167.99,75.76,167.99,77.93z"/>
				<path class="st1" d="M213.07,42.42c-2.25-0.92-5.33-1.38-9.24-1.38c-1.92,0-3.96,0.19-6.14,0.55c-2.18,0.37-4.24,0.83-6.19,1.38
					c-1.95,0.55-3.63,1.16-5.03,1.82v52.66c3.32,0,5.68-0.04,7.08-0.11c1.4-0.07,2.25-0.24,2.54-0.5c0.29-0.26,0.44-0.72,0.44-1.38
					V51.55c1.03-0.59,2.19-1.03,3.48-1.33c1.29-0.29,2.45-0.44,3.49-0.44c2.36,0,3.89,0.66,4.59,1.99c0.7,1.33,1.05,3.65,1.05,6.97
					v38.72c3.39,0,5.81-0.04,7.25-0.11c1.44-0.07,2.32-0.24,2.66-0.5c0.33-0.26,0.5-0.72,0.5-1.38V55.64c0-3.61-0.52-6.49-1.55-8.63
					C216.96,44.88,215.32,43.35,213.07,42.42z"/>
				<path class="st1" d="M252.06,17.42c-0.52,0.63-0.78,1.71-0.78,3.26v22.46c-0.81-0.66-1.84-1.18-3.1-1.55
					c-1.25-0.37-2.69-0.55-4.31-0.55c-3.02,0-5.79,1.03-8.3,3.1c-2.51,2.07-4.48,5.37-5.92,9.9c-1.44,4.54-2.16,10.53-2.16,17.98
					c0,5.9,0.48,10.62,1.44,14.16c0.96,3.54,2.28,6.21,3.98,8.02c1.69,1.81,3.61,2.99,5.75,3.54c2.14,0.55,4.39,0.83,6.75,0.83
					c3.54,0,6.64-0.35,9.29-1.05c2.66-0.7,4.9-1.46,6.75-2.27v-79.1c-2.73,0-4.85,0.05-6.36,0.17
					C253.59,16.43,252.58,16.8,252.06,17.42z M251.29,88.06c-0.74,0.52-1.59,0.9-2.54,1.16c-0.96,0.26-1.95,0.39-2.99,0.39
					c-1.11,0-2.1-0.26-2.99-0.77c-0.89-0.52-1.62-1.46-2.21-2.82c-0.59-1.36-1.03-3.26-1.33-5.7c-0.3-2.43-0.44-5.6-0.44-9.51
					c0-4.57,0.24-8.24,0.72-11.01c0.48-2.77,1.12-4.88,1.94-6.36c0.81-1.47,1.71-2.45,2.71-2.93c1-0.48,2.01-0.72,3.04-0.72
					c0.81,0,1.57,0.07,2.27,0.22c0.7,0.15,1.31,0.44,1.83,0.88V88.06z"/>
				<path class="st1" d="M292.82,74.84c2.99-0.26,5.7-0.64,8.13-1.16c0.52-1.99,0.89-4.31,1.11-6.97c0.22-2.66,0.33-5.27,0.33-7.85
					c0-6.05-1.22-10.53-3.65-13.44c-2.43-2.91-5.94-4.37-10.51-4.37c-2.43,0-4.83,0.39-7.19,1.16c-2.36,0.78-4.46,2.23-6.31,4.37
					c-1.84,2.14-3.32,5.29-4.43,9.46c-1.11,4.17-1.66,9.68-1.66,16.54c0,5.38,0.44,9.77,1.33,13.17s2.1,6.01,3.65,7.85
					c1.55,1.85,3.39,3.14,5.53,3.87c2.14,0.74,4.5,1.11,7.08,1.11c2.8,0,5.37-0.26,7.69-0.77s4.19-1.25,5.59-2.21
					c1.4-0.96,2.1-2.06,2.1-3.32c0-1.03-0.06-2.19-0.17-3.49c-0.11-1.29-0.35-2.41-0.72-3.37c-1.84,1.03-3.82,1.84-5.92,2.43
					c-2.1,0.59-4.22,0.89-6.36,0.89c-1.7,0-3.15-0.28-4.37-0.83c-1.22-0.55-2.18-1.46-2.88-2.71c-0.7-1.25-1.22-2.95-1.55-5.09
					c-0.21-1.34-0.34-2.92-0.42-4.67c1.77-0.02,3.43-0.05,4.96-0.09C286.96,75.26,289.84,75.1,292.82,74.84z M279.26,67.35
					c0.09-2.21,0.23-4.2,0.46-5.9c0.37-2.84,0.9-5.11,1.6-6.8c0.7-1.69,1.53-2.91,2.49-3.65c0.96-0.74,2.03-1.11,3.21-1.11
					c2.06,0,3.48,0.7,4.26,2.1c0.78,1.4,1.2,4.02,1.27,7.85c0,1.03-0.04,2.12-0.11,3.26c-0.07,1.14-0.22,2.2-0.44,3.15
					c-1.25,0.37-2.82,0.64-4.7,0.83c-1.88,0.19-3.78,0.28-5.7,0.28C280.87,67.37,280.07,67.36,279.26,67.35z"/>
			</g>
			<g>
				<path class="st0" d="M189.15,20.57c-0.11-0.01-0.22-0.01-0.33-0.01c-0.3,0-0.46,0.08-0.49,0.24l-2.43,9.51
					c0.15,0.02,0.3,0.03,0.45,0.04c0.15,0.01,0.27,0.01,0.34,0.01c0.26,0,0.42-0.02,0.48-0.06c0.06-0.04,0.1-0.1,0.12-0.19
					l0.49-2.16H190l0.54,2.38c0.17,0.01,0.31,0.02,0.44,0.02c0.13,0.01,0.23,0.01,0.31,0.01c0.25,0,0.41-0.02,0.48-0.06
					c0.07-0.04,0.1-0.1,0.08-0.19l-2.43-9.5C189.35,20.59,189.26,20.58,189.15,20.57z M188.05,26.8l0.4-1.75
					c0.06-0.3,0.13-0.6,0.18-0.92c0.05-0.31,0.11-0.63,0.16-0.93c0.05-0.31,0.08-0.58,0.1-0.82c0.03,0.24,0.06,0.51,0.1,0.82
					c0.04,0.31,0.1,0.62,0.16,0.93c0.06,0.32,0.13,0.62,0.18,0.92l0.4,1.75H188.05z"/>
				<path class="st0" d="M196.25,20.67c-0.04,0.03-0.06,0.09-0.06,0.17v3.25c0,0.13,0,0.29,0.01,0.49c0,0.19,0.01,0.41,0.02,0.64
					c0,0.23,0.01,0.47,0.02,0.72c0.01,0.25,0.02,0.5,0.03,0.74c0.01,0.25,0.02,0.48,0.03,0.7c0.02,0.22,0.03,0.41,0.06,0.56l0,0.06
					c-0.02-0.06-0.04-0.14-0.06-0.2c-0.08-0.27-0.16-0.56-0.26-0.88s-0.19-0.64-0.29-0.97c-0.1-0.33-0.2-0.64-0.3-0.92
					c-0.1-0.29-0.18-0.52-0.26-0.71l-1.53-3.73h-0.97c-0.17,0-0.25,0.08-0.25,0.25v9.48c0.43,0,0.72,0,0.9-0.01
					c0.17-0.01,0.27-0.03,0.31-0.06c0.04-0.03,0.05-0.09,0.05-0.17v-3.35c0-0.12,0-0.28-0.01-0.49c0-0.2-0.01-0.43-0.01-0.68
					c0-0.25-0.01-0.51-0.02-0.78c-0.01-0.27-0.02-0.53-0.03-0.79c-0.01-0.26-0.03-0.5-0.04-0.72c-0.01-0.2-0.03-0.36-0.06-0.5
					c0.02,0.08,0.05,0.18,0.08,0.26c0.08,0.28,0.17,0.58,0.27,0.92c0.09,0.33,0.19,0.67,0.3,1c0.11,0.33,0.21,0.64,0.3,0.92
					c0.09,0.28,0.17,0.5,0.24,0.67l1.54,3.8h0.97c0.16,0,0.24-0.08,0.24-0.25v-9.48c-0.41,0-0.7,0-0.88,0.01
					C196.4,20.62,196.29,20.64,196.25,20.67z"/>
				<path class="st0" d="M200.83,24.79v0.82h0.89v3.34c-0.02,0.03-0.06,0.06-0.11,0.1c-0.05,0.04-0.13,0.08-0.22,0.11
					s-0.21,0.05-0.36,0.05c-0.2,0-0.39-0.04-0.56-0.13c-0.17-0.08-0.3-0.25-0.41-0.49c-0.11-0.25-0.19-0.61-0.24-1.09
					c-0.05-0.48-0.08-1.11-0.08-1.88c0-0.74,0.03-1.37,0.1-1.87c0.06-0.5,0.17-0.91,0.32-1.2c0.15-0.3,0.35-0.51,0.59-0.65
					c0.24-0.13,0.54-0.2,0.9-0.2c0.21,0,0.42,0.03,0.6,0.08c0.19,0.06,0.35,0.13,0.47,0.22c0.04-0.11,0.07-0.24,0.11-0.38
					c0.04-0.14,0.06-0.29,0.06-0.42c0-0.2-0.13-0.38-0.4-0.53c-0.26-0.15-0.63-0.22-1.11-0.22c-0.46,0-0.88,0.07-1.26,0.21
					c-0.38,0.14-0.69,0.4-0.94,0.77c-0.26,0.38-0.45,0.91-0.59,1.6c-0.14,0.69-0.21,1.59-0.21,2.69c0,0.96,0.04,1.74,0.13,2.36
					c0.09,0.62,0.24,1.1,0.45,1.45c0.21,0.34,0.48,0.58,0.81,0.72c0.33,0.14,0.74,0.21,1.22,0.21c0.32,0,0.59-0.03,0.83-0.08
					c0.24-0.06,0.45-0.13,0.63-0.22c0.19-0.09,0.33-0.17,0.45-0.26l0.01-5.35h-1.81C200.92,24.56,200.83,24.64,200.83,24.79z"/>
				<path class="st0" d="M203.84,20.84v9.48h3.27c0.08,0,0.14-0.02,0.17-0.06c0.03-0.04,0.05-0.14,0.06-0.31
					c0.01-0.16,0.02-0.42,0.02-0.77h-2.24v-3.56h1.73c0.12,0,0.19-0.07,0.21-0.22c0.02-0.15,0.03-0.46,0.03-0.95h-1.96v-2.73h2.07
					c0.08,0,0.14-0.02,0.18-0.08c0.03-0.05,0.05-0.15,0.06-0.31c0-0.16,0.01-0.41,0.01-0.75h-3.34
					C203.97,20.59,203.89,20.68,203.84,20.84z"/>
				<path class="st0" d="M209.46,20.59c-0.42,0-0.72,0-0.9,0.01c-0.18,0.01-0.29,0.04-0.33,0.08c-0.04,0.05-0.06,0.13-0.06,0.25
					v9.39h3.28c0.08,0,0.13-0.02,0.18-0.05c0.04-0.03,0.06-0.1,0.06-0.2v-0.95h-2.24V20.59z"/>
				<path class="st0" d="M216.47,21.48c-0.19-0.37-0.45-0.63-0.76-0.79c-0.32-0.16-0.7-0.24-1.15-0.24c-0.59,0-1.09,0.16-1.48,0.47
					c-0.39,0.31-0.69,0.83-0.88,1.54c-0.19,0.72-0.29,1.7-0.29,2.94c0,1.01,0.05,1.84,0.14,2.5c0.09,0.65,0.24,1.17,0.44,1.55
					c0.2,0.38,0.46,0.65,0.77,0.79c0.32,0.15,0.7,0.22,1.15,0.22c0.61,0,1.11-0.16,1.49-0.47c0.38-0.31,0.67-0.84,0.86-1.59
					c0.19-0.74,0.28-1.76,0.28-3.05c0-0.95-0.05-1.75-0.13-2.38C216.81,22.36,216.66,21.85,216.47,21.48z M215.53,27.57
					c-0.07,0.56-0.19,0.96-0.36,1.21c-0.17,0.25-0.4,0.38-0.71,0.38c-0.29,0-0.51-0.12-0.68-0.35c-0.17-0.24-0.28-0.61-0.35-1.11
					c-0.06-0.51-0.1-1.17-0.1-1.98c0-0.97,0.04-1.75,0.12-2.32c0.08-0.58,0.21-0.99,0.38-1.24c0.18-0.26,0.41-0.38,0.7-0.38
					c0.3,0,0.54,0.12,0.69,0.35c0.16,0.24,0.27,0.62,0.33,1.15c0.06,0.53,0.09,1.24,0.09,2.13
					C215.64,26.29,215.6,27.02,215.53,27.57z"/>
				<path class="st0" d="M217.03,20.84v0.94h1.82v8.54c0.42,0,0.71,0,0.89-0.01c0.18-0.01,0.28-0.03,0.32-0.06
					c0.04-0.03,0.06-0.09,0.06-0.16v-8.3h1.64c0.09,0,0.16-0.02,0.19-0.06s0.05-0.1,0.05-0.19v-0.95h-4.73
					C217.11,20.59,217.03,20.68,217.03,20.84z"/>
				<path class="st0" d="M222.67,20.84v9.48h3.27c0.08,0,0.14-0.02,0.17-0.06c0.03-0.04,0.05-0.14,0.06-0.31
					c0.01-0.16,0.02-0.42,0.02-0.77h-2.24v-3.56h1.73c0.12,0,0.19-0.07,0.21-0.22c0.02-0.15,0.03-0.46,0.03-0.95h-1.96v-2.73h2.07
					c0.08,0,0.14-0.02,0.18-0.08c0.03-0.05,0.05-0.15,0.06-0.31c0-0.16,0.01-0.41,0.01-0.75h-3.34
					C222.8,20.59,222.72,20.68,222.67,20.84z"/>
				<path class="st0" d="M230.48,26.66c-0.12-0.21-0.3-0.41-0.46-0.61c0.14-0.08,0.29-0.14,0.42-0.25c0.24-0.23,0.43-0.54,0.58-0.94
					c0.14-0.39,0.21-0.89,0.21-1.48c0-0.68-0.1-1.22-0.29-1.63c-0.19-0.41-0.48-0.7-0.87-0.88c-0.39-0.18-0.88-0.27-1.46-0.27h-0.57
					h-0.7h-0.08c-0.13,0-0.21,0.08-0.25,0.25v9.48c0.42,0,0.71,0,0.89-0.01c0.18-0.01,0.28-0.03,0.32-0.06
					c0.04-0.03,0.05-0.09,0.05-0.17v-3.63h0.36c0.07,0,0.13-0.03,0.2-0.03c0.15,0.2,0.31,0.4,0.42,0.62
					c0.16,0.31,0.31,0.73,0.45,1.27c0.13,0.54,0.22,1.21,0.26,2.02c0.15,0.01,0.29,0.02,0.41,0.02c0.13,0.01,0.24,0.01,0.34,0.01
					c0.31,0,0.49-0.02,0.56-0.06c0.06-0.04,0.09-0.12,0.08-0.24c-0.04-0.79-0.14-1.46-0.31-2.02
					C230.87,27.47,230.68,27.01,230.48,26.66z M228.28,25.27v-3.56h0.59c0.24,0,0.43,0.06,0.56,0.18c0.13,0.12,0.23,0.3,0.29,0.54
					c0.06,0.24,0.09,0.54,0.09,0.89c0,0.48-0.04,0.87-0.13,1.15c-0.08,0.29-0.2,0.49-0.35,0.61c-0.15,0.12-0.33,0.18-0.56,0.18
					H228.28z"/>
				<path class="st0" d="M235.22,20.86c-0.39-0.18-0.88-0.27-1.46-0.27h-0.57h-0.7h-0.08c-0.1,0-0.17,0.02-0.2,0.06
					c-0.03,0.04-0.05,0.1-0.05,0.2v9.48c0.43,0,0.72,0,0.9-0.01c0.17-0.01,0.27-0.03,0.31-0.06c0.04-0.03,0.05-0.09,0.05-0.17v-3.63
					h0.36c0.34,0,0.67-0.05,0.97-0.15c0.31-0.1,0.58-0.27,0.82-0.5c0.24-0.23,0.43-0.54,0.58-0.94c0.14-0.39,0.21-0.89,0.21-1.48
					c0-0.68-0.1-1.22-0.29-1.63C235.9,21.34,235.61,21.05,235.22,20.86z M234.83,24.45c-0.08,0.3-0.2,0.51-0.35,0.63
					c-0.15,0.12-0.33,0.19-0.56,0.19h-0.5v-3.56h0.59c0.24,0,0.43,0.06,0.56,0.18c0.13,0.12,0.23,0.29,0.29,0.52
					c0.06,0.23,0.09,0.5,0.09,0.83C234.95,23.75,234.91,24.15,234.83,24.45z"/>
				<path class="st0" d="M237.18,20.75c-0.04,0.08-0.06,0.22-0.06,0.41v9.17c0.43,0,0.73,0,0.91-0.01c0.18-0.01,0.29-0.03,0.33-0.06
					c0.04-0.03,0.05-0.09,0.05-0.17v-9.48c-0.43,0-0.73,0.01-0.91,0.02C237.32,20.63,237.22,20.67,237.18,20.75z"/>
				<path class="st0" d="M242.53,20.61c-0.07-0.02-0.16-0.03-0.27-0.04c-0.11-0.01-0.22-0.01-0.33-0.01c-0.3,0-0.46,0.08-0.49,0.24
					l-2.43,9.51c0.15,0.02,0.3,0.03,0.45,0.04c0.15,0.01,0.27,0.01,0.34,0.01c0.26,0,0.42-0.02,0.48-0.06
					c0.06-0.04,0.1-0.1,0.12-0.19l0.49-2.16h2.22l0.54,2.38c0.17,0.01,0.31,0.02,0.44,0.02c0.13,0.01,0.23,0.01,0.31,0.01
					c0.25,0,0.41-0.02,0.48-0.06c0.07-0.04,0.1-0.1,0.08-0.19L242.53,20.61z M241.16,26.8l0.4-1.75c0.06-0.3,0.13-0.6,0.18-0.92
					c0.05-0.31,0.11-0.63,0.16-0.93c0.05-0.31,0.08-0.58,0.1-0.82c0.03,0.24,0.06,0.51,0.1,0.82c0.04,0.31,0.1,0.62,0.16,0.93
					c0.06,0.32,0.13,0.62,0.18,0.92l0.4,1.75H241.16z"/>
				<path class="st0" d="M38.29,21.74c-0.39-0.18-0.88-0.27-1.46-0.27h-0.57h-0.7h-0.08c-0.1,0-0.17,0.02-0.2,0.06
					c-0.03,0.04-0.05,0.1-0.05,0.2v9.48c0.43,0,0.72,0,0.9-0.01c0.17-0.01,0.27-0.03,0.31-0.06c0.04-0.03,0.05-0.09,0.05-0.17v-3.63
					h0.36c0.34,0,0.67-0.05,0.97-0.15c0.31-0.1,0.58-0.27,0.82-0.5c0.24-0.23,0.43-0.54,0.58-0.94c0.14-0.39,0.21-0.89,0.21-1.48
					c0-0.68-0.1-1.22-0.29-1.63S38.68,21.92,38.29,21.74z M37.9,25.32c-0.08,0.3-0.2,0.51-0.35,0.63c-0.15,0.12-0.33,0.19-0.56,0.19
					h-0.5v-3.56h0.59c0.24,0,0.43,0.06,0.56,0.18c0.13,0.12,0.23,0.29,0.29,0.52c0.06,0.23,0.09,0.5,0.09,0.83
					C38.03,24.62,37.98,25.02,37.9,25.32z"/>
				<path class="st0" d="M43.38,26.38l-1.45-1.71c-0.19-0.25-0.34-0.47-0.45-0.67c-0.1-0.2-0.15-0.42-0.15-0.66
					c0-0.28,0.12-0.49,0.35-0.65c0.23-0.15,0.54-0.23,0.93-0.23c0.31,0,0.58,0.04,0.82,0.11c0.24,0.07,0.4,0.14,0.49,0.21
					c0.11-0.12,0.19-0.25,0.24-0.38c0.05-0.13,0.07-0.25,0.07-0.35c0-0.21-0.14-0.39-0.42-0.52c-0.28-0.13-0.75-0.2-1.42-0.2
					c-0.8,0-1.4,0.19-1.81,0.57c-0.41,0.38-0.62,0.87-0.62,1.47c0,0.31,0.06,0.63,0.19,0.95c0.13,0.31,0.35,0.67,0.66,1.07
					l1.35,1.64c0.29,0.34,0.48,0.64,0.59,0.89c0.11,0.25,0.16,0.52,0.16,0.82c0,0.39-0.1,0.7-0.28,0.94
					c-0.19,0.24-0.51,0.35-0.97,0.35c-0.3,0-0.58-0.05-0.81-0.14c-0.24-0.09-0.43-0.2-0.58-0.33c-0.1,0.14-0.18,0.29-0.23,0.47
					c-0.05,0.17-0.08,0.32-0.08,0.45c0,0.2,0.15,0.4,0.44,0.58c0.3,0.19,0.76,0.28,1.38,0.28c0.65,0,1.15-0.12,1.51-0.37
					S43.9,30.4,44.05,30c0.15-0.4,0.23-0.84,0.23-1.31c0-0.42-0.06-0.8-0.19-1.15C43.97,27.19,43.73,26.8,43.38,26.38z"/>
				<path class="st0" d="M45.16,21.63c-0.04,0.08-0.06,0.22-0.06,0.41v9.17c0.43,0,0.73,0,0.91-0.01c0.18-0.01,0.29-0.03,0.33-0.06
					c0.04-0.03,0.05-0.09,0.05-0.17v-9.48c-0.43,0-0.73,0.01-0.91,0.02C45.31,21.5,45.2,21.55,45.16,21.63z"/>
				<path class="st0" d="M51.89,22.36c-0.19-0.37-0.45-0.63-0.76-0.79c-0.32-0.16-0.7-0.24-1.15-0.24c-0.59,0-1.09,0.16-1.48,0.47
					c-0.39,0.31-0.69,0.83-0.88,1.54c-0.19,0.72-0.29,1.7-0.29,2.94c0,1.01,0.05,1.84,0.14,2.5c0.09,0.65,0.24,1.17,0.44,1.55
					c0.2,0.38,0.46,0.65,0.77,0.79s0.7,0.22,1.15,0.22c0.61,0,1.11-0.16,1.49-0.47c0.38-0.31,0.67-0.84,0.86-1.59
					c0.19-0.74,0.28-1.76,0.28-3.05c0-0.95-0.05-1.75-0.13-2.38C52.23,23.23,52.09,22.73,51.89,22.36z M50.95,28.45
					c-0.07,0.56-0.19,0.96-0.36,1.21c-0.17,0.25-0.4,0.38-0.71,0.38c-0.29,0-0.51-0.12-0.68-0.35c-0.17-0.24-0.28-0.61-0.35-1.11
					c-0.06-0.51-0.1-1.17-0.1-1.98c0-0.97,0.04-1.75,0.12-2.32s0.21-0.99,0.38-1.24c0.18-0.26,0.41-0.38,0.7-0.38
					c0.3,0,0.54,0.12,0.69,0.35c0.16,0.24,0.27,0.62,0.33,1.15c0.06,0.53,0.09,1.24,0.09,2.13C51.06,27.16,51.02,27.89,50.95,28.45z
					"/>
				<path class="st0" d="M54.86,23.71c0.11-0.3,0.23-0.54,0.38-0.7c0.15-0.17,0.3-0.28,0.46-0.34c0.16-0.06,0.33-0.09,0.5-0.09
					c0.13,0,0.25,0.02,0.36,0.06c0.11,0.04,0.21,0.08,0.29,0.12c0.08,0.04,0.15,0.09,0.19,0.13c0.05-0.09,0.09-0.21,0.13-0.35
					c0.04-0.14,0.06-0.28,0.06-0.43c0-0.12-0.03-0.24-0.1-0.36c-0.07-0.12-0.2-0.22-0.38-0.3c-0.19-0.08-0.46-0.12-0.83-0.12
					c-0.24,0-0.49,0.04-0.75,0.11c-0.26,0.07-0.51,0.22-0.74,0.43c-0.24,0.21-0.45,0.52-0.64,0.92c-0.19,0.4-0.34,0.92-0.45,1.56
					c-0.11,0.64-0.16,1.43-0.16,2.36c0,0.8,0.03,1.47,0.1,2.02c0.07,0.55,0.17,1,0.3,1.34c0.13,0.34,0.29,0.6,0.48,0.79
					c0.19,0.18,0.41,0.31,0.65,0.38c0.24,0.07,0.5,0.1,0.78,0.1c0.34,0,0.64-0.04,0.9-0.13c0.26-0.09,0.46-0.21,0.6-0.36
					c0.14-0.15,0.21-0.33,0.21-0.52c0-0.14-0.02-0.27-0.06-0.4s-0.08-0.25-0.13-0.35c-0.13,0.09-0.3,0.17-0.51,0.24
					c-0.21,0.07-0.45,0.1-0.69,0.1c-0.21,0-0.39-0.05-0.55-0.14c-0.16-0.09-0.3-0.26-0.4-0.49c-0.11-0.24-0.19-0.57-0.25-1
					s-0.09-0.98-0.09-1.66c0-0.69,0.03-1.27,0.09-1.75C54.67,24.4,54.76,24.01,54.86,23.71z"/>
				<path class="st0" d="M62.29,22.36c-0.19-0.37-0.45-0.63-0.76-0.79c-0.32-0.16-0.7-0.24-1.15-0.24c-0.59,0-1.09,0.16-1.48,0.47
					c-0.39,0.31-0.69,0.83-0.88,1.54c-0.19,0.72-0.29,1.7-0.29,2.94c0,1.01,0.05,1.84,0.14,2.5c0.09,0.65,0.24,1.17,0.44,1.55
					c0.2,0.38,0.46,0.65,0.77,0.79c0.32,0.15,0.7,0.22,1.15,0.22c0.61,0,1.11-0.16,1.49-0.47c0.38-0.31,0.67-0.84,0.86-1.59
					c0.19-0.74,0.28-1.76,0.28-3.05c0-0.95-0.05-1.75-0.13-2.38C62.63,23.23,62.49,22.73,62.29,22.36z M61.35,28.45
					c-0.07,0.56-0.19,0.96-0.36,1.21c-0.17,0.25-0.4,0.38-0.71,0.38c-0.29,0-0.51-0.12-0.68-0.35c-0.17-0.24-0.28-0.61-0.35-1.11
					c-0.06-0.51-0.1-1.17-0.1-1.98c0-0.97,0.04-1.75,0.12-2.32s0.21-0.99,0.38-1.24c0.18-0.26,0.41-0.38,0.7-0.38
					c0.3,0,0.54,0.12,0.69,0.35s0.27,0.62,0.33,1.15c0.06,0.53,0.09,1.24,0.09,2.13C61.46,27.16,61.42,27.89,61.35,28.45z"/>
				<path class="st0" d="M62.85,21.72v0.94h1.82v8.54c0.42,0,0.71,0,0.89-0.01c0.18-0.01,0.28-0.03,0.32-0.06
					c0.04-0.03,0.06-0.09,0.06-0.16v-8.3h1.64c0.09,0,0.16-0.02,0.19-0.06c0.03-0.04,0.05-0.1,0.05-0.19v-0.95h-4.73
					C62.93,21.47,62.85,21.55,62.85,21.72z"/>
				<path class="st0" d="M68.5,21.72v9.48h3.27c0.08,0,0.14-0.02,0.17-0.06c0.03-0.04,0.05-0.14,0.06-0.31
					C72,30.67,72,30.41,72,30.06h-2.24V26.5h1.73c0.12,0,0.19-0.07,0.21-0.22c0.02-0.15,0.03-0.46,0.03-0.95h-1.96v-2.73h2.07
					c0.08,0,0.14-0.02,0.18-0.08c0.03-0.05,0.05-0.15,0.06-0.31c0-0.16,0.01-0.41,0.01-0.75h-3.34
					C68.62,21.47,68.54,21.55,68.5,21.72z"/>
				<path class="st0" d="M76.3,27.53c-0.12-0.21-0.3-0.41-0.46-0.61c0.14-0.08,0.29-0.14,0.42-0.25c0.24-0.23,0.43-0.54,0.58-0.94
					c0.14-0.39,0.21-0.89,0.21-1.48c0-0.68-0.1-1.22-0.29-1.63c-0.19-0.41-0.48-0.7-0.87-0.88c-0.39-0.18-0.88-0.27-1.46-0.27h-0.57
					h-0.7h-0.08c-0.13,0-0.21,0.08-0.25,0.25v9.48c0.42,0,0.71,0,0.89-0.01c0.18-0.01,0.28-0.03,0.32-0.06
					c0.04-0.03,0.05-0.09,0.05-0.17v-3.63h0.36c0.07,0,0.13-0.03,0.2-0.03c0.15,0.2,0.31,0.4,0.42,0.62
					c0.16,0.31,0.31,0.73,0.45,1.27c0.13,0.54,0.22,1.21,0.26,2.02c0.15,0.01,0.29,0.02,0.41,0.02c0.13,0.01,0.24,0.01,0.34,0.01
					c0.31,0,0.49-0.02,0.56-0.06c0.06-0.04,0.09-0.12,0.08-0.24c-0.04-0.79-0.14-1.46-0.31-2.02C76.69,28.34,76.5,27.88,76.3,27.53z
					 M74.1,26.14v-3.56h0.59c0.24,0,0.43,0.06,0.56,0.18c0.13,0.12,0.23,0.3,0.29,0.54c0.06,0.24,0.09,0.54,0.09,0.89
					c0,0.48-0.04,0.87-0.13,1.15c-0.08,0.29-0.2,0.49-0.35,0.61c-0.15,0.12-0.33,0.18-0.56,0.18H74.1z"/>
				<path class="st0" d="M80.74,21.44c-0.11-0.01-0.22-0.01-0.33-0.01c-0.3,0-0.46,0.08-0.49,0.24l-2.43,9.51
					c0.15,0.02,0.3,0.03,0.45,0.04c0.15,0.01,0.27,0.01,0.34,0.01c0.26,0,0.42-0.02,0.48-0.06c0.06-0.04,0.1-0.1,0.12-0.19
					l0.49-2.16h2.22l0.54,2.38c0.17,0.01,0.31,0.02,0.44,0.02c0.13,0.01,0.23,0.01,0.31,0.01c0.25,0,0.41-0.02,0.48-0.06
					c0.07-0.04,0.1-0.1,0.08-0.19l-2.43-9.5C80.94,21.46,80.85,21.45,80.74,21.44z M79.64,27.67l0.4-1.75
					c0.06-0.3,0.13-0.6,0.18-0.92c0.05-0.31,0.11-0.63,0.16-0.93c0.05-0.31,0.08-0.58,0.1-0.82c0.03,0.24,0.06,0.51,0.1,0.82
					c0.04,0.31,0.1,0.62,0.16,0.93c0.06,0.32,0.13,0.62,0.18,0.92l0.4,1.75H79.64z"/>
				<path class="st0" d="M87.12,21.74c-0.39-0.18-0.88-0.27-1.46-0.27h-0.57h-0.7h-0.08c-0.1,0-0.17,0.02-0.2,0.06
					c-0.03,0.04-0.05,0.1-0.05,0.2v9.48c0.43,0,0.72,0,0.9-0.01c0.17-0.01,0.27-0.03,0.31-0.06c0.04-0.03,0.05-0.09,0.05-0.17v-3.63
					h0.36c0.34,0,0.67-0.05,0.97-0.15c0.31-0.1,0.58-0.27,0.82-0.5c0.24-0.23,0.43-0.54,0.58-0.94c0.14-0.39,0.21-0.89,0.21-1.48
					c0-0.68-0.1-1.22-0.29-1.63C87.8,22.21,87.51,21.92,87.12,21.74z M86.73,25.32c-0.08,0.3-0.2,0.51-0.35,0.63
					c-0.15,0.12-0.33,0.19-0.56,0.19h-0.5v-3.56h0.59c0.24,0,0.43,0.06,0.56,0.18c0.13,0.12,0.23,0.29,0.29,0.52
					c0.06,0.23,0.09,0.5,0.09,0.83C86.85,24.62,86.81,25.02,86.73,25.32z"/>
				<path class="st0" d="M89.08,21.63c-0.04,0.08-0.06,0.22-0.06,0.41v9.17c0.43,0,0.73,0,0.91-0.01c0.18-0.01,0.29-0.03,0.33-0.06
					c0.04-0.03,0.05-0.09,0.05-0.17v-9.48c-0.43,0-0.73,0.01-0.91,0.02C89.23,21.5,89.12,21.55,89.08,21.63z"/>
				<path class="st0" d="M94.16,21.44c-0.11-0.01-0.22-0.01-0.33-0.01c-0.3,0-0.46,0.08-0.49,0.24l-2.43,9.51
					c0.15,0.02,0.3,0.03,0.45,0.04c0.15,0.01,0.27,0.01,0.34,0.01c0.26,0,0.42-0.02,0.48-0.06c0.06-0.04,0.1-0.1,0.12-0.19
					l0.49-2.16h2.22l0.54,2.38c0.17,0.01,0.31,0.02,0.44,0.02c0.13,0.01,0.23,0.01,0.31,0.01c0.25,0,0.41-0.02,0.48-0.06
					c0.07-0.04,0.1-0.1,0.08-0.19l-2.43-9.5C94.36,21.46,94.27,21.45,94.16,21.44z M93.06,27.67l0.4-1.75
					c0.06-0.3,0.13-0.6,0.18-0.92c0.05-0.31,0.11-0.63,0.16-0.93c0.05-0.31,0.08-0.58,0.1-0.82c0.03,0.24,0.06,0.51,0.1,0.82
					c0.04,0.31,0.1,0.62,0.16,0.93c0.06,0.32,0.13,0.62,0.18,0.92l0.4,1.75H93.06z"/>
				<path class="st0" d="M117.1,22.5c0.09,0,0.16-0.02,0.19-0.06c0.03-0.04,0.05-0.1,0.05-0.19v-0.95h-4.73
					c-0.16,0-0.24,0.08-0.24,0.25v0.94h1.82v8.54c0.42,0,0.71,0,0.89-0.01c0.18-0.01,0.28-0.03,0.32-0.06
					c0.04-0.03,0.06-0.09,0.06-0.16v-8.3H117.1z"/>
				<path class="st0" d="M119.96,21.28c-0.11-0.01-0.22-0.01-0.33-0.01c-0.3,0-0.46,0.08-0.49,0.24l-2.43,9.51
					c0.15,0.02,0.3,0.03,0.45,0.04c0.15,0.01,0.27,0.01,0.34,0.01c0.26,0,0.42-0.02,0.48-0.06c0.06-0.04,0.1-0.1,0.12-0.19
					l0.49-2.16h2.22l0.54,2.38c0.17,0.01,0.31,0.02,0.44,0.02c0.13,0.01,0.23,0.01,0.31,0.01c0.25,0,0.41-0.02,0.48-0.06
					c0.07-0.04,0.1-0.1,0.08-0.19l-2.43-9.5C120.16,21.3,120.07,21.29,119.96,21.28z M118.86,27.51l0.4-1.75
					c0.06-0.3,0.13-0.6,0.18-0.92c0.05-0.31,0.11-0.63,0.16-0.93c0.05-0.31,0.08-0.58,0.1-0.82c0.03,0.24,0.06,0.51,0.1,0.82
					c0.04,0.31,0.1,0.62,0.16,0.93c0.06,0.32,0.13,0.62,0.18,0.92l0.4,1.75H118.86z"/>
				<path class="st0" d="M127.06,21.38c-0.04,0.03-0.06,0.09-0.06,0.17v3.25c0,0.13,0,0.29,0.01,0.49c0,0.19,0.01,0.41,0.02,0.64
					c0,0.23,0.01,0.47,0.02,0.72c0.01,0.25,0.02,0.5,0.03,0.74c0.01,0.25,0.02,0.48,0.03,0.7c0.02,0.22,0.03,0.41,0.06,0.56l0,0.06
					c-0.02-0.06-0.04-0.14-0.06-0.2c-0.08-0.27-0.16-0.56-0.26-0.88c-0.09-0.32-0.19-0.64-0.29-0.97c-0.1-0.33-0.2-0.64-0.3-0.92
					s-0.18-0.52-0.26-0.71l-1.53-3.73h-0.97c-0.17,0-0.25,0.08-0.25,0.25v9.48c0.43,0,0.72,0,0.9-0.01
					c0.17-0.01,0.27-0.03,0.31-0.06c0.04-0.03,0.05-0.09,0.05-0.17v-3.35c0-0.12,0-0.28-0.01-0.49s-0.01-0.43-0.01-0.68
					c0-0.25-0.01-0.51-0.02-0.78c-0.01-0.27-0.02-0.53-0.03-0.79c-0.01-0.26-0.03-0.5-0.04-0.72c-0.01-0.2-0.03-0.36-0.06-0.5
					c0.02,0.08,0.05,0.18,0.08,0.26c0.08,0.28,0.17,0.58,0.27,0.92c0.09,0.33,0.19,0.67,0.3,1c0.11,0.33,0.21,0.64,0.3,0.92
					c0.09,0.28,0.17,0.5,0.24,0.67l1.54,3.8h0.97c0.16,0,0.24-0.08,0.24-0.25v-9.48c-0.41,0-0.7,0-0.88,0.01
					C127.21,21.33,127.1,21.35,127.06,21.38z"/>
				<path class="st0" d="M132.09,21.28c-0.11-0.01-0.22-0.01-0.33-0.01c-0.3,0-0.46,0.08-0.49,0.24l-2.43,9.51
					c0.15,0.02,0.3,0.03,0.45,0.04c0.15,0.01,0.27,0.01,0.34,0.01c0.26,0,0.42-0.02,0.48-0.06c0.06-0.04,0.1-0.1,0.12-0.19
					l0.49-2.16h2.22l0.54,2.38c0.17,0.01,0.31,0.02,0.44,0.02c0.13,0.01,0.23,0.01,0.31,0.01c0.25,0,0.41-0.02,0.48-0.06
					c0.07-0.04,0.1-0.1,0.08-0.19l-2.43-9.5C132.29,21.3,132.19,21.29,132.09,21.28z M130.99,27.51l0.4-1.75
					c0.06-0.3,0.13-0.6,0.18-0.92c0.05-0.31,0.11-0.63,0.16-0.93c0.05-0.31,0.08-0.58,0.1-0.82c0.03,0.24,0.06,0.51,0.1,0.82
					c0.04,0.31,0.1,0.62,0.16,0.93c0.06,0.32,0.13,0.62,0.18,0.92l0.4,1.75H130.99z"/>
				<path class="st0" d="M134.22,21.56v0.94h1.82v8.54c0.42,0,0.71,0,0.89-0.01c0.18-0.01,0.28-0.03,0.32-0.06
					c0.04-0.03,0.06-0.09,0.06-0.16v-8.3h1.64c0.09,0,0.16-0.02,0.19-0.06c0.03-0.04,0.05-0.1,0.05-0.19v-0.95h-4.73
					C134.3,21.31,134.22,21.39,134.22,21.56z"/>
				<path class="st0" d="M143.81,22.2c-0.19-0.37-0.45-0.63-0.76-0.79c-0.32-0.16-0.7-0.24-1.15-0.24c-0.59,0-1.09,0.16-1.48,0.47
					c-0.39,0.31-0.69,0.83-0.88,1.54c-0.19,0.72-0.29,1.7-0.29,2.94c0,1.01,0.05,1.84,0.14,2.5c0.09,0.65,0.24,1.17,0.44,1.55
					c0.2,0.38,0.46,0.65,0.77,0.79c0.32,0.15,0.7,0.22,1.15,0.22c0.61,0,1.11-0.16,1.49-0.47c0.38-0.31,0.67-0.84,0.86-1.59
					c0.19-0.74,0.28-1.76,0.28-3.05c0-0.95-0.05-1.75-0.13-2.38C144.14,23.07,144,22.57,143.81,22.2z M142.86,28.29
					c-0.07,0.56-0.19,0.96-0.36,1.21c-0.17,0.25-0.4,0.38-0.71,0.38c-0.29,0-0.51-0.12-0.68-0.35c-0.17-0.24-0.28-0.61-0.35-1.11
					c-0.06-0.51-0.1-1.17-0.1-1.98c0-0.97,0.04-1.75,0.12-2.32c0.08-0.58,0.21-0.99,0.38-1.24c0.18-0.26,0.41-0.38,0.7-0.38
					c0.3,0,0.54,0.12,0.69,0.35c0.16,0.24,0.27,0.62,0.33,1.15c0.06,0.53,0.09,1.24,0.09,2.13C142.97,27,142.93,27.73,142.86,28.29z
					"/>
				<path class="st0" d="M146.55,21.31c-0.42,0-0.72,0-0.9,0.01c-0.18,0.01-0.29,0.04-0.33,0.08c-0.04,0.05-0.06,0.13-0.06,0.25
					v9.39h3.28c0.08,0,0.13-0.02,0.18-0.05c0.04-0.03,0.06-0.1,0.06-0.2v-0.95h-2.24V21.31z"/>
				<path class="st0" d="M153.55,22.2c-0.19-0.37-0.45-0.63-0.76-0.79c-0.32-0.16-0.7-0.24-1.15-0.24c-0.59,0-1.09,0.16-1.48,0.47
					c-0.39,0.31-0.69,0.83-0.88,1.54c-0.19,0.72-0.29,1.7-0.29,2.94c0,1.01,0.05,1.84,0.14,2.5c0.09,0.65,0.24,1.17,0.44,1.55
					c0.2,0.38,0.46,0.65,0.77,0.79c0.32,0.15,0.7,0.22,1.15,0.22c0.61,0,1.11-0.16,1.49-0.47c0.38-0.31,0.67-0.84,0.86-1.59
					c0.19-0.74,0.28-1.76,0.28-3.05c0-0.95-0.05-1.75-0.13-2.38C153.89,23.07,153.75,22.57,153.55,22.2z M152.61,28.29
					c-0.07,0.56-0.19,0.96-0.36,1.21c-0.17,0.25-0.4,0.38-0.71,0.38c-0.29,0-0.51-0.12-0.68-0.35c-0.17-0.24-0.28-0.61-0.35-1.11
					c-0.06-0.51-0.1-1.17-0.1-1.98c0-0.97,0.04-1.75,0.12-2.32s0.21-0.99,0.38-1.24c0.18-0.26,0.41-0.38,0.7-0.38
					c0.3,0,0.54,0.12,0.69,0.35s0.27,0.62,0.33,1.15c0.06,0.53,0.09,1.24,0.09,2.13C152.72,27,152.68,27.73,152.61,28.29z"/>
				<path class="st0" d="M157.29,25.51v0.82h0.89v3.34c-0.02,0.03-0.06,0.06-0.11,0.1c-0.05,0.04-0.13,0.08-0.22,0.11
					c-0.09,0.03-0.21,0.05-0.36,0.05c-0.2,0-0.39-0.04-0.56-0.13c-0.17-0.08-0.3-0.25-0.41-0.49c-0.11-0.25-0.19-0.61-0.24-1.09
					c-0.05-0.48-0.08-1.11-0.08-1.88c0-0.74,0.03-1.37,0.1-1.87c0.06-0.5,0.17-0.91,0.32-1.2c0.15-0.3,0.35-0.51,0.59-0.65
					c0.24-0.13,0.54-0.2,0.9-0.2c0.21,0,0.42,0.03,0.6,0.08c0.19,0.06,0.35,0.13,0.47,0.22c0.04-0.11,0.07-0.24,0.11-0.38
					c0.04-0.14,0.06-0.29,0.06-0.42c0-0.2-0.13-0.38-0.4-0.53c-0.26-0.15-0.63-0.22-1.11-0.22c-0.46,0-0.88,0.07-1.26,0.21
					c-0.38,0.14-0.69,0.4-0.94,0.77c-0.26,0.38-0.45,0.91-0.59,1.6c-0.14,0.69-0.21,1.59-0.21,2.69c0,0.96,0.04,1.74,0.13,2.36
					c0.09,0.62,0.24,1.1,0.45,1.45c0.21,0.34,0.48,0.58,0.81,0.72c0.33,0.14,0.74,0.21,1.22,0.21c0.32,0,0.59-0.03,0.83-0.08
					c0.24-0.06,0.45-0.13,0.63-0.22c0.19-0.09,0.33-0.17,0.45-0.26l0.01-5.35h-1.81C157.39,25.27,157.29,25.35,157.29,25.51z"/>
				<path class="st0" d="M162.07,18.51c-0.11-0.21-0.23-0.32-0.38-0.32c-0.03,0-0.11,0.05-0.25,0.15c-0.14,0.1-0.3,0.24-0.5,0.4
					c-0.19,0.17-0.39,0.34-0.58,0.53c-0.19,0.19-0.37,0.37-0.51,0.56c0.07,0.22,0.15,0.39,0.23,0.51c0.08,0.12,0.16,0.18,0.26,0.18
					c0.09-0.05,0.23-0.13,0.42-0.25c0.19-0.12,0.38-0.26,0.6-0.4c0.21-0.15,0.41-0.29,0.58-0.42c0.17-0.13,0.29-0.24,0.35-0.31
					C162.25,18.93,162.18,18.72,162.07,18.51z"/>
				<path class="st0" d="M160.35,21.47c-0.04,0.08-0.06,0.22-0.06,0.41v9.17c0.43,0,0.73,0,0.91-0.01c0.18-0.01,0.29-0.03,0.33-0.06
					c0.04-0.03,0.05-0.09,0.05-0.17v-9.48c-0.43,0-0.73,0.01-0.91,0.02C160.5,21.34,160.39,21.39,160.35,21.47z"/>
				<path class="st0" d="M165.44,21.28c-0.11-0.01-0.22-0.01-0.33-0.01c-0.3,0-0.46,0.08-0.49,0.24l-2.43,9.51
					c0.15,0.02,0.3,0.03,0.45,0.04c0.15,0.01,0.27,0.01,0.34,0.01c0.26,0,0.42-0.02,0.48-0.06c0.06-0.04,0.1-0.1,0.12-0.19
					l0.49-2.16h2.22l0.54,2.38c0.17,0.01,0.31,0.02,0.44,0.02c0.13,0.01,0.23,0.01,0.31,0.01c0.25,0,0.41-0.02,0.48-0.06
					c0.07-0.04,0.1-0.1,0.08-0.19l-2.43-9.5C165.63,21.3,165.54,21.29,165.44,21.28z M164.33,27.51l0.4-1.75
					c0.06-0.3,0.13-0.6,0.18-0.92c0.05-0.31,0.11-0.63,0.16-0.93c0.05-0.31,0.08-0.58,0.1-0.82c0.03,0.24,0.06,0.51,0.1,0.82
					c0.04,0.31,0.1,0.62,0.16,0.93c0.06,0.32,0.13,0.62,0.18,0.92l0.4,1.75H164.33z"/>
				<polygon class="st0" points="103.23,26.14 104.74,28.21 106.26,26.14 104.74,24.07 				"/>
				<polygon class="st0" points="176.07,26.14 177.58,28.21 179.1,26.14 177.58,24.07 				"/>
			</g>
		</g>
		<g>
			<g>
				<g>
					<path class="st0" d="M421.29,181.57c-50.02,0-90.71-40.69-90.71-90.71c0-50.02,40.69-90.71,90.71-90.71S512,40.84,512,90.86
						C512,140.88,471.31,181.57,421.29,181.57z M421.29,8.2c-45.58,0-82.66,37.08-82.66,82.66c0,45.58,37.08,82.66,82.66,82.66
						c45.58,0,82.66-37.08,82.66-82.66C503.95,45.28,466.87,8.2,421.29,8.2z"/>
				</g>
				<path class="st1" d="M421.29,8.2c-45.65,0-82.66,37.01-82.66,82.66c0,45.65,37.01,82.66,82.66,82.66s82.66-37.01,82.66-82.66
					C503.95,45.21,466.94,8.2,421.29,8.2z"/>
			</g>
			<g>
				<polygon class="st2" points="433.13,47.53 428.3,40.9 423.46,47.53 428.3,54.16 				"/>
				<path class="st2" d="M483.52,105.23c-0.63-2.02-1.56-3.94-2.68-5.7c-2.27-3.52-5.42-6.39-9.02-8.28
					c-3.6-1.89-7.65-2.79-11.51-2.59c-3.86,0.18-7.58,1.39-10.58,3.42c-3,2.03-5.32,4.81-6.49,7.92c-0.08,0.2-0.07,0.44,0.05,0.65
					c0.21,0.37,0.68,0.51,1.05,0.3l0.02-0.01c1.36-0.75,2.69-1.36,4.02-1.8c1.33-0.44,2.64-0.74,3.92-0.88
					c2.56-0.29,4.96,0,7.11,0.7c4.28,1.41,7.3,4.44,8.76,7.86c0.74,1.71,1.11,3.46,1.21,5.25c0.07,1.82-0.12,3.61-0.71,5.34
					c-0.27,0.88-0.68,1.72-1.19,2.54c-0.5,0.82-1.13,1.59-1.86,2.28c-1.46,1.39-3.34,2.46-5.42,2.98c-1.05,0.27-2.1,0.43-3.25,0.45
					c-1.22,0.04-2.4-0.03-3.5-0.2c-1.11-0.17-2.15-0.44-3.11-0.83c-0.96-0.4-1.86-0.93-2.72-1.6c-1.73-1.31-3.24-3.31-4.57-5.65
					c-1.35-2.35-2.51-5.02-3.7-7.79c-1.2-2.76-2.43-5.65-3.98-8.48c-1.55-2.81-3.44-5.64-6.01-7.87c-1.27-1.12-2.68-2.09-4.18-2.84
					c-1.5-0.75-3.08-1.29-4.67-1.63c-0.91-0.19-1.81-0.31-2.71-0.39c-0.32-0.03-0.64-0.07-0.96-0.09c0.21-0.07,0.41-0.15,0.62-0.22
					c34.3-11.72,49.11-38.17,49.11-38.17h-14.13c-14.52,23.51-29.66,32.97-37.1,36.44c-2.96,1.38-4.7,1.82-4.7,1.82
					c0.01-0.02,0.03-0.05,0.04-0.07c0.96-0.96,1.84-2.01,2.62-3.12c2.49-3.52,4.04-7.72,4.26-12.29c0.64-13.21-10-24.46-23.77-25.12
					c-7.49-0.36-14.36,2.5-19.17,7.3c-0.32,0.27-0.49,0.44-0.49,0.44l2.37,12.49c3.39-3.17,8.32-5.06,13.73-4.8
					c2.09,0.1,4.07,0.53,5.9,1.2c3.95,1.1,7.35,3.53,9.25,7.67c1.2,2.2,1.83,4.67,1.71,7.25c-0.05,0.97-0.2,1.92-0.45,2.83
					c-0.67,2.51-2.05,4.77-3.95,6.61c-1,0.97-0.75,2.65,0.49,3.28c6.1,3.09,9.05,8.33,8.18,15.82c-0.91,7.84-5.82,13.24-13.68,14.03
					c-9.07,0.91-16.25-4.01-17.88-12.41c-0.84-4.47,0.32-9.18,0.72-12.08c0.42-3.06-5.62-3.48-7.04-0.73
					c-4.43,8.56-6.45,23.41,3.33,32.34c4.41,4.03,9.12,6.44,13.81,7.58c0.23,0.05,0.46,0.11,0.69,0.15
					c0.22,0.05,0.44,0.09,0.66,0.13c1.27,0.24,2.54,0.39,3.81,0.45c0.19,0.01,0.38,0.02,0.56,0.02c0.29,0.01,0.58,0.02,0.87,0.02
					c0.1,0,0.19,0.01,0.29,0.01c11.87,0,22.08-6.78,26.72-16.53c1.5-3.16,2.43-6.63,2.63-10.29c0.03-0.49,0.04-0.99,0.04-1.49
					c0-0.01,0-0.02,0-0.03c0-0.44-0.01-0.87-0.03-1.3c0-0.07-0.01-0.13-0.01-0.2c-0.1-1.91-0.37-3.63-0.79-5.17
					c-1.62-5.95-5.27-9.23-7.96-10.95c0.52,0.16,1.02,0.34,1.52,0.54c0.71,0.28,1.38,0.61,2.03,0.98c0.54,0.3,1.07,0.63,1.57,0.99
					c1.09,0.79,2.05,1.72,2.89,2.75c1.68,2.06,2.9,4.52,3.86,7.16c0.97,2.64,1.72,5.47,2.5,8.39c0.8,2.92,1.63,5.94,2.87,9.05
					c0.62,1.55,1.37,3.11,2.3,4.65c0.92,1.54,2.04,3.06,3.4,4.44c1.35,1.38,2.94,2.6,4.66,3.58c1.72,0.97,3.55,1.7,5.38,2.2
					c1.83,0.5,3.66,0.79,5.45,0.93c1.86,0.17,3.84,0.12,5.75-0.15c1.93-0.26,3.84-0.74,5.69-1.42c1.85-0.69,3.67-1.55,5.35-2.67
					c3.39-2.18,6.35-5.25,8.38-8.95c1.01-1.85,1.79-3.84,2.27-5.91c0.48-2.07,0.69-4.17,0.63-6.28
					C484.52,109.36,484.15,107.25,483.52,105.23z"/>
			</g>
		</g>
	</g>
</g>
</svg>
