<?xml version="1.0" encoding="utf-8"?>
<!-- Generator: Adobe Illustrator 15.1.0, SVG Export Plug-In  -->
<!DOCTYPE svg PUBLIC "-//W3C//DTD SVG 1.1//EN" "http://www.w3.org/Graphics/SVG/1.1/DTD/svg11.dtd" [
	<!ENTITY ns_flows "http://ns.adobe.com/Flows/1.0/">
]>
<svg version="1.1"
	 xmlns="http://www.w3.org/2000/svg" xmlns:xlink="http://www.w3.org/1999/xlink" xmlns:a="http://ns.adobe.com/AdobeSVGViewerExtensions/3.0/"
	 x="0px" y="0px" width="967px" height="405px" viewBox="0 0 967 405" enable-background="new 0 0 967 405" xml:space="preserve">
<defs>
</defs>
<path display="none" fill="#594A42" d="M81.193,297.726h18.062v2.02h-8.004v24.813h-2.087v-24.813h-7.97V297.726z"/>
<path display="none" fill="#594A42" d="M103.569,324.558V302.53h11.798v2.019h-9.709v7.238h7.761v1.982h-7.761v8.771h9.709v2.019
	H103.569z"/>
<path display="none" fill="#594A42" d="M122.64,324.558V302.53h1.879l12.425,11.136V302.53h2.087v22.028h-2.087v-8.213
	l-12.215-10.857v19.07H122.64z"/>
<path display="none" fill="#594A42" d="M157.094,302.216c1.531,0,3.01,0.267,4.437,0.8c1.427,0.534,2.685,1.288,3.775,2.263
	c1.091,0.975,1.96,2.164,2.61,3.567c0.649,1.403,0.974,2.976,0.974,4.716s-0.325,3.312-0.974,4.715
	c-0.65,1.403-1.519,2.599-2.61,3.584c-1.09,0.986-2.348,1.74-3.775,2.262s-2.906,0.784-4.437,0.784c-1.532,0-3.01-0.263-4.437-0.784
	c-1.428-0.521-2.692-1.275-3.794-2.262c-1.102-0.985-1.978-2.181-2.628-3.584c-0.649-1.403-0.974-2.975-0.974-4.715
	s0.325-3.313,0.974-4.716c0.65-1.403,1.526-2.593,2.628-3.567s2.366-1.729,3.794-2.263
	C154.084,302.483,155.562,302.216,157.094,302.216z M157.094,304.2c-1.301,0-2.536,0.216-3.708,0.645s-2.203,1.049-3.097,1.862
	c-0.894,0.811-1.607,1.797-2.14,2.957c-0.535,1.16-0.8,2.459-0.8,3.898c0,1.438,0.265,2.737,0.8,3.897
	c0.533,1.16,1.247,2.14,2.14,2.94c0.894,0.799,1.925,1.414,3.097,1.844s2.407,0.645,3.708,0.645c1.274,0,2.499-0.215,3.671-0.645
	s2.203-1.045,3.097-1.844c0.894-0.801,1.607-1.78,2.14-2.94c0.535-1.16,0.801-2.46,0.801-3.897c0-1.439-0.267-2.738-0.801-3.898
	c-0.533-1.16-1.247-2.146-2.14-2.957c-0.894-0.813-1.925-1.434-3.097-1.862S158.369,304.2,157.094,304.2z"/>
<path display="none" fill="#594A42" d="M190.223,310.117c0,0.974-0.151,1.873-0.453,2.696s-0.725,1.56-1.27,2.21
	c-0.545,0.649-1.195,1.188-1.948,1.617c-0.754,0.432-1.573,0.726-2.454,0.889l7.03,7.029h-2.854l-6.718-6.855h-4.349v6.855h-2.089
	V302.53h5.777c1.345,0,2.593,0.181,3.741,0.539c1.148,0.36,2.134,0.87,2.958,1.53c0.823,0.662,1.468,1.457,1.932,2.385
	S190.223,308.957,190.223,310.117z M188.136,310.117c0-0.859-0.186-1.637-0.558-2.332c-0.371-0.696-0.876-1.282-1.513-1.758
	c-0.639-0.475-1.38-0.842-2.227-1.096c-0.848-0.256-1.736-0.383-2.663-0.383h-3.967v11.136h5.186c0.88,0,1.676-0.146,2.383-0.435
	c0.708-0.291,1.311-0.69,1.809-1.201c0.5-0.51,0.882-1.102,1.148-1.774S188.136,310.88,188.136,310.117z"/>
<path display="none" fill="#594A42" d="M199.34,302.53v22.028h-2.089V302.53H199.34z"/>
<path display="none" fill="#594A42" d="M217.402,302.216c1.531,0,3.01,0.267,4.437,0.8c1.427,0.534,2.685,1.288,3.775,2.263
	c1.091,0.975,1.96,2.164,2.61,3.567c0.649,1.403,0.974,2.976,0.974,4.716s-0.325,3.312-0.974,4.715
	c-0.65,1.403-1.519,2.599-2.61,3.584c-1.09,0.986-2.348,1.74-3.775,2.262s-2.906,0.784-4.437,0.784c-1.532,0-3.01-0.263-4.437-0.784
	c-1.428-0.521-2.692-1.275-3.794-2.262c-1.102-0.985-1.978-2.181-2.628-3.584c-0.649-1.403-0.974-2.975-0.974-4.715
	s0.325-3.313,0.974-4.716c0.65-1.403,1.526-2.593,2.628-3.567s2.366-1.729,3.794-2.263
	C214.392,302.483,215.87,302.216,217.402,302.216z M217.402,304.2c-1.301,0-2.536,0.216-3.708,0.645s-2.203,1.049-3.097,1.862
	c-0.894,0.811-1.607,1.797-2.14,2.957c-0.535,1.16-0.8,2.459-0.8,3.898c0,1.438,0.265,2.737,0.8,3.897
	c0.533,1.16,1.247,2.14,2.14,2.94c0.894,0.799,1.925,1.414,3.097,1.844s2.407,0.645,3.708,0.645c1.274,0,2.499-0.215,3.671-0.645
	s2.203-1.045,3.097-1.844c0.894-0.801,1.607-1.78,2.14-2.94c0.535-1.16,0.801-2.46,0.801-3.897c0-1.439-0.267-2.738-0.801-3.898
	c-0.533-1.16-1.247-2.146-2.14-2.957c-0.894-0.813-1.925-1.434-3.097-1.862S218.676,304.2,217.402,304.2z"/>
<path display="none" fill="#594A42" d="M262.85,297.726l10.685,26.832h-2.262l-3.724-9.466h-9.954l-3.584,9.466h-2.227
	l10.266-26.832H262.85z M258.362,313.074h8.386c-0.371-0.951-0.737-1.861-1.096-2.732c-0.36-0.869-0.713-1.734-1.062-2.592
	c-0.347-0.857-0.696-1.723-1.044-2.594c-0.347-0.869-0.708-1.791-1.078-2.766L258.362,313.074z"/>
<path display="none" fill="#594A42" d="M279.275,302.53h7.831c0.835,0,1.605,0.14,2.314,0.417c0.708,0.279,1.314,0.667,1.827,1.166
	c0.51,0.498,0.911,1.084,1.198,1.757c0.293,0.674,0.437,1.405,0.437,2.192c0,0.953-0.19,1.781-0.574,2.489s-0.911,1.294-1.582,1.757
	c1.298,0.441,2.282,1.144,2.956,2.105c0.674,0.963,1.011,2.232,1.011,3.811c0,1.137-0.229,2.106-0.677,2.906
	c-0.454,0.8-1.069,1.456-1.846,1.966c-0.779,0.511-1.695,0.882-2.75,1.113c-1.056,0.233-2.175,0.349-3.359,0.349h-6.787V302.53z
	 M281.364,304.548v7.238h5.707c0.557-0.022,1.072-0.146,1.548-0.365c0.476-0.221,0.882-0.506,1.219-0.853
	c0.335-0.349,0.596-0.737,0.782-1.166c0.185-0.429,0.278-0.876,0.278-1.341c0-0.464-0.082-0.904-0.243-1.322
	c-0.163-0.418-0.406-0.788-0.731-1.113c-0.325-0.324-0.719-0.586-1.184-0.782c-0.464-0.198-1.009-0.296-1.635-0.296H281.364z
	 M281.364,313.769v8.841h4.837c2.042,0,3.62-0.401,4.733-1.201s1.67-1.851,1.67-3.149c0-2.992-1.869-4.49-5.602-4.49H281.364z"/>
<path display="none" fill="#594A42" d="M311.011,302.216c1.532,0,3.012,0.267,4.438,0.8c1.427,0.534,2.684,1.288,3.776,2.263
	c1.09,0.975,1.96,2.164,2.61,3.567c0.647,1.403,0.973,2.976,0.973,4.716s-0.325,3.312-0.973,4.715
	c-0.65,1.403-1.521,2.599-2.61,3.584c-1.093,0.986-2.35,1.74-3.776,2.262s-2.906,0.784-4.438,0.784
	c-1.529,0-3.009-0.263-4.436-0.784s-2.692-1.275-3.794-2.262c-1.102-0.985-1.978-2.181-2.628-3.584
	c-0.647-1.403-0.973-2.975-0.973-4.715s0.325-3.313,0.973-4.716c0.65-1.403,1.526-2.593,2.628-3.567s2.367-1.729,3.794-2.263
	C308.002,302.483,309.482,302.216,311.011,302.216z M311.011,304.2c-1.298,0-2.534,0.216-3.706,0.645s-2.203,1.049-3.097,1.862
	c-0.894,0.811-1.605,1.797-2.139,2.957c-0.536,1.16-0.8,2.459-0.8,3.898c0,1.438,0.264,2.737,0.8,3.897
	c0.533,1.16,1.245,2.14,2.139,2.94c0.894,0.799,1.925,1.414,3.097,1.844s2.408,0.645,3.706,0.645c1.277,0,2.499-0.215,3.671-0.645
	s2.206-1.045,3.1-1.844c0.891-0.801,1.605-1.78,2.139-2.94s0.8-2.46,0.8-3.897c0-1.439-0.267-2.738-0.8-3.898
	s-1.248-2.146-2.139-2.957c-0.894-0.813-1.928-1.434-3.1-1.862S312.289,304.2,311.011,304.2z"/>
<path display="none" fill="#594A42" d="M327.649,313.562c0-1.648,0.287-3.174,0.87-4.576c0.577-1.404,1.392-2.617,2.435-3.638
	s2.285-1.821,3.724-2.401s3.026-0.869,4.767-0.869c1.16,0,2.247,0.15,3.255,0.452c1.011,0.302,1.901,0.655,2.681,1.061
	c0.776,0.407,1.433,0.825,1.966,1.254s0.905,0.771,1.113,1.025l-1.321,1.323c-0.278-0.256-0.662-0.563-1.148-0.922
	c-0.489-0.36-1.063-0.701-1.723-1.027c-0.662-0.324-1.406-0.604-2.229-0.834c-0.823-0.233-1.688-0.35-2.593-0.35
	c-1.321,0-2.569,0.222-3.741,0.661c-1.172,0.44-2.203,1.067-3.097,1.88s-1.6,1.805-2.121,2.977
	c-0.524,1.172-0.785,2.498-0.785,3.984c0,1.391,0.278,2.661,0.835,3.81c0.56,1.148,1.289,2.136,2.194,2.959s1.942,1.466,3.114,1.931
	s2.373,0.695,3.601,0.695c1.207,0,2.385-0.225,3.533-0.678s2.174-1.084,3.079-1.896s1.649-1.78,2.229-2.906
	c0.577-1.125,0.891-2.36,0.938-3.707h-11.728v-1.982h13.781v1.636c0,1.74-0.337,3.317-1.008,4.733
	c-0.674,1.414-1.567,2.621-2.681,3.617c-1.113,1-2.379,1.77-3.794,2.314s-2.865,0.819-4.351,0.819c-1.482,0-2.933-0.263-4.348-0.784
	c-1.418-0.521-2.675-1.275-3.776-2.262c-1.102-0.985-1.989-2.181-2.663-3.584S327.649,315.302,327.649,313.562z"/>
<path display="none" fill="#594A42" d="M363.596,302.53l8.525,22.028h-2.191l-2.646-6.717h-8.42l-2.543,6.717h-2.191l8.317-22.028
	H363.596z M359.559,315.824h6.996c-0.302-0.813-0.598-1.59-0.888-2.332s-0.574-1.479-0.853-2.209
	c-0.278-0.731-0.563-1.475-0.853-2.229c-0.29-0.753-0.586-1.549-0.888-2.383L359.559,315.824z"/>
<path display="none" fill="#594A42" d="M377.585,302.53h3.618c1.532,0,3.015,0.231,4.456,0.696c1.436,0.464,2.701,1.154,3.791,2.069
	c1.09,0.917,1.966,2.042,2.628,3.376c0.662,1.335,0.993,2.871,0.993,4.611c0,1.717-0.325,3.271-0.976,4.663s-1.521,2.575-2.61,3.55
	s-2.35,1.729-3.776,2.263c-1.427,0.533-2.906,0.8-4.436,0.8h-3.688V302.53z M381.274,322.54c1.207,0,2.394-0.208,3.565-0.627
	c1.172-0.417,2.218-1.014,3.132-1.792c0.917-0.775,1.655-1.74,2.212-2.889s0.835-2.453,0.835-3.915c0-1.413-0.261-2.667-0.782-3.757
	c-0.524-1.092-1.225-2.008-2.106-2.75s-1.904-1.305-3.062-1.688c-1.16-0.384-2.379-0.574-3.656-0.574h-1.74v17.991H381.274z"/>
<path display="none" fill="#594A42" d="M409.739,302.216c1.532,0,3.012,0.267,4.438,0.8c1.427,0.534,2.684,1.288,3.776,2.263
	c1.09,0.975,1.96,2.164,2.61,3.567c0.647,1.403,0.973,2.976,0.973,4.716s-0.325,3.312-0.973,4.715
	c-0.65,1.403-1.521,2.599-2.61,3.584c-1.093,0.986-2.35,1.74-3.776,2.262s-2.906,0.784-4.438,0.784
	c-1.529,0-3.009-0.263-4.436-0.784s-2.692-1.275-3.794-2.262c-1.102-0.985-1.978-2.181-2.628-3.584s-0.973-2.975-0.973-4.715
	s0.322-3.313,0.973-4.716s1.526-2.593,2.628-3.567s2.367-1.729,3.794-2.263C406.73,302.483,408.209,302.216,409.739,302.216z
	 M409.739,304.2c-1.298,0-2.534,0.216-3.706,0.645s-2.203,1.049-3.097,1.862c-0.894,0.811-1.605,1.797-2.142,2.957
	c-0.533,1.16-0.8,2.459-0.8,3.898c0,1.438,0.267,2.737,0.8,3.897c0.536,1.16,1.248,2.14,2.142,2.94
	c0.894,0.799,1.925,1.414,3.097,1.844s2.408,0.645,3.706,0.645c1.277,0,2.499-0.215,3.671-0.645s2.206-1.045,3.1-1.844
	c0.891-0.801,1.605-1.78,2.139-2.94s0.8-2.46,0.8-3.897c0-1.439-0.267-2.738-0.8-3.898s-1.248-2.146-2.139-2.957
	c-0.894-0.813-1.928-1.434-3.1-1.862S411.016,304.2,409.739,304.2z"/>
<path display="none" fill="#594A42" d="M434.729,312.308c1.043,0.256,2.054,0.546,3.026,0.869c0.976,0.326,1.834,0.743,2.575,1.254
	c0.744,0.51,1.33,1.131,1.758,1.862c0.431,0.731,0.621,1.63,0.574,2.696c-0.067,1.09-0.404,2.014-1.008,2.768
	c-0.604,0.753-1.362,1.368-2.279,1.844c-0.917,0.475-1.948,0.807-3.097,0.992c-1.148,0.185-2.303,0.255-3.463,0.208
	c-1.113-0.069-2.089-0.261-2.924-0.574s-1.532-0.649-2.089-1.009s-0.987-0.702-1.286-1.025c-0.302-0.326-0.489-0.535-0.557-0.627
	l1.216-1.148c0.419,0.417,0.917,0.811,1.497,1.184c0.486,0.324,1.072,0.625,1.758,0.903c0.683,0.278,1.456,0.44,2.314,0.487
	c1.043,0.047,2.042-0.023,2.991-0.209c0.952-0.185,1.781-0.457,2.49-0.817c0.706-0.358,1.274-0.794,1.705-1.306
	c0.428-0.51,0.665-1.066,0.712-1.67c0.023-0.695-0.149-1.305-0.521-1.826c-0.372-0.523-0.899-0.98-1.582-1.375
	c-0.686-0.395-1.479-0.742-2.385-1.045c-0.905-0.301-1.878-0.578-2.924-0.835c-0.905-0.208-1.775-0.475-2.61-0.8
	s-1.559-0.725-2.174-1.201c-0.615-0.475-1.09-1.031-1.427-1.67c-0.337-0.637-0.483-1.386-0.437-2.244
	c0.07-0.929,0.325-1.758,0.768-2.488c0.439-0.731,1.037-1.341,1.79-1.827c0.756-0.487,1.632-0.853,2.628-1.097
	c0.999-0.244,2.077-0.33,3.237-0.262c0.882,0.07,1.682,0.204,2.402,0.4c0.718,0.197,1.345,0.413,1.878,0.645
	s0.964,0.459,1.289,0.678c0.322,0.222,0.545,0.367,0.659,0.436l-1.321,1.566c-0.442-0.301-0.929-0.579-1.462-0.836
	c-0.466-0.209-0.999-0.411-1.6-0.609c-0.604-0.195-1.242-0.317-1.916-0.364c-0.882-0.047-1.705,0.006-2.47,0.157
	c-0.765,0.15-1.427,0.388-1.983,0.713s-1.005,0.736-1.342,1.234c-0.334,0.5-0.516,1.086-0.539,1.758
	c-0.047,0.696,0.117,1.271,0.489,1.723c0.369,0.453,0.853,0.836,1.444,1.148c0.592,0.314,1.257,0.568,2.001,0.767
	c0.741,0.196,1.482,0.388,2.227,0.573H434.729z"/>
<path display="none" fill="#594A42" d="M475.373,309.767c1.066,0.21,2.106,0.547,3.114,1.01c1.011,0.465,1.916,1.033,2.716,1.705
	c0.8,0.674,1.444,1.433,1.931,2.279c0.486,0.848,0.732,1.736,0.732,2.663c0,1.206-0.267,2.256-0.803,3.149
	c-0.533,0.894-1.245,1.635-2.139,2.227s-1.928,1.039-3.097,1.34c-1.172,0.303-2.396,0.453-3.671,0.453
	c-1.207,0-2.282-0.121-3.22-0.366c-0.94-0.243-1.74-0.516-2.402-0.817s-1.178-0.592-1.547-0.87
	c-0.372-0.278-0.592-0.452-0.662-0.521l1.497-1.565c0.044,0.047,0.237,0.186,0.574,0.417c0.334,0.231,0.788,0.476,1.356,0.731
	c0.568,0.254,1.254,0.481,2.054,0.678c0.8,0.197,1.688,0.296,2.66,0.296c1.046,0,2.013-0.122,2.906-0.366
	c0.894-0.243,1.664-0.59,2.314-1.043s1.16-0.992,1.532-1.619c0.369-0.627,0.557-1.334,0.557-2.122c0-1.415-0.697-2.616-2.089-3.603
	c-1.392-0.985-3.316-1.77-5.777-2.35c-2.203-0.51-3.908-1.391-5.115-2.644s-1.808-2.714-1.808-4.386c0-1.135,0.231-2.15,0.694-3.044
	s1.078-1.636,1.846-2.228c0.765-0.592,1.658-1.045,2.678-1.357c1.022-0.313,2.089-0.47,3.202-0.47c0.533,0,1.096,0.047,1.688,0.14
	c0.592,0.092,1.184,0.225,1.775,0.399s1.166,0.396,1.723,0.662s1.043,0.574,1.462,0.921l-1.321,1.531
	c-0.929-0.557-1.787-0.975-2.575-1.252c-0.791-0.279-1.649-0.418-2.575-0.418c-1.022,0-1.934,0.133-2.733,0.4
	s-1.479,0.633-2.036,1.097s-0.987,1.003-1.286,1.617c-0.302,0.615-0.454,1.271-0.454,1.968c0,0.719,0.158,1.367,0.472,1.947
	s0.747,1.086,1.304,1.514c0.557,0.431,1.225,0.801,2.001,1.115C473.626,309.298,474.467,309.56,475.373,309.767z"/>
<path display="none" fill="#594A42" d="M513.271,320.834c-1.345,1.3-2.877,2.314-4.594,3.046c-1.717,0.73-3.551,1.096-5.499,1.096
	c-1.878,0-3.671-0.361-5.376-1.078c-1.705-0.72-3.208-1.705-4.506-2.959c-1.301-1.253-2.332-2.715-3.097-4.385
	c-0.768-1.67-1.148-3.457-1.148-5.359s0.369-3.689,1.113-5.359c0.741-1.671,1.752-3.125,3.026-4.367
	c1.277-1.241,2.771-2.221,4.488-2.94s3.551-1.079,5.499-1.079c1.925,0,3.747,0.365,5.464,1.097c1.717,0.729,3.249,1.723,4.594,2.976
	l-1.427,1.391c-1.184-1.113-2.505-1.988-3.967-2.627c-1.462-0.638-3.018-0.957-4.664-0.957s-3.202,0.313-4.661,0.94
	c-1.462,0.626-2.739,1.478-3.829,2.558c-1.09,1.078-1.954,2.336-2.593,3.775s-0.958,2.971-0.958,4.594
	c0,1.624,0.349,3.154,1.046,4.594c0.694,1.438,1.611,2.691,2.748,3.758c1.137,1.068,2.423,1.915,3.864,2.541
	c1.436,0.627,2.897,0.939,4.383,0.939c1.646,0,3.202-0.318,4.664-0.957c1.462-0.638,2.795-1.514,4.002-2.627L513.271,320.834z"/>
<path display="none" fill="#594A42" d="M122.12,249.01V101.499H93.444L81.325,81.864h100.831v19.635h-40.601v166.56L122.12,249.01z"
	/>
<polygon display="none" fill="#ED1C24" points="171.379,199.254 171.379,216.375 184.468,216.375 264.904,216.375 277.22,216.375 
	277.22,199.254 "/>
<path display="none" fill="#594A42" d="M231.803,80.522h-14.238l-38.099,96.407h90.441L231.803,80.522z M225.07,111.119
	l16.551,47.531h-33.485L225.07,111.119z"/>
<path display="none" fill="#594A42" d="M359.58,116.7c-0.642-3.082-1.893-5.711-3.753-7.893c-1.857-2.181-4.066-3.946-6.636-5.29
	c-2.563-1.349-5.329-2.342-8.271-2.982c-2.95-0.642-5.903-0.964-8.856-0.964c-4.491,0.13-9.012,0.995-13.567,2.597
	c-4.55,1.604-8.174,4.14-10.872,7.601c-1.409,1.797-2.376,3.754-2.883,5.868c-0.519,2.118-0.647,4.332-0.384,6.643
	c0.255,3.461,1.31,6.221,3.17,8.272c1.863,2.052,4.239,3.655,7.119,4.811c2.889,1.156,6.091,1.989,9.618,2.505
	c3.53,0.51,7.096,0.957,10.688,1.343c4.62,0.646,9.398,1.478,14.332,2.505c4.939,1.025,9.589,2.566,13.948,4.617
	c4.368,2.051,8.183,4.811,11.458,8.271c3.27,3.469,5.546,7.896,6.829,13.283c0.645,3.207,0.961,6.158,0.961,8.851
	c0,6.543-1.479,12.349-4.424,17.414c-2.953,5.071-6.803,9.334-11.546,12.795c-4.746,3.463-10.102,6.129-16.072,7.988
	c-5.965,1.857-11.962,2.791-17.991,2.791c-5.259,0-10.614-0.771-16.066-2.313c-5.458-1.535-10.491-3.81-15.105-6.831
	c-4.62-3.007-8.499-6.798-11.644-11.348c-3.144-4.556-5.033-9.844-5.672-15.879l-0.195-3.655l19.626-0.385l0.196,2.883v-0.771
	c0.381,3.083,1.503,5.811,3.363,8.18c1.863,2.38,4.169,4.362,6.926,5.966c2.757,1.61,5.804,2.827,9.141,3.661
	c3.343,0.833,6.548,1.25,9.624,1.25c3.589,0,7.184-0.485,10.772-1.441c3.595-0.964,6.832-2.407,9.724-4.333
	c2.883-1.926,5.229-4.232,7.02-6.93c1.799-2.689,2.695-5.773,2.695-9.234c0-1.28-0.196-2.821-0.58-4.617
	c-0.642-2.566-1.89-4.619-3.747-6.161c-1.863-1.541-4.137-2.791-6.829-3.751c-2.701-0.958-5.713-1.667-9.047-2.115
	c-3.343-0.445-6.671-0.869-10.008-1.25c-5.256-0.516-10.614-1.317-16.066-2.41c-5.455-1.087-10.424-2.852-14.915-5.29
	c-4.497-2.436-8.273-5.805-11.355-10.106c-3.076-4.295-4.871-9.968-5.383-17.029v0.193c-0.384-4.488,0-8.95,1.148-13.375
	c1.159-4.425,3.209-8.496,6.163-12.218c2.309-2.946,4.972-5.543,7.983-7.793c3.018-2.244,6.316-4.102,9.914-5.581
	c3.589-1.474,7.342-2.599,11.256-3.369c3.908-0.763,7.79-1.15,11.64-1.15c5.127,0,10.26,0.703,15.393,2.112
	c5.127,1.418,9.82,3.561,14.051,6.453c4.236,2.883,7.79,6.538,10.685,10.963c2.883,4.431,4.772,9.719,5.669,15.879L359.58,116.7z"/>
<path display="none" fill="#594A42" d="M384.019,149.603c0-9.621,1.758-18.533,5.288-26.751c3.53-8.203,8.18-15.394,13.954-21.546
	c5.9-6.158,12.826-11.033,20.78-14.625c7.957-3.592,16.556-5.388,25.79-5.388c7.69,0,14.941,1.15,21.747,3.463
	c6.797,2.306,12.891,5.612,18.275,9.905c5.388,4.302,10.037,9.527,13.957,15.687c3.908,6.16,6.823,13.021,8.751,20.59H493.32
	c-3.595-10.129-9.24-17.73-16.931-22.802c-7.705-5.065-16.55-7.601-26.558-7.601c-6.548,0-12.636,1.28-18.281,3.847
	s-10.585,6.097-14.821,10.583c-4.23,4.494-7.603,9.652-10.102,15.488c-2.505,5.842-3.753,12.226-3.753,19.15
	c0,6.806,1.248,13.087,3.753,18.861c2.499,5.769,5.871,10.901,10.102,15.396c4.236,4.487,9.176,8.017,14.821,10.583
	s11.733,3.847,18.281,3.847c10.263,0,19.403-2.791,27.416-8.372c8.021-5.581,13.764-13.499,17.227-23.766h19.055
	c-1.928,7.699-4.852,14.692-8.757,20.975c-3.914,6.29-8.634,11.679-14.145,16.166c-5.522,4.493-11.739,7.986-18.665,10.484
	c-6.932,2.505-14.309,3.754-22.131,3.754c-9.234,0-17.833-1.796-25.79-5.388c-7.954-3.593-14.88-8.465-20.78-14.625
	c-5.774-6.158-10.424-13.343-13.954-21.552C385.777,167.755,384.019,158.969,384.019,149.603z"/>
<rect display="none" fill="none" width="594.749" height="405.498"/>
<path fill="#594A42" d="M81.193,297.726h18.062v2.02h-8.004v24.813h-2.087v-24.813h-7.97V297.726z"/>
<path fill="#594A42" d="M103.569,324.558V302.53h11.798v2.019h-9.709v7.238h7.761v1.982h-7.761v8.771h9.709v2.019H103.569z"/>
<path fill="#594A42" d="M122.64,324.558V302.53h1.879l12.425,11.136V302.53h2.087v22.028h-2.087v-8.213l-12.215-10.857v19.07H122.64
	z"/>
<path fill="#594A42" d="M157.094,302.216c1.531,0,3.01,0.267,4.437,0.8c1.427,0.534,2.685,1.288,3.775,2.263
	c1.091,0.975,1.96,2.164,2.61,3.567c0.649,1.403,0.974,2.976,0.974,4.716s-0.325,3.312-0.974,4.715
	c-0.65,1.403-1.519,2.599-2.61,3.584c-1.09,0.986-2.348,1.74-3.775,2.262s-2.906,0.784-4.437,0.784c-1.532,0-3.01-0.263-4.437-0.784
	c-1.428-0.521-2.692-1.275-3.794-2.262c-1.102-0.985-1.978-2.181-2.628-3.584c-0.649-1.403-0.974-2.975-0.974-4.715
	s0.325-3.313,0.974-4.716c0.65-1.403,1.526-2.593,2.628-3.567s2.366-1.729,3.794-2.263
	C154.084,302.483,155.562,302.216,157.094,302.216z M157.094,304.2c-1.301,0-2.536,0.216-3.708,0.645s-2.203,1.049-3.097,1.862
	c-0.894,0.811-1.607,1.797-2.14,2.957c-0.535,1.16-0.8,2.459-0.8,3.898c0,1.438,0.265,2.737,0.8,3.897
	c0.533,1.16,1.247,2.14,2.14,2.94c0.894,0.799,1.925,1.414,3.097,1.844s2.407,0.645,3.708,0.645c1.274,0,2.499-0.215,3.671-0.645
	s2.203-1.045,3.097-1.844c0.894-0.801,1.607-1.78,2.14-2.94c0.535-1.16,0.801-2.46,0.801-3.897c0-1.439-0.267-2.738-0.801-3.898
	c-0.533-1.16-1.247-2.146-2.14-2.957c-0.894-0.813-1.925-1.434-3.097-1.862S158.369,304.2,157.094,304.2z"/>
<path fill="#594A42" d="M190.223,310.117c0,0.974-0.151,1.873-0.453,2.696s-0.725,1.56-1.27,2.21
	c-0.545,0.649-1.195,1.188-1.948,1.617c-0.754,0.432-1.573,0.726-2.454,0.889l7.03,7.029h-2.854l-6.718-6.855h-4.349v6.855h-2.089
	V302.53h5.777c1.345,0,2.593,0.181,3.741,0.539c1.148,0.36,2.134,0.87,2.958,1.53c0.823,0.662,1.468,1.457,1.932,2.385
	S190.223,308.957,190.223,310.117z M188.136,310.117c0-0.859-0.186-1.637-0.558-2.332c-0.371-0.696-0.876-1.282-1.513-1.758
	c-0.639-0.475-1.38-0.842-2.227-1.096c-0.848-0.256-1.736-0.383-2.663-0.383h-3.967v11.136h5.186c0.88,0,1.676-0.146,2.383-0.435
	c0.708-0.291,1.311-0.69,1.809-1.201c0.5-0.51,0.882-1.102,1.148-1.774S188.136,310.88,188.136,310.117z"/>
<path fill="#594A42" d="M199.34,302.53v22.028h-2.089V302.53H199.34z"/>
<path fill="#594A42" d="M217.402,302.216c1.531,0,3.01,0.267,4.437,0.8c1.427,0.534,2.685,1.288,3.775,2.263
	c1.091,0.975,1.96,2.164,2.61,3.567c0.649,1.403,0.974,2.976,0.974,4.716s-0.325,3.312-0.974,4.715
	c-0.65,1.403-1.519,2.599-2.61,3.584c-1.09,0.986-2.348,1.74-3.775,2.262s-2.906,0.784-4.437,0.784c-1.532,0-3.01-0.263-4.437-0.784
	c-1.428-0.521-2.692-1.275-3.794-2.262c-1.102-0.985-1.978-2.181-2.628-3.584c-0.649-1.403-0.974-2.975-0.974-4.715
	s0.325-3.313,0.974-4.716c0.65-1.403,1.526-2.593,2.628-3.567s2.366-1.729,3.794-2.263
	C214.392,302.483,215.87,302.216,217.402,302.216z M217.402,304.2c-1.301,0-2.536,0.216-3.708,0.645s-2.203,1.049-3.097,1.862
	c-0.894,0.811-1.607,1.797-2.14,2.957c-0.535,1.16-0.8,2.459-0.8,3.898c0,1.438,0.265,2.737,0.8,3.897
	c0.533,1.16,1.247,2.14,2.14,2.94c0.894,0.799,1.925,1.414,3.097,1.844s2.407,0.645,3.708,0.645c1.274,0,2.499-0.215,3.671-0.645
	s2.203-1.045,3.097-1.844c0.894-0.801,1.607-1.78,2.14-2.94c0.535-1.16,0.801-2.46,0.801-3.897c0-1.439-0.267-2.738-0.801-3.898
	c-0.533-1.16-1.247-2.146-2.14-2.957c-0.894-0.813-1.925-1.434-3.097-1.862S218.676,304.2,217.402,304.2z"/>
<path fill="#594A42" d="M262.85,297.726l10.685,26.832h-2.262l-3.724-9.466h-9.954l-3.584,9.466h-2.227l10.266-26.832H262.85z
	 M258.362,313.074h8.386c-0.371-0.951-0.737-1.861-1.096-2.732c-0.36-0.869-0.713-1.734-1.062-2.592
	c-0.347-0.857-0.696-1.723-1.044-2.594c-0.347-0.869-0.708-1.791-1.078-2.766L258.362,313.074z"/>
<path fill="#594A42" d="M279.275,302.53h7.831c0.835,0,1.605,0.14,2.314,0.417c0.708,0.279,1.314,0.667,1.827,1.166
	c0.51,0.498,0.911,1.084,1.198,1.757c0.293,0.674,0.437,1.405,0.437,2.192c0,0.953-0.19,1.781-0.574,2.489s-0.911,1.294-1.582,1.757
	c1.298,0.441,2.282,1.144,2.956,2.105c0.674,0.963,1.011,2.232,1.011,3.811c0,1.137-0.229,2.106-0.677,2.906
	c-0.454,0.8-1.069,1.456-1.846,1.966c-0.779,0.511-1.695,0.882-2.75,1.113c-1.056,0.233-2.175,0.349-3.359,0.349h-6.787V302.53z
	 M281.364,304.548v7.238h5.707c0.557-0.022,1.072-0.146,1.548-0.365c0.476-0.221,0.882-0.506,1.219-0.853
	c0.335-0.349,0.596-0.737,0.782-1.166c0.185-0.429,0.278-0.876,0.278-1.341c0-0.464-0.082-0.904-0.243-1.322
	c-0.163-0.418-0.406-0.788-0.731-1.113c-0.325-0.324-0.719-0.586-1.184-0.782c-0.464-0.198-1.009-0.296-1.635-0.296H281.364z
	 M281.364,313.769v8.841h4.837c2.042,0,3.62-0.401,4.733-1.201s1.67-1.851,1.67-3.149c0-2.992-1.869-4.49-5.602-4.49H281.364z"/>
<path fill="#594A42" d="M311.011,302.216c1.532,0,3.012,0.267,4.438,0.8c1.427,0.534,2.684,1.288,3.776,2.263
	c1.09,0.975,1.96,2.164,2.61,3.567c0.647,1.403,0.973,2.976,0.973,4.716s-0.325,3.312-0.973,4.715
	c-0.65,1.403-1.521,2.599-2.61,3.584c-1.093,0.986-2.35,1.74-3.776,2.262s-2.906,0.784-4.438,0.784
	c-1.529,0-3.009-0.263-4.436-0.784s-2.692-1.275-3.794-2.262c-1.102-0.985-1.978-2.181-2.628-3.584
	c-0.647-1.403-0.973-2.975-0.973-4.715s0.325-3.313,0.973-4.716c0.65-1.403,1.526-2.593,2.628-3.567s2.367-1.729,3.794-2.263
	C308.002,302.483,309.482,302.216,311.011,302.216z M311.011,304.2c-1.298,0-2.534,0.216-3.706,0.645s-2.203,1.049-3.097,1.862
	c-0.894,0.811-1.605,1.797-2.139,2.957c-0.536,1.16-0.8,2.459-0.8,3.898c0,1.438,0.264,2.737,0.8,3.897
	c0.533,1.16,1.245,2.14,2.139,2.94c0.894,0.799,1.925,1.414,3.097,1.844s2.408,0.645,3.706,0.645c1.277,0,2.499-0.215,3.671-0.645
	s2.206-1.045,3.1-1.844c0.891-0.801,1.605-1.78,2.139-2.94s0.8-2.46,0.8-3.897c0-1.439-0.267-2.738-0.8-3.898
	s-1.248-2.146-2.139-2.957c-0.894-0.813-1.928-1.434-3.1-1.862S312.289,304.2,311.011,304.2z"/>
<path fill="#594A42" d="M327.649,313.562c0-1.648,0.287-3.174,0.87-4.576c0.577-1.404,1.392-2.617,2.435-3.638
	s2.285-1.821,3.724-2.401s3.026-0.869,4.767-0.869c1.16,0,2.247,0.15,3.255,0.452c1.011,0.302,1.901,0.655,2.681,1.061
	c0.776,0.407,1.433,0.825,1.966,1.254s0.905,0.771,1.113,1.025l-1.321,1.323c-0.278-0.256-0.662-0.563-1.148-0.922
	c-0.489-0.36-1.063-0.701-1.723-1.027c-0.662-0.324-1.406-0.604-2.229-0.834c-0.823-0.233-1.688-0.35-2.593-0.35
	c-1.321,0-2.569,0.222-3.741,0.661c-1.172,0.44-2.203,1.067-3.097,1.88s-1.6,1.805-2.121,2.977
	c-0.524,1.172-0.785,2.498-0.785,3.984c0,1.391,0.278,2.661,0.835,3.81c0.56,1.148,1.289,2.136,2.194,2.959s1.942,1.466,3.114,1.931
	s2.373,0.695,3.601,0.695c1.207,0,2.385-0.225,3.533-0.678s2.174-1.084,3.079-1.896s1.649-1.78,2.229-2.906
	c0.577-1.125,0.891-2.36,0.938-3.707h-11.728v-1.982h13.781v1.636c0,1.74-0.337,3.317-1.008,4.733
	c-0.674,1.414-1.567,2.621-2.681,3.617c-1.113,1-2.379,1.77-3.794,2.314s-2.865,0.819-4.351,0.819c-1.482,0-2.933-0.263-4.348-0.784
	c-1.418-0.521-2.675-1.275-3.776-2.262c-1.102-0.985-1.989-2.181-2.663-3.584S327.649,315.302,327.649,313.562z"/>
<path fill="#594A42" d="M363.596,302.53l8.525,22.028h-2.191l-2.646-6.717h-8.42l-2.543,6.717h-2.191l8.317-22.028H363.596z
	 M359.559,315.824h6.996c-0.302-0.813-0.598-1.59-0.888-2.332s-0.574-1.479-0.853-2.209c-0.278-0.731-0.563-1.475-0.853-2.229
	c-0.29-0.753-0.586-1.549-0.888-2.383L359.559,315.824z"/>
<path fill="#594A42" d="M377.585,302.53h3.618c1.532,0,3.015,0.231,4.456,0.696c1.436,0.464,2.701,1.154,3.791,2.069
	c1.09,0.917,1.966,2.042,2.628,3.376c0.662,1.335,0.993,2.871,0.993,4.611c0,1.717-0.325,3.271-0.976,4.663s-1.521,2.575-2.61,3.55
	s-2.35,1.729-3.776,2.263c-1.427,0.533-2.906,0.8-4.436,0.8h-3.688V302.53z M381.274,322.54c1.207,0,2.394-0.208,3.565-0.627
	c1.172-0.417,2.218-1.014,3.132-1.792c0.917-0.775,1.655-1.74,2.212-2.889s0.835-2.453,0.835-3.915c0-1.413-0.261-2.667-0.782-3.757
	c-0.524-1.092-1.225-2.008-2.106-2.75s-1.904-1.305-3.062-1.688c-1.16-0.384-2.379-0.574-3.656-0.574h-1.74v17.991H381.274z"/>
<path fill="#594A42" d="M409.739,302.216c1.532,0,3.012,0.267,4.438,0.8c1.427,0.534,2.684,1.288,3.776,2.263
	c1.09,0.975,1.96,2.164,2.61,3.567c0.647,1.403,0.973,2.976,0.973,4.716s-0.325,3.312-0.973,4.715
	c-0.65,1.403-1.521,2.599-2.61,3.584c-1.093,0.986-2.35,1.74-3.776,2.262s-2.906,0.784-4.438,0.784
	c-1.529,0-3.009-0.263-4.436-0.784s-2.692-1.275-3.794-2.262c-1.102-0.985-1.978-2.181-2.628-3.584s-0.973-2.975-0.973-4.715
	s0.322-3.313,0.973-4.716s1.526-2.593,2.628-3.567s2.367-1.729,3.794-2.263C406.73,302.483,408.209,302.216,409.739,302.216z
	 M409.739,304.2c-1.298,0-2.534,0.216-3.706,0.645s-2.203,1.049-3.097,1.862c-0.894,0.811-1.605,1.797-2.142,2.957
	c-0.533,1.16-0.8,2.459-0.8,3.898c0,1.438,0.267,2.737,0.8,3.897c0.536,1.16,1.248,2.14,2.142,2.94
	c0.894,0.799,1.925,1.414,3.097,1.844s2.408,0.645,3.706,0.645c1.277,0,2.499-0.215,3.671-0.645s2.206-1.045,3.1-1.844
	c0.891-0.801,1.605-1.78,2.139-2.94s0.8-2.46,0.8-3.897c0-1.439-0.267-2.738-0.8-3.898s-1.248-2.146-2.139-2.957
	c-0.894-0.813-1.928-1.434-3.1-1.862S411.016,304.2,409.739,304.2z"/>
<path fill="#594A42" d="M434.729,312.308c1.043,0.256,2.054,0.546,3.026,0.869c0.976,0.326,1.834,0.743,2.575,1.254
	c0.744,0.51,1.33,1.131,1.758,1.862c0.431,0.731,0.621,1.63,0.574,2.696c-0.067,1.09-0.404,2.014-1.008,2.768
	c-0.604,0.753-1.362,1.368-2.279,1.844c-0.917,0.475-1.948,0.807-3.097,0.992c-1.148,0.185-2.303,0.255-3.463,0.208
	c-1.113-0.069-2.089-0.261-2.924-0.574s-1.532-0.649-2.089-1.009s-0.987-0.702-1.286-1.025c-0.302-0.326-0.489-0.535-0.557-0.627
	l1.216-1.148c0.419,0.417,0.917,0.811,1.497,1.184c0.486,0.324,1.072,0.625,1.758,0.903c0.683,0.278,1.456,0.44,2.314,0.487
	c1.043,0.047,2.042-0.023,2.991-0.209c0.952-0.185,1.781-0.457,2.49-0.817c0.706-0.358,1.274-0.794,1.705-1.306
	c0.428-0.51,0.665-1.066,0.712-1.67c0.023-0.695-0.149-1.305-0.521-1.826c-0.372-0.523-0.899-0.98-1.582-1.375
	c-0.686-0.395-1.479-0.742-2.385-1.045c-0.905-0.301-1.878-0.578-2.924-0.835c-0.905-0.208-1.775-0.475-2.61-0.8
	s-1.559-0.725-2.174-1.201c-0.615-0.475-1.09-1.031-1.427-1.67c-0.337-0.637-0.483-1.386-0.437-2.244
	c0.07-0.929,0.325-1.758,0.768-2.488c0.439-0.731,1.037-1.341,1.79-1.827c0.756-0.487,1.632-0.853,2.628-1.097
	c0.999-0.244,2.077-0.33,3.237-0.262c0.882,0.07,1.682,0.204,2.402,0.4c0.718,0.197,1.345,0.413,1.878,0.645
	s0.964,0.459,1.289,0.678c0.322,0.222,0.545,0.367,0.659,0.436l-1.321,1.566c-0.442-0.301-0.929-0.579-1.462-0.836
	c-0.466-0.209-0.999-0.411-1.6-0.609c-0.604-0.195-1.242-0.317-1.916-0.364c-0.882-0.047-1.705,0.006-2.47,0.157
	c-0.765,0.15-1.427,0.388-1.983,0.713s-1.005,0.736-1.342,1.234c-0.334,0.5-0.516,1.086-0.539,1.758
	c-0.047,0.696,0.117,1.271,0.489,1.723c0.369,0.453,0.853,0.836,1.444,1.148c0.592,0.314,1.257,0.568,2.001,0.767
	c0.741,0.196,1.482,0.388,2.227,0.573H434.729z"/>
<path fill="#594A42" d="M475.373,309.767c1.066,0.21,2.106,0.547,3.114,1.01c1.011,0.465,1.916,1.033,2.716,1.705
	c0.8,0.674,1.444,1.433,1.931,2.279c0.486,0.848,0.732,1.736,0.732,2.663c0,1.206-0.267,2.256-0.803,3.149
	c-0.533,0.894-1.245,1.635-2.139,2.227s-1.928,1.039-3.097,1.34c-1.172,0.303-2.396,0.453-3.671,0.453
	c-1.207,0-2.282-0.121-3.22-0.366c-0.94-0.243-1.74-0.516-2.402-0.817s-1.178-0.592-1.547-0.87
	c-0.372-0.278-0.592-0.452-0.662-0.521l1.497-1.565c0.044,0.047,0.237,0.186,0.574,0.417c0.334,0.231,0.788,0.476,1.356,0.731
	c0.568,0.254,1.254,0.481,2.054,0.678c0.8,0.197,1.688,0.296,2.66,0.296c1.046,0,2.013-0.122,2.906-0.366
	c0.894-0.243,1.664-0.59,2.314-1.043s1.16-0.992,1.532-1.619c0.369-0.627,0.557-1.334,0.557-2.122c0-1.415-0.697-2.616-2.089-3.603
	c-1.392-0.985-3.316-1.77-5.777-2.35c-2.203-0.51-3.908-1.391-5.115-2.644s-1.808-2.714-1.808-4.386c0-1.135,0.231-2.15,0.694-3.044
	s1.078-1.636,1.846-2.228c0.765-0.592,1.658-1.045,2.678-1.357c1.022-0.313,2.089-0.47,3.202-0.47c0.533,0,1.096,0.047,1.688,0.14
	c0.592,0.092,1.184,0.225,1.775,0.399s1.166,0.396,1.723,0.662s1.043,0.574,1.462,0.921l-1.321,1.531
	c-0.929-0.557-1.787-0.975-2.575-1.252c-0.791-0.279-1.649-0.418-2.575-0.418c-1.022,0-1.934,0.133-2.733,0.4
	s-1.479,0.633-2.036,1.097s-0.987,1.003-1.286,1.617c-0.302,0.615-0.454,1.271-0.454,1.968c0,0.719,0.158,1.367,0.472,1.947
	s0.747,1.086,1.304,1.514c0.557,0.431,1.225,0.801,2.001,1.115C473.626,309.298,474.467,309.56,475.373,309.767z"/>
<path fill="#594A42" d="M513.271,320.834c-1.345,1.3-2.877,2.314-4.594,3.046c-1.717,0.73-3.551,1.096-5.499,1.096
	c-1.878,0-3.671-0.361-5.376-1.078c-1.705-0.72-3.208-1.705-4.506-2.959c-1.301-1.253-2.332-2.715-3.097-4.385
	c-0.768-1.67-1.148-3.457-1.148-5.359s0.369-3.689,1.113-5.359c0.741-1.671,1.752-3.125,3.026-4.367
	c1.277-1.241,2.771-2.221,4.488-2.94s3.551-1.079,5.499-1.079c1.925,0,3.747,0.365,5.464,1.097c1.717,0.729,3.249,1.723,4.594,2.976
	l-1.427,1.391c-1.184-1.113-2.505-1.988-3.967-2.627c-1.462-0.638-3.018-0.957-4.664-0.957s-3.202,0.313-4.661,0.94
	c-1.462,0.626-2.739,1.478-3.829,2.558c-1.09,1.078-1.954,2.336-2.593,3.775s-0.958,2.971-0.958,4.594
	c0,1.624,0.349,3.154,1.046,4.594c0.694,1.438,1.611,2.691,2.748,3.758c1.137,1.068,2.423,1.915,3.864,2.541
	c1.436,0.627,2.897,0.939,4.383,0.939c1.646,0,3.202-0.318,4.664-0.957c1.462-0.638,2.795-1.514,4.002-2.627L513.271,320.834z"/>
<path fill="#594A42" d="M122.12,249.01V101.499H93.444L81.325,81.864h100.831v19.635h-40.601v166.56L122.12,249.01z"/>
<polygon fill="#ED1C24" points="171.379,199.254 171.379,216.375 184.468,216.375 264.904,216.375 277.22,216.375 277.22,199.254 
	"/>
<path fill="#594A42" d="M231.803,80.522h-14.238l-38.099,96.407h90.441L231.803,80.522z M225.07,111.119l16.551,47.531h-33.485
	L225.07,111.119z"/>
<path fill="#594A42" d="M359.58,116.7c-0.642-3.082-1.893-5.711-3.753-7.893c-1.857-2.181-4.066-3.946-6.636-5.29
	c-2.563-1.349-5.329-2.342-8.271-2.982c-2.95-0.642-5.903-0.964-8.856-0.964c-4.491,0.13-9.012,0.995-13.567,2.597
	c-4.55,1.604-8.174,4.14-10.872,7.601c-1.409,1.797-2.376,3.754-2.883,5.868c-0.519,2.118-0.647,4.332-0.384,6.643
	c0.255,3.461,1.31,6.221,3.17,8.272c1.863,2.052,4.239,3.655,7.119,4.811c2.889,1.156,6.091,1.989,9.618,2.505
	c3.53,0.51,7.096,0.957,10.688,1.343c4.62,0.646,9.398,1.478,14.332,2.505c4.939,1.025,9.589,2.566,13.948,4.617
	c4.368,2.051,8.183,4.811,11.458,8.271c3.27,3.469,5.546,7.896,6.829,13.283c0.645,3.207,0.961,6.158,0.961,8.851
	c0,6.543-1.479,12.349-4.424,17.414c-2.953,5.071-6.803,9.334-11.546,12.795c-4.746,3.463-10.102,6.129-16.072,7.988
	c-5.965,1.857-11.962,2.791-17.991,2.791c-5.259,0-10.614-0.771-16.066-2.313c-5.458-1.535-10.491-3.81-15.105-6.831
	c-4.62-3.007-8.499-6.798-11.644-11.348c-3.144-4.556-5.033-9.844-5.672-15.879l-0.195-3.655l19.626-0.385l0.196,2.883v-0.771
	c0.381,3.083,1.503,5.811,3.363,8.18c1.863,2.38,4.169,4.362,6.926,5.966c2.757,1.61,5.804,2.827,9.141,3.661
	c3.343,0.833,6.548,1.25,9.624,1.25c3.589,0,7.184-0.485,10.772-1.441c3.595-0.964,6.832-2.407,9.724-4.333
	c2.883-1.926,5.229-4.232,7.02-6.93c1.799-2.689,2.695-5.773,2.695-9.234c0-1.28-0.196-2.821-0.58-4.617
	c-0.642-2.566-1.89-4.619-3.747-6.161c-1.863-1.541-4.137-2.791-6.829-3.751c-2.701-0.958-5.713-1.667-9.047-2.115
	c-3.343-0.445-6.671-0.869-10.008-1.25c-5.256-0.516-10.614-1.317-16.066-2.41c-5.455-1.087-10.424-2.852-14.915-5.29
	c-4.497-2.436-8.273-5.805-11.355-10.106c-3.076-4.295-4.871-9.968-5.383-17.029v0.193c-0.384-4.488,0-8.95,1.148-13.375
	c1.159-4.425,3.209-8.496,6.163-12.218c2.309-2.946,4.972-5.543,7.983-7.793c3.018-2.244,6.316-4.102,9.914-5.581
	c3.589-1.474,7.342-2.599,11.256-3.369c3.908-0.763,7.79-1.15,11.64-1.15c5.127,0,10.26,0.703,15.393,2.112
	c5.127,1.418,9.82,3.561,14.051,6.453c4.236,2.883,7.79,6.538,10.685,10.963c2.883,4.431,4.772,9.719,5.669,15.879L359.58,116.7z"/>
<path fill="#594A42" d="M384.019,149.603c0-9.621,1.758-18.533,5.288-26.751c3.53-8.203,8.18-15.394,13.954-21.546
	c5.9-6.158,12.826-11.033,20.78-14.625c7.957-3.592,16.556-5.388,25.79-5.388c7.69,0,14.941,1.15,21.747,3.463
	c6.797,2.306,12.891,5.612,18.275,9.905c5.388,4.302,10.037,9.527,13.957,15.687c3.908,6.16,6.823,13.021,8.751,20.59H493.32
	c-3.595-10.129-9.24-17.73-16.931-22.802c-7.705-5.065-16.55-7.601-26.558-7.601c-6.548,0-12.636,1.28-18.281,3.847
	s-10.585,6.097-14.821,10.583c-4.23,4.494-7.603,9.652-10.102,15.488c-2.505,5.842-3.753,12.226-3.753,19.15
	c0,6.806,1.248,13.087,3.753,18.861c2.499,5.769,5.871,10.901,10.102,15.396c4.236,4.487,9.176,8.017,14.821,10.583
	s11.733,3.847,18.281,3.847c10.263,0,19.403-2.791,27.416-8.372c8.021-5.581,13.764-13.499,17.227-23.766h19.055
	c-1.928,7.699-4.852,14.692-8.757,20.975c-3.914,6.29-8.634,11.679-14.145,16.166c-5.522,4.493-11.739,7.986-18.665,10.484
	c-6.932,2.505-14.309,3.754-22.131,3.754c-9.234,0-17.833-1.796-25.79-5.388c-7.954-3.593-14.88-8.465-20.78-14.625
	c-5.774-6.158-10.424-13.343-13.954-21.552C385.777,167.755,384.019,158.969,384.019,149.603z"/>
<rect x="643.039" y="81.864" fill="#ED1C24" width="243.155" height="243.154"/>
<polygon fill="#FFFFFF" points="697.959,267.441 697.959,288.997 714.456,288.997 815.76,288.997 831.272,288.997 831.272,267.441 
	"/>
<path fill="#FFFFFF" d="M774.065,117.889h-17.931L708.142,239.33h113.921L774.065,117.889z M765.6,156.43l20.836,59.866h-42.182
	L765.6,156.43z"/>
</svg>
