<?xml version="1.0" encoding="utf-8"?>
<!-- Generator: Adobe Illustrator 23.0.4, SVG Export Plug-In . SVG Version: 6.00 Build 0)  -->
<svg version="1.1" id="Layer_1" xmlns="http://www.w3.org/2000/svg" xmlns:xlink="http://www.w3.org/1999/xlink" x="0px" y="0px"
	 viewBox="0 0 512 189" style="enable-background:new 0 0 512 189;" xml:space="preserve">
<style type="text/css">
	.st0{fill:#00BCE7;}
	.st1{fill:#8EC850;}
	.st2{fill:#FFFFFF;}
	.st3{fill:#5B5D60;}
</style>
<g>
	<g>
		<g>
			<path class="st0" d="M49.46,137.02c0,0-1.83-2.82-3.05-4.71c0,0-8.19,3.56-21.58,4.71s-22.65-0.52-24.36,0.84
				s1.46,7.63,5.65,7.84s23.63-6.07,28.34-6.69C39.16,138.38,49.46,137.02,49.46,137.02z"/>
			<path class="st1" d="M111.53,0.16c-52.11,0-94.35,42.24-94.35,94.35s42.24,94.35,94.35,94.35s94.35-42.24,94.35-94.35
				S163.64,0.16,111.53,0.16z M110.8,168.76c-41.41,0-74.99-33.57-74.99-74.99s33.57-74.99,74.99-74.99s74.99,33.57,74.99,74.99
				S152.22,168.76,110.8,168.76z"/>
			<path class="st0" d="M179.29,2.86c-6.48,15.37-13.7,24.47-46.32,35.14c-25.88,8.46-54.38,8.89-76.44,30.33
				c-23.73,23.05-10.11,64-10.11,64c75.71-22.45,101.29-59.6,101.29-59.6c-23.91,38.9-98.24,64.31-98.24,64.31
				c40.43,28.66,74.19,3.66,74.19,3.66s-0.17-0.16-0.45-0.46c-1.13,0.65-2.27,1.28-3.44,1.86c-3.18,1.56-6.49,2.86-9.89,3.87
				c-3.41,1-6.9,1.72-10.42,2.16c-3.53,0.41-7.09,0.55-10.63,0.4c-3.54-0.17-7.07-0.63-10.53-1.37c-3.46-0.74-6.83-1.84-10.09-3.14
				c-3.24-1.36-6.37-2.96-9.28-4.89c6.47,2.59,13.09,4.49,19.84,5.45c3.37,0.47,6.76,0.75,10.15,0.79
				c3.39,0.03,6.78-0.14,10.14-0.54c3.36-0.4,6.69-1.05,9.97-1.88c3.28-0.85,6.5-1.94,9.66-3.21c1-0.41,2-0.84,2.98-1.29
				c-0.15-0.2-0.31-0.42-0.47-0.64c-2.17-2.62-3.48-5.98-3.48-9.65c0-8.36,6.77-15.13,15.13-15.13c3.55,0,6.81,1.22,9.39,3.27
				c1.5-3.21,4.75-5.45,8.53-5.45c1.77,0,3.43,0.5,4.84,1.35c1.46-1.95,8.73-12.26,17.4-34.83C187.93,38.48,179.29,2.86,179.29,2.86
				z"/>
			<path class="st2" d="M109.03,142.9c-3.28,0.84-6.61,1.49-9.97,1.88c-3.36,0.4-6.75,0.58-10.14,0.54
				c-3.39-0.04-6.78-0.32-10.15-0.79c-6.75-0.96-13.37-2.86-19.84-5.45c2.91,1.93,6.04,3.53,9.28,4.89
				c3.26,1.31,6.63,2.4,10.09,3.14c3.46,0.75,6.98,1.21,10.53,1.37c3.54,0.15,7.1,0.02,10.63-0.4c3.53-0.43,7.02-1.16,10.42-2.16
				c3.4-1.01,6.71-2.31,9.89-3.87c1.17-0.58,2.31-1.21,3.44-1.86c-0.37-0.39-0.92-1.01-1.54-1.82c-0.99,0.45-1.98,0.89-2.98,1.29
				C115.53,140.96,112.31,142.05,109.03,142.9z"/>
			<path class="st2" d="M49.26,102.04c0.11-3.51,0.87-6.96,2-10.26c1.15-3.3,2.65-6.47,4.42-9.47c1.77-3.01,3.78-5.87,6.02-8.55
				c1.12-1.34,2.28-2.64,3.53-3.87c1.25-1.23,2.59-2.36,3.99-3.41c5.62-4.2,12.07-7.08,18.58-9.5c6.54-2.4,13.24-4.31,19.94-6.16
				c13.42-3.61,26.95-6.9,39.88-11.95c6.44-2.53,12.74-5.59,18.2-9.85c2.71-2.14,5.18-4.6,7.18-7.41c2-2.81,3.47-5.99,4.34-9.33
				c0.03-0.11,0.14-0.18,0.25-0.15c0.1,0.03,0.17,0.13,0.15,0.23l0,0.02c-0.27,1.74-0.71,3.46-1.3,5.15
				c-0.61,1.68-1.39,3.31-2.32,4.86c-1.84,3.12-4.3,5.86-6.98,8.29c-2.7,2.43-5.7,4.46-8.78,6.31c-3.08,1.86-6.31,3.42-9.57,4.85
				c-1.62,0.72-3.25,1.4-4.89,2.07c-1.64,0.67-3.29,1.3-4.95,1.88c-3.32,1.18-6.66,2.29-10.01,3.35l-2.51,0.78l-2.52,0.73
				l-5.04,1.42l-10.04,2.79c-3.34,0.88-6.67,1.78-9.96,2.73c-3.29,0.94-6.53,2.01-9.75,3.06c-3.21,1.08-6.35,2.27-9.37,3.65
				c-3.01,1.4-5.97,2.88-8.65,4.72c-1.34,0.91-2.63,1.9-3.83,2.97l-0.9,0.81l-0.9,0.87c-0.59,0.59-1.18,1.19-1.75,1.8
				c-2.3,2.44-4.35,5.12-6.27,7.9c-3.75,5.59-6.83,11.81-7.79,18.69l0,0.02c-0.02,0.11-0.12,0.19-0.24,0.18
				C49.33,102.23,49.25,102.14,49.26,102.04z"/>
		</g>
		<g>
			<path class="st3" d="M305.36,178.73l-2.41-1.46c-1.51-0.92-2.58-1.83-3.22-2.72c-0.64-0.89-0.96-1.92-0.96-3.08
				c0-1.74,0.6-3.16,1.81-4.24c1.21-1.09,2.78-1.63,4.71-1.63c1.85,0,3.54,0.52,5.08,1.56v3.59c-1.59-1.53-3.31-2.3-5.15-2.3
				c-1.04,0-1.88,0.24-2.55,0.72c-0.67,0.48-1,1.09-1,1.84c0,0.66,0.24,1.28,0.73,1.86c0.49,0.58,1.28,1.19,2.36,1.82l2.42,1.43
				c2.7,1.61,4.05,3.66,4.05,6.15c0,1.77-0.59,3.22-1.78,4.32c-1.19,1.11-2.73,1.66-4.63,1.66c-2.18,0-4.18-0.67-5.97-2.02v-4.02
				c1.71,2.17,3.69,3.25,5.94,3.25c0.99,0,1.82-0.28,2.48-0.83c0.66-0.55,0.99-1.24,0.99-2.07
				C308.27,181.21,307.3,179.94,305.36,178.73z"/>
			<path class="st3" d="M315.82,184.47c0.54,0,1,0.18,1.38,0.55c0.38,0.37,0.57,0.82,0.57,1.36c0,0.53-0.19,0.97-0.56,1.33
				c-0.38,0.36-0.84,0.54-1.39,0.54c-0.54,0-0.99-0.18-1.36-0.54c-0.37-0.36-0.55-0.8-0.55-1.33c0-0.54,0.19-0.99,0.55-1.36
				C314.83,184.65,315.29,184.47,315.82,184.47z"/>
			<path class="st3" d="M328.9,165.75h2.23l9.92,22.25h-3.24l-2.95-6.56h-9.44l-2.76,6.56h-3.25L328.9,165.75z M333.56,178.62
				l-3.57-8.01l-3.31,8.01H333.56z"/>
			<path class="st3" d="M344.57,184.47c0.54,0,1,0.18,1.38,0.55c0.38,0.37,0.57,0.82,0.57,1.36c0,0.53-0.19,0.97-0.56,1.33
				c-0.38,0.36-0.84,0.54-1.39,0.54c-0.54,0-0.99-0.18-1.36-0.54c-0.37-0.36-0.55-0.8-0.55-1.33c0-0.54,0.19-0.99,0.55-1.36
				C343.57,184.65,344.03,184.47,344.57,184.47z"/>
			<path class="st3" d="M365.68,165.87h2.9V188h-6.16c-2.15,0-3.87-0.68-5.15-2.04c-1.28-1.36-1.92-3.19-1.92-5.48
				c0-2.14,0.67-3.91,2.02-5.29c1.35-1.38,3.06-2.07,5.16-2.07c0.97,0,2.03,0.21,3.17,0.62V165.87z M365.68,185.53v-9.23
				c-0.9-0.45-1.81-0.68-2.72-0.68c-1.44,0-2.58,0.47-3.43,1.41c-0.85,0.94-1.27,2.21-1.27,3.8c0,1.5,0.37,2.66,1.11,3.47
				c0.44,0.49,0.91,0.81,1.41,0.98c0.5,0.17,1.39,0.25,2.68,0.25H365.68z"/>
			<path class="st3" d="M384.9,180.97h-10.25c0.07,1.39,0.54,2.5,1.4,3.33c0.86,0.82,1.97,1.23,3.33,1.23c1.9,0,3.65-0.59,5.26-1.77
				v2.82c-0.89,0.59-1.77,1.01-2.64,1.27c-0.87,0.25-1.89,0.38-3.06,0.38c-1.6,0-2.9-0.33-3.9-1c-0.99-0.67-1.79-1.56-2.38-2.68
				c-0.6-1.12-0.89-2.43-0.89-3.9c0-2.22,0.63-4.02,1.88-5.41s2.89-2.08,4.89-2.08c1.93,0,3.47,0.68,4.62,2.03
				c1.15,1.35,1.73,3.16,1.73,5.43V180.97z M374.72,179.24h7.33c-0.07-1.15-0.42-2.04-1.03-2.66c-0.61-0.62-1.44-0.93-2.47-0.93
				c-1.04,0-1.88,0.31-2.54,0.93C375.35,177.2,374.92,178.09,374.72,179.24z"/>
			<path class="st3" d="M416.49,182.87v3.48c-2.32,1.27-5,1.9-8.04,1.9c-2.47,0-4.57-0.5-6.29-1.49c-1.72-0.99-3.08-2.36-4.09-4.1
				c-1-1.74-1.51-3.63-1.51-5.65c0-3.22,1.15-5.93,3.44-8.12c2.3-2.2,5.13-3.29,8.5-3.29c2.32,0,4.9,0.61,7.74,1.82v3.41
				c-2.59-1.48-5.11-2.22-7.58-2.22c-2.53,0-4.64,0.8-6.31,2.4s-2.51,3.6-2.51,6.01c0,2.43,0.82,4.42,2.47,5.99
				c1.65,1.56,3.75,2.34,6.32,2.34C411.32,185.34,413.94,184.51,416.49,182.87z"/>
			<path class="st3" d="M422.29,184.47c0.54,0,1,0.18,1.38,0.55c0.38,0.37,0.57,0.82,0.57,1.36c0,0.53-0.19,0.97-0.56,1.33
				c-0.38,0.36-0.84,0.54-1.39,0.54c-0.54,0-0.99-0.18-1.36-0.54c-0.37-0.36-0.55-0.8-0.55-1.33c0-0.54,0.19-0.99,0.55-1.36
				C421.3,184.65,421.75,184.47,422.29,184.47z"/>
			<path class="st3" d="M442.32,165.87h3.15l-9.35,22.22h-0.72l-9.53-22.22h3.19l6.65,15.54L442.32,165.87z"/>
			<path class="st3" d="M444.78,184.47c0.54,0,1,0.18,1.38,0.55c0.38,0.37,0.57,0.82,0.57,1.36c0,0.53-0.19,0.97-0.56,1.33
				c-0.38,0.36-0.84,0.54-1.39,0.54c-0.54,0-0.99-0.18-1.36-0.54c-0.37-0.36-0.55-0.8-0.55-1.33c0-0.54,0.19-0.99,0.55-1.36
				C443.79,184.65,444.24,184.47,444.78,184.47z"/>
			<path class="st3" d="M230.6,133.63h2.15l9.57,21.46h-3.13l-2.84-6.32h-9.1l-2.67,6.32h-3.14L230.6,133.63z M235.09,146.04
				l-3.44-7.73l-3.19,7.73H235.09z"/>
			<path class="st3" d="M244.33,133.75h2.78v21.33h-2.78V133.75z"/>
			<path class="st3" d="M249.15,143.26l5.22-5.13v2.9h4.44v2.5h-4.44v6.88c0,1.61,0.67,2.41,2,2.41c1,0,2.05-0.33,3.16-0.99v2.6
				c-1.07,0.6-2.23,0.9-3.5,0.9c-1.27,0-2.33-0.37-3.18-1.12c-0.27-0.22-0.48-0.48-0.66-0.76c-0.17-0.28-0.32-0.65-0.44-1.1
				c-0.12-0.45-0.18-1.32-0.18-2.59v-6.23h-2.44V143.26z"/>
			<path class="st3" d="M268.26,141c2.14,0,3.91,0.69,5.33,2.07c1.42,1.38,2.12,3.11,2.12,5.2c0,2.03-0.72,3.71-2.15,5.05
				c-1.44,1.34-3.24,2.01-5.42,2.01c-2.11,0-3.87-0.68-5.28-2.04c-1.42-1.36-2.12-3.06-2.12-5.09c0-2.06,0.72-3.77,2.15-5.14
				C264.3,141.69,266.1,141,268.26,141z M268.1,143.51c-1.33,0-2.43,0.44-3.28,1.31c-0.85,0.88-1.28,1.99-1.28,3.34
				c0,1.34,0.44,2.44,1.31,3.29c0.88,0.85,2,1.28,3.37,1.28c1.36,0,2.48-0.43,3.35-1.29c0.87-0.86,1.31-1.96,1.31-3.31
				c0-1.33-0.45-2.44-1.36-3.31C270.62,143.94,269.48,143.51,268.1,143.51z"/>
			<path class="st3" d="M304.81,133.75h2.9v21.33h-2.63l-14.26-16.43v16.43h-2.87v-21.33h2.47l14.39,16.57V133.75z"/>
			<path class="st3" d="M313.34,135.12c0.46,0,0.85,0.16,1.18,0.47s0.49,0.7,0.49,1.16c0,0.45-0.16,0.83-0.49,1.16
				c-0.33,0.33-0.72,0.49-1.18,0.49c-0.43,0-0.8-0.17-1.13-0.5c-0.33-0.33-0.49-0.72-0.49-1.15c0-0.43,0.16-0.81,0.49-1.14
				C312.53,135.29,312.91,135.12,313.34,135.12z M311.96,141.03h2.78v14.05h-2.78V141.03z"/>
			<path class="st3" d="M327.36,141.03h3.01l-6.2,14.29h-0.94l-6.35-14.29h3.04l3.79,8.64L327.36,141.03z"/>
			<path class="st3" d="M343.8,148.3h-9.88c0.07,1.34,0.52,2.41,1.35,3.21c0.83,0.79,1.9,1.19,3.21,1.19c1.83,0,3.52-0.57,5.07-1.71
				v2.72c-0.86,0.57-1.7,0.98-2.54,1.22c-0.84,0.24-1.83,0.37-2.96,0.37c-1.55,0-2.8-0.32-3.76-0.96c-0.96-0.64-1.72-1.5-2.3-2.59
				c-0.58-1.08-0.86-2.34-0.86-3.76c0-2.14,0.61-3.88,1.82-5.21c1.21-1.34,2.78-2.01,4.72-2.01c1.86,0,3.35,0.65,4.46,1.95
				c1.11,1.3,1.66,3.05,1.66,5.24V148.3z M333.98,146.64h7.07c-0.07-1.11-0.4-1.96-0.99-2.57c-0.59-0.6-1.38-0.9-2.38-0.9
				c-1,0-1.82,0.3-2.45,0.9C334.59,144.67,334.17,145.53,333.98,146.64z"/>
			<path class="st3" d="M346.87,133.75h2.78v21.33h-2.78V133.75z"/>
			<path class="st3" d="M374.33,148.3h-9.88c0.07,1.34,0.52,2.41,1.35,3.21c0.83,0.79,1.9,1.19,3.21,1.19
				c1.83,0,3.52-0.57,5.07-1.71v2.72c-0.86,0.57-1.7,0.98-2.54,1.22c-0.84,0.24-1.83,0.37-2.96,0.37c-1.55,0-2.8-0.32-3.76-0.96
				c-0.96-0.64-1.72-1.5-2.3-2.59c-0.58-1.08-0.86-2.34-0.86-3.76c0-2.14,0.61-3.88,1.82-5.21c1.21-1.34,2.78-2.01,4.72-2.01
				c1.86,0,3.35,0.65,4.46,1.95c1.11,1.3,1.66,3.05,1.66,5.24V148.3z M364.51,146.64h7.07c-0.07-1.11-0.4-1.96-0.99-2.57
				c-0.59-0.6-1.38-0.9-2.38-0.9c-1,0-1.82,0.3-2.45,0.9C365.12,144.67,364.7,145.53,364.51,146.64z"/>
			<path class="st3" d="M380.12,141.03v1.79c1.24-1.37,2.65-2.06,4.23-2.06c0.88,0,1.69,0.23,2.44,0.68
				c0.75,0.45,1.33,1.07,1.72,1.86c0.39,0.79,0.59,2.04,0.59,3.75v8.03h-2.78v-8c0-1.44-0.22-2.46-0.66-3.08
				c-0.44-0.62-1.17-0.92-2.2-0.92c-1.31,0-2.43,0.66-3.34,1.97v10.03h-2.84v-14.05H380.12z"/>
			<path class="st3" d="M407.33,146.14l-2.32-1.41c-1.46-0.89-2.49-1.76-3.11-2.62c-0.62-0.86-0.92-1.85-0.92-2.97
				c0-1.68,0.58-3.04,1.75-4.09c1.17-1.05,2.68-1.57,4.54-1.57c1.78,0,3.42,0.5,4.9,1.5v3.47c-1.54-1.48-3.19-2.22-4.96-2.22
				c-1,0-1.82,0.23-2.46,0.69c-0.64,0.46-0.96,1.05-0.96,1.77c0,0.64,0.24,1.24,0.71,1.79c0.47,0.56,1.23,1.14,2.28,1.76l2.33,1.38
				c2.6,1.55,3.9,3.53,3.9,5.94c0,1.71-0.57,3.1-1.72,4.17c-1.15,1.07-2.63,1.6-4.47,1.6c-2.11,0-4.03-0.65-5.76-1.94v-3.88
				c1.65,2.09,3.56,3.13,5.73,3.13c0.96,0,1.75-0.27,2.39-0.8c0.64-0.53,0.95-1.2,0.95-2C410.14,148.54,409.2,147.31,407.33,146.14z
				"/>
			<path class="st3" d="M427.96,148.3h-9.88c0.07,1.34,0.52,2.41,1.35,3.21c0.83,0.79,1.9,1.19,3.21,1.19
				c1.83,0,3.52-0.57,5.07-1.71v2.72c-0.86,0.57-1.7,0.98-2.54,1.22c-0.84,0.24-1.83,0.37-2.96,0.37c-1.55,0-2.8-0.32-3.76-0.96
				c-0.96-0.64-1.72-1.5-2.3-2.59c-0.58-1.08-0.86-2.34-0.86-3.76c0-2.14,0.61-3.88,1.82-5.21c1.21-1.34,2.78-2.01,4.72-2.01
				c1.86,0,3.35,0.65,4.46,1.95c1.11,1.3,1.66,3.05,1.66,5.24V148.3z M418.14,146.64h7.07c-0.07-1.11-0.4-1.96-0.99-2.57
				c-0.59-0.6-1.38-0.9-2.38-0.9c-1,0-1.82,0.3-2.45,0.9C418.75,144.67,418.33,145.53,418.14,146.64z"/>
			<path class="st3" d="M433.94,141.03v3.22l0.15-0.24c1.34-2.17,2.69-3.25,4.03-3.25c1.05,0,2.14,0.53,3.28,1.59l-1.47,2.44
				c-0.97-0.92-1.86-1.38-2.69-1.38c-0.9,0-1.67,0.43-2.33,1.28c-0.66,0.86-0.98,1.87-0.98,3.04v7.34h-2.79v-14.05H433.94z"/>
			<path class="st3" d="M452.89,141.03h3.01l-6.2,14.29h-0.94l-6.35-14.29h3.04l3.79,8.64L452.89,141.03z"/>
			<path class="st3" d="M459.42,135.12c0.46,0,0.85,0.16,1.18,0.47c0.33,0.32,0.49,0.7,0.49,1.16c0,0.45-0.16,0.83-0.49,1.16
				c-0.33,0.33-0.72,0.49-1.18,0.49c-0.43,0-0.8-0.17-1.13-0.5c-0.33-0.33-0.49-0.72-0.49-1.15c0-0.43,0.16-0.81,0.49-1.14
				C458.61,135.29,458.99,135.12,459.42,135.12z M458.04,141.03h2.78v14.05h-2.78V141.03z"/>
			<path class="st3" d="M475.37,151.8v2.75c-1.39,0.52-2.76,0.78-4.09,0.78c-2.2,0-3.95-0.65-5.26-1.96
				c-1.31-1.3-1.96-3.05-1.96-5.24c0-2.21,0.64-3.99,1.91-5.34c1.27-1.35,2.95-2.03,5.02-2.03c0.72,0,1.37,0.07,1.95,0.21
				c0.58,0.14,1.29,0.39,2.13,0.77v2.96c-1.4-0.9-2.71-1.34-3.91-1.34c-1.25,0-2.28,0.44-3.08,1.32c-0.8,0.88-1.21,2-1.21,3.37
				c0,1.43,0.43,2.58,1.31,3.42c0.87,0.84,2.04,1.27,3.52,1.27C472.76,152.73,473.99,152.42,475.37,151.8z"/>
			<path class="st3" d="M479.97,135.12c0.46,0,0.85,0.16,1.18,0.47s0.49,0.7,0.49,1.16c0,0.45-0.16,0.83-0.49,1.16
				c-0.33,0.33-0.72,0.49-1.18,0.49c-0.43,0-0.8-0.17-1.13-0.5c-0.33-0.33-0.49-0.72-0.49-1.15c0-0.43,0.16-0.81,0.49-1.14
				C479.17,135.29,479.54,135.12,479.97,135.12z M478.6,141.03h2.78v14.05h-2.78V141.03z"/>
			<path class="st3" d="M492.11,141c2.14,0,3.91,0.69,5.33,2.07c1.42,1.38,2.12,3.11,2.12,5.2c0,2.03-0.72,3.71-2.15,5.05
				c-1.44,1.34-3.24,2.01-5.42,2.01c-2.11,0-3.87-0.68-5.28-2.04c-1.42-1.36-2.12-3.06-2.12-5.09c0-2.06,0.72-3.77,2.15-5.14
				C488.16,141.69,489.95,141,492.11,141z M491.96,143.51c-1.33,0-2.43,0.44-3.28,1.31c-0.85,0.88-1.28,1.99-1.28,3.34
				c0,1.34,0.44,2.44,1.31,3.29c0.88,0.85,2,1.28,3.37,1.28c1.36,0,2.48-0.43,3.35-1.29c0.87-0.86,1.31-1.96,1.31-3.31
				c0-1.33-0.45-2.44-1.36-3.31C494.47,143.94,493.33,143.51,491.96,143.51z"/>
			<path class="st3" d="M501.96,154.07v-2.99c0.78,0.55,1.58,1,2.4,1.34s1.51,0.51,2.07,0.51c0.58,0,1.08-0.14,1.5-0.43
				c0.42-0.28,0.63-0.63,0.63-1.02c0-0.41-0.13-0.75-0.4-1.02c-0.27-0.27-0.85-0.66-1.75-1.17c-1.79-1-2.97-1.85-3.52-2.56
				c-0.55-0.71-0.83-1.48-0.83-2.31c0-1.08,0.42-1.96,1.26-2.64c0.84-0.68,1.92-1.02,3.25-1.02c1.37,0,2.78,0.39,4.23,1.16v2.75
				c-1.65-1-3-1.5-4.05-1.5c-0.54,0-0.98,0.11-1.31,0.34c-0.33,0.23-0.5,0.53-0.5,0.91c0,0.33,0.15,0.64,0.45,0.93
				c0.3,0.3,0.83,0.65,1.58,1.07l0.99,0.56c2.34,1.32,3.51,2.79,3.51,4.4c0,1.15-0.45,2.09-1.35,2.83c-0.9,0.74-2.06,1.11-3.47,1.11
				c-0.83,0-1.58-0.09-2.23-0.27C503.77,154.88,502.95,154.55,501.96,154.07z"/>
		</g>
		<g>
			<path class="st3" d="M274.45,1.1L274.45,1.1c-29.44,0-53.3,23.86-53.3,53.3v65.94h53.3c29.44,0,53.3-23.86,53.3-53.3V54.4
				C327.75,24.96,303.89,1.1,274.45,1.1z M315.92,65.63c0,22.9-18.56,41.46-41.46,41.46h-41.46V55.8c0-22.9,18.56-41.46,41.46-41.46
				h0c22.9,0,41.46,18.56,41.46,41.46V65.63z"/>
			<path class="st3" d="M355.12,25.14v55.52c0,20.82,9.3,29.7,21.79,29.7c13.74,0,22.76-9.16,22.76-29.7V25.14h12.21v54.69
				c0,28.73-15.13,40.39-35.4,40.39c-19.16,0-33.59-10.83-33.59-39.98V25.14H355.12z"/>
			<path class="st3" d="M511.84,70.95c0,32.06-19.57,49.28-43.45,49.28c-24.85,0-42.06-19.29-42.06-47.61
				c0-29.7,18.32-49.14,43.31-49.14C495.32,23.47,511.84,43.04,511.84,70.95z M439.11,72.33c0,20.13,10.83,38.03,29.98,38.03
				c19.16,0,29.98-17.63,29.98-38.87c0-18.74-9.72-38.17-29.84-38.17C449.1,33.33,439.11,51.93,439.11,72.33z"/>
		</g>
		<g>
			<path class="st3" d="M506.72,0.35c0.94,0,1.82,0.24,2.64,0.71c0.82,0.47,1.46,1.12,1.93,1.93S512,4.68,512,5.62
				c0,0.95-0.24,1.82-0.71,2.64c-0.47,0.81-1.11,1.45-1.93,1.92c-0.82,0.47-1.7,0.71-2.64,0.71c-0.95,0-1.83-0.23-2.65-0.7
				c-0.82-0.47-1.46-1.11-1.93-1.92c-0.47-0.81-0.71-1.69-0.71-2.64s0.24-1.83,0.71-2.64c0.47-0.81,1.12-1.46,1.93-1.93
				C504.89,0.58,505.78,0.35,506.72,0.35z M506.72,1.22c-1.21,0-2.25,0.43-3.11,1.29c-0.86,0.86-1.29,1.9-1.29,3.11
				c0,1.22,0.43,2.25,1.29,3.11s1.89,1.28,3.11,1.28c1.21,0,2.25-0.43,3.1-1.29c0.86-0.86,1.29-1.89,1.29-3.1s-0.43-2.25-1.29-3.11
				S507.93,1.22,506.72,1.22z M505.53,8.45h-0.92V2.78h1.96c0.69,0,1.19,0.05,1.47,0.16c0.29,0.11,0.52,0.29,0.69,0.55
				s0.26,0.53,0.26,0.82c0,0.43-0.15,0.8-0.45,1.1c-0.3,0.3-0.69,0.47-1.17,0.5c0.21,0.09,0.42,0.23,0.6,0.44
				c0.19,0.2,0.43,0.53,0.72,1l0.69,1.1h-1.12l-0.5-0.89c-0.36-0.64-0.64-1.05-0.85-1.24c-0.21-0.19-0.49-0.28-0.84-0.28h-0.55V8.45
				z M505.53,3.55v1.71h1.12c0.48,0,0.82-0.07,1.04-0.21c0.22-0.14,0.33-0.36,0.33-0.65c0-0.31-0.11-0.53-0.32-0.66
				s-0.59-0.19-1.12-0.19H505.53z"/>
		</g>
	</g>
</g>
</svg>
