<?xml version="1.0" encoding="utf-8"?>
<!-- Generator: Adobe Illustrator 22.0.0, SVG Export Plug-In . SVG Version: 6.00 Build 0)  -->
<svg version="1.1" id="Capa_1" xmlns="http://www.w3.org/2000/svg" xmlns:xlink="http://www.w3.org/1999/xlink" x="0px" y="0px"
	 viewBox="0 0 792 280.6" style="enable-background:new 0 0 792 280.6;" xml:space="preserve">
<style type="text/css">
	.st0{fill:#CB6120;}
	.st1{fill:#2D2B2B;}
</style>
<g>
	<g>
		<path class="st0" d="M143.5,57.6c0,0-78.5,91.2-108.9,131.1C70.8,126,107,63.4,143.5,0.1c36.6,63.3,72.7,125.9,108.9,188.6
			C222,148.8,143.5,57.6,143.5,57.6z"/>
		<g>
			<path class="st1" d="M232.6,220.1c0,0-61.1-103.6-89.1-145.3c47.7,54.4,95.4,108.8,143.5,163.8c-71.7,14.3-142.6,28.4-213.6,42.5
				C121,265.1,232.6,220.1,232.6,220.1z"/>
			<path class="st1" d="M54.5,220.1c0,0,61.1-103.6,89.1-145.3C95.8,129.2,48.2,183.6,0,238.6c71.7,14.3,142.6,28.4,213.6,42.5
				C166.1,265.1,54.5,220.1,54.5,220.1z"/>
		</g>
	</g>
	<g>
		<path class="st1" d="M446.4,39.8c11.9,3.9,21.5,11,28.8,21.4c5.9,8.4,9.9,17.5,12,27.3c2.1,9.8,3.2,19.1,3.2,28
			c0,22.5-4.5,41.5-13.5,57.1c-12.2,21-31.1,31.5-56.7,31.5h-72.9v-169h72.9C430.7,36.3,439.4,37.5,446.4,39.8z M381.7,65.5v110.3
			h32.6c16.7,0,28.3-8.2,34.9-24.7c3.6-9,5.4-19.8,5.4-32.2c0-17.2-2.7-30.4-8.1-39.6c-5.4-9.2-16.1-13.8-32.2-13.8H381.7z"/>
		<path class="st0" d="M538.7,205.1h-36.7l57.6-169H593l57.2,169h-37.7L575.8,76.8L538.7,205.1z"/>
		<path class="st1" d="M791.7,36.1v29.9h-50.6v139.1h-35.5V66.1h-50.8V36.1H791.7z"/>
	</g>
	<rect x="347.4" y="214.3" class="st1" width="444.3" height="7.4"/>
	<g>
		<path class="st0" d="M346.5,239c2-0.3,4.7-0.5,7.4-0.5c4.7,0,7.7,0.9,10,2.6c2.5,1.9,4.1,4.9,4.1,9.2c0,4.7-1.7,7.9-4,9.9
			c-2.6,2.1-6.5,3.1-11.3,3.1c-2.9,0-4.9-0.2-6.2-0.4V239z M352,258.8c0.5,0.1,1.3,0.1,1.9,0.1c5,0,8.3-2.7,8.3-8.5
			c0-5.1-3-7.7-7.7-7.7c-1.2,0-2,0.1-2.5,0.2V258.8z"/>
		<path class="st0" d="M376.8,238.6V263h-5.5v-24.3H376.8z"/>
		<path class="st0" d="M401.6,261.8c-1.7,0.6-4.9,1.4-8.1,1.4c-4.4,0-7.7-1.1-9.9-3.3c-2.2-2.1-3.4-5.3-3.4-8.9
			c0-8.1,5.9-12.7,13.9-12.7c3.1,0,5.6,0.6,6.8,1.2l-1.2,4.4c-1.3-0.6-3-1-5.6-1c-4.6,0-8.1,2.6-8.1,7.9c0,5.1,3.2,8,7.7,8
			c1.2,0,2.2-0.1,2.7-0.3v-5.1h-3.8V249h9.1V261.8z"/>
		<path class="st0" d="M411,238.6V263h-5.5v-24.3H411z"/>
		<path class="st0" d="M420.2,243.2h-6.6v-4.6h18.7v4.6h-6.6V263h-5.5V243.2z"/>
		<path class="st0" d="M438,256.7l-1.7,6.2h-5.7l7.4-24.3h7.2l7.6,24.3h-6l-1.9-6.2H438z M444.1,252.6l-1.5-5.2
			c-0.4-1.4-0.9-3.3-1.2-4.7h-0.1c-0.4,1.4-0.7,3.3-1.1,4.7l-1.4,5.2H444.1z"/>
		<path class="st0" d="M455.7,238.6h5.5v19.7h9.7v4.6h-15.2V238.6z"/>
		<path class="st0" d="M486.3,256.7l-1.7,6.2h-5.7l7.4-24.3h7.2l7.6,24.3h-6l-1.9-6.2H486.3z M492.5,252.6l-1.5-5.2
			c-0.4-1.4-0.9-3.3-1.2-4.7h-0.1c-0.4,1.4-0.7,3.3-1.1,4.7l-1.4,5.2H492.5z"/>
		<path class="st0" d="M504,239c2-0.3,4.7-0.5,7.4-0.5c4.7,0,7.7,0.9,10,2.6c2.5,1.9,4.1,4.9,4.1,9.2c0,4.7-1.7,7.9-4,9.9
			c-2.6,2.1-6.5,3.1-11.3,3.1c-2.9,0-4.9-0.2-6.2-0.4V239z M509.5,258.8c0.5,0.1,1.3,0.1,1.9,0.1c5,0,8.3-2.7,8.3-8.5
			c0-5.1-3-7.7-7.7-7.7c-1.2,0-2,0.1-2.5,0.2V258.8z"/>
		<path class="st0" d="M534.3,263l-7.8-24.3h6l3,10.3c0.8,2.9,1.6,5.7,2.2,8.7h0.1c0.6-2.9,1.4-5.8,2.2-8.6l3.1-10.4h5.9l-8.2,24.3
			H534.3z"/>
		<path class="st0" d="M565.6,252.7h-9v5.8h10v4.5h-15.5v-24.3h15v4.5h-9.5v5.1h9V252.7z"/>
		<path class="st0" d="M570.1,238.9c1.8-0.3,4.4-0.5,7.3-0.5c3.6,0,6.1,0.5,7.9,1.9c1.5,1.2,2.3,2.9,2.3,5.1c0,3.1-2.2,5.2-4.3,6
			v0.1c1.7,0.7,2.6,2.3,3.3,4.5c0.8,2.8,1.5,6,2,6.9h-5.6c-0.4-0.7-1-2.7-1.7-5.7c-0.7-3.1-1.7-3.9-4-3.9h-1.6v9.6h-5.5V238.9z
			 M575.5,249.4h2.2c2.7,0,4.4-1.4,4.4-3.5c0-2.2-1.5-3.4-4-3.4c-1.3,0-2.1,0.1-2.5,0.2V249.4z"/>
		<path class="st0" d="M595.9,243.2h-6.6v-4.6H608v4.6h-6.6V263h-5.5V243.2z"/>
		<path class="st0" d="M616.1,238.6V263h-5.5v-24.3H616.1z"/>
		<path class="st0" d="M620.7,257.3c1.4,0.8,3.8,1.5,6.1,1.5c2.5,0,3.9-1,3.9-2.6c0-1.5-1.2-2.4-4.1-3.4c-4-1.4-6.7-3.7-6.7-7.2
			c0-4.2,3.5-7.3,9.2-7.3c2.8,0,4.8,0.5,6.2,1.2l-1.2,4.4c-0.9-0.5-2.7-1.2-5.1-1.2c-2.4,0-3.5,1.1-3.5,2.3c0,1.6,1.3,2.2,4.5,3.4
			c4.3,1.6,6.3,3.8,6.3,7.3c0,4.1-3.1,7.5-9.8,7.5c-2.8,0-5.5-0.8-6.9-1.5L620.7,257.3z"/>
		<path class="st0" d="M645.2,238.6V263h-5.5v-24.3H645.2z"/>
		<path class="st0" d="M649.6,263v-24.3h6.4l5.1,8.9c1.4,2.6,2.9,5.6,4,8.3h0.1c-0.3-3.2-0.4-6.5-0.4-10.2v-7.1h5.1V263H664
			l-5.2-9.4c-1.4-2.6-3.1-5.7-4.2-8.6h-0.1c0.2,3.3,0.3,6.7,0.3,10.7v7.3H649.6z"/>
		<path class="st0" d="M694.5,261.8c-1.7,0.6-4.9,1.4-8.1,1.4c-4.4,0-7.7-1.1-9.9-3.3c-2.2-2.1-3.4-5.3-3.4-8.9
			c0-8.1,5.9-12.7,13.9-12.7c3.1,0,5.6,0.6,6.8,1.2l-1.2,4.4c-1.3-0.6-3-1-5.6-1c-4.6,0-8.1,2.6-8.1,7.9c0,5.1,3.2,8,7.7,8
			c1.2,0,2.2-0.1,2.7-0.3v-5.1h-3.8V249h9.1V261.8z"/>
		<path class="st0" d="M708.7,243.2h-6.6v-4.6h18.7v4.6h-6.6V263h-5.5V243.2z"/>
		<path class="st0" d="M737.9,252.7h-9v5.8h10v4.5h-15.5v-24.3h15v4.5h-9.5v5.1h9V252.7z"/>
		<path class="st0" d="M748,256.7l-1.7,6.2h-5.7l7.4-24.3h7.2l7.6,24.3h-6l-1.9-6.2H748z M754.2,252.6l-1.5-5.2
			c-0.4-1.4-0.9-3.3-1.2-4.7h-0.1c-0.4,1.4-0.7,3.3-1.1,4.7l-1.4,5.2H754.2z"/>
		<path class="st0" d="M786.3,253.6c-0.1-2.9-0.2-6.5-0.2-10H786c-0.8,3.1-1.8,6.6-2.7,9.4l-3,9.5H776l-2.6-9.4
			c-0.8-2.9-1.6-6.4-2.2-9.5h-0.1c-0.1,3.3-0.3,7-0.4,10.1l-0.5,9.2h-5.1l1.6-24.3h7.3l2.4,8.1c0.8,2.8,1.5,5.9,2.1,8.7h0.1
			c0.6-2.8,1.5-6,2.3-8.7l2.6-8.1h7.2L792,263h-5.3L786.3,253.6z"/>
	</g>
</g>
</svg>
