<?xml version="1.0" encoding="utf-8"?>
<!-- Generator: Adobe Illustrator 24.0.0, SVG Export Plug-In . SVG Version: 6.00 Build 0)  -->
<svg version="1.1" id="Capa_1" xmlns="http://www.w3.org/2000/svg" xmlns:xlink="http://www.w3.org/1999/xlink" x="0px" y="0px"
	 viewBox="0 0 444.96 191.28" style="enable-background:new 0 0 444.96 191.28;" xml:space="preserve">
<style type="text/css">
	.st0{fill:#DC2F34;}
	.st1{fill:#004996;}
	.st2{fill:url(#SVGID_1_);}
</style>
<g>
	<path d="M6.22,149.8h17.12l4.51,27.1h0.12l13.19-27.1h16.47l-6.22,40.77H40.77l4.95-31.31h-0.12l-15.17,31.31h-9.99l-5.15-31.31
		h-0.12l-4.54,31.31H0L6.22,149.8z"/>
	<path d="M111.65,166.74h16.88l-3.46,22.66c-7.16,1.75-12.32,1.87-16.06,1.87c-10.87,0-22.59-5.49-20.23-20.91
		c2.34-15.36,14.05-21.26,29-21.26c2.69,0,8.31,0.29,12.05,1.81l-2.23,8.88c-3.09-1.99-6.96-2.63-9.53-2.63
		c-8.82,0-16.63,3.68-18.08,13.2c-1.22,8,3.71,12.85,11.65,12.85c1.46,0,2.9-0.23,3.96-0.7l1.23-8.06
		C108.19,174.54,111.65,166.74,111.65,166.74z"/>
	<path d="M90.85,149.8c0,0-1.55,7.59-9.65,7.72l-9.4-0.01l-1.28,8.41l16.87,0c0,0-1.46,7.59-9.56,7.72l-8.49-0.01l-1.41,9.23
		l18.51,0.02c0,0-1.4,7.58-9.5,7.7l-21.05-0.01l6.22-40.77H90.85"/>
	<path d="M170.74,190.58l-9.49-40.77h-13.32l-21.7,40.77h11.04l15.92-32.36h0.12l2.72,15.95h-10.65c0,0-0.73,7.64,6.25,7.64h5.69
		l1.5,8.77H170.74z"/>
	<path d="M306.11,189.56c-3.32,0.76-7.02,1.64-12.77,1.64c-11.25,0-23.41-5.5-21.03-20.92c2.18-14.2,13.55-21.27,27.46-21.27
		c4.29,0,8.32,0.94,12.2,2.1l-2.26,8.82c-3.33-1.93-6.7-2.86-10.57-2.86c-7.98,0-14.05,5.61-15.22,13.21
		c-1.23,8,3.89,12.86,12.11,12.86c3.69,0,7.58-0.94,10.85-2.1L306.11,189.56z"/>
	<path d="M373.95,171.38c8.97-1.25,10.96-5.96,11.8-11.39c1.08-7.01-4.53-10.29-12.03-10.29h-20.08l-6.28,40.79h11.25l3.08-19.99
		l2.01-13.09h2.97c4.29,0,8.12,0.7,7.53,4.5c-0.71,4.62-7.18,4.86-10.81,4.86c-0.61,3.59,1.04,6.68,1.04,6.68l7.76,17.03h10.86
		L373.95,171.38z"/>
	<path d="M393.16,149.7h11.25l-6.27,40.79h-11.25L393.16,149.7z"/>
	<path d="M439.1,189.56c-3.32,0.76-7.02,1.64-12.77,1.64c-11.25,0-23.41-5.5-21.03-20.92c2.18-14.2,13.55-21.27,27.46-21.27
		c4.3,0,8.32,0.94,12.2,2.1l-2.27,8.82c-3.33-1.93-6.7-2.86-10.57-2.86c-7.98,0-14.05,5.61-15.21,13.21
		c-1.23,8,3.89,12.86,12.11,12.86c3.69,0,7.58-0.94,10.85-2.1L439.1,189.56z"/>
	<path d="M207.35,149.84c0,0-1.56,7.58-9.65,7.71l-9.4-0.01l-1.29,8.41l16.86,0c0,0-1.47,7.59-9.56,7.71l-8.49-0.01l-1.42,9.23h18.5
		c0,0-1.41,7.58-9.51,7.71l-21.03-0.01l6.27-40.74H207.35"/>
	<path d="M349.97,149.74c0,0-1.7,7.89-9.79,8.01l-3.32,0.01l-5.04,32.73h-11.25l5.03-32.73h-10.4l1.24-8.03H349.97z"/>
	<path d="M272.98,149.84c0,0-1.56,7.58-9.65,7.71l-9.39-0.01l-1.29,8.41l16.86,0c0,0-1.46,7.59-9.56,7.71l-8.49-0.01l-1.42,9.23
		h18.5c0,0-1.42,7.58-9.51,7.71l-21.03-0.01l6.27-40.74H272.98"/>
	<path d="M218.35,182.89h18.5c0,0-1.41,7.58-9.5,7.71l-21.03-0.01l6.26-40.71h10.85L218.35,182.89z"/>
</g>
<path class="st0" d="M242.06,108.47c0,0-154.4,40.7-74.27-29.07c0,0,78.27-59.08,158.36-79.39c0,0-98.45,19.07-174.47,74.46
	C75.67,129.85,97.08,159.38,242.06,108.47z"/>
<path class="st1" d="M268.16,30.08c0,0,154.4-40.7,74.27,29.07c0,0-78.27,59.07-158.36,79.39c0,0,98.45-19.07,174.47-74.46
	C434.55,8.69,413.14-20.84,268.16,30.08z"/>
<radialGradient id="SVGID_1_" cx="252.0111" cy="70.998" r="34.5134" fx="229.3609" fy="52.198" gradientUnits="userSpaceOnUse">
	<stop  offset="0.1278" style="stop-color:#000000;stop-opacity:0"/>
	<stop  offset="0.1631" style="stop-color:#000000;stop-opacity:0.0453"/>
	<stop  offset="0.2342" style="stop-color:#000000;stop-opacity:0.1365"/>
	<stop  offset="0.3335" style="stop-color:#000000;stop-opacity:0.2639"/>
	<stop  offset="0.3908" style="stop-color:#000000;stop-opacity:0.3374"/>
	<stop  offset="0.5998" style="stop-color:#000000;stop-opacity:0.65"/>
	<stop  offset="0.6114" style="stop-color:#000000;stop-opacity:0.6645"/>
	<stop  offset="0.6417" style="stop-color:#000000;stop-opacity:0.7023"/>
	<stop  offset="0.673" style="stop-color:#000000;stop-opacity:0.7412"/>
	<stop  offset="0.7046" style="stop-color:#000000;stop-opacity:0.7807"/>
	<stop  offset="0.7367" style="stop-color:#000000;stop-opacity:0.8207"/>
	<stop  offset="0.7695" style="stop-color:#000000;stop-opacity:0.8616"/>
	<stop  offset="0.8034" style="stop-color:#000000;stop-opacity:0.904"/>
	<stop  offset="0.8404" style="stop-color:#000000;stop-opacity:0.95"/>
	<stop  offset="0.86" style="stop-color:#0B0A0A;stop-opacity:0.95"/>
	<stop  offset="0.8777" style="stop-color:#242221;stop-opacity:0.95"/>
	<stop  offset="0.8948" style="stop-color:#3A3836;stop-opacity:0.95"/>
	<stop  offset="0.9113" style="stop-color:#53514F;stop-opacity:0.95"/>
	<stop  offset="0.9276" style="stop-color:#72706F;stop-opacity:0.95"/>
	<stop  offset="0.9436" style="stop-color:#969594;stop-opacity:0.95"/>
	<stop  offset="0.9592" style="stop-color:#C1C0C0;stop-opacity:0.95"/>
	<stop  offset="0.9722" style="stop-color:#EBEBEB;stop-opacity:0.95"/>
</radialGradient>
<circle class="st2" cx="250.47" cy="71.31" r="32.2"/>
</svg>
