<?xml version="1.0" encoding="utf-8"?>
<!-- Generator: Adobe Illustrator 15.1.0, SVG Export Plug-In . SVG Version: 6.00 Build 0)  -->
<!DOCTYPE svg PUBLIC "-//W3C//DTD SVG 1.1//EN" "http://www.w3.org/Graphics/SVG/1.1/DTD/svg11.dtd">
<svg version="1.1" id="Layer_1" xmlns="http://www.w3.org/2000/svg" xmlns:xlink="http://www.w3.org/1999/xlink" x="0px" y="0px"
	 width="81.81px" height="47.144px" viewBox="0 0 81.81 47.144" enable-background="new 0 0 81.81 47.144" xml:space="preserve">
<g>
	<path fill-rule="evenodd" clip-rule="evenodd" fill="#007DC3" d="M76.623,40.994c-3.557,5.058-16.522,4.364-27.676,2.135
		C26.658,38.672,11.942,40.142,1,45.373c0.311,0.917,1.316,1.286,3.03,0.557c2.036-0.867,18.748-6.92,44.969-1.4
		C71.875,49.346,82.793,43.17,76.623,40.994L76.623,40.994z"/>
	<g>
		<g>
			<path fill="#9B5BA5" d="M8.192,37.079c-0.446-0.502-0.868-1.141-1.268-1.915c-0.4-0.773-0.779-1.626-1.14-2.559
				c-0.36-0.933-0.701-1.905-1.022-2.917c-0.321-1.011-0.622-2.006-0.903-2.985c-0.282-0.979-0.55-1.901-0.806-2.768
				c-0.256-0.866-0.495-1.623-0.717-2.271c0-0.251,0.104-0.4,0.314-0.446c0.21-0.046,0.413-0.043,0.61,0.009
				c0.235,0.516,0.478,1.128,0.726,1.835c0.249,0.708,0.511,1.465,0.786,2.271c0.275,0.807,0.554,1.65,0.836,2.53
				c0.281,0.879,0.569,1.742,0.864,2.588c0.295,0.847,0.593,1.664,0.895,2.45C7.668,33.69,7.976,34.4,8.29,35.036
				c0.158-0.238,0.318-0.625,0.482-1.161s0.337-1.173,0.521-1.915c0.184-0.741,0.38-1.557,0.59-2.45
				c0.209-0.892,0.442-1.815,0.697-2.768c0.255-0.951,0.537-1.91,0.845-2.876c0.308-0.965,0.646-1.891,1.012-2.778
				c0.183,0,0.347,0.093,0.491,0.278c0.145,0.186,0.216,0.371,0.216,0.556c0,0.014-0.002,0.024-0.01,0.03
				c-0.006,0.007-0.01,0.017-0.01,0.03v0.04c-0.026,0.04-0.091,0.324-0.196,0.853c-0.104,0.53-0.288,1.353-0.549,2.47
				c-0.263,1.118-0.629,2.55-1.101,4.295c-0.472,1.746-1.087,3.855-1.848,6.329c0,0.119-0.039,0.251-0.117,0.396
				c-0.079,0.146-0.177,0.275-0.294,0.387c-0.118,0.112-0.25,0.202-0.393,0.268C8.48,37.085,8.336,37.105,8.192,37.079z"/>
			<path fill="#9B5BA5" d="M14.658,27.582c0.027-0.096,0.082-0.18,0.165-0.249c0.082-0.069,0.174-0.111,0.277-0.124
				c0.103-0.014,0.215,0.007,0.339,0.062c0.123,0.056,0.239,0.159,0.349,0.311c0.042,1.466,0.072,2.963,0.093,4.49
				c0.021,1.528,0.017,3.046-0.01,4.553c-0.083,0.11-0.192,0.211-0.329,0.3c-0.137,0.091-0.267,0.148-0.391,0.177
				c-0.123,0.027-0.229,0.01-0.318-0.052c-0.089-0.062-0.121-0.189-0.093-0.384L14.658,27.582z"/>
			<path fill="#9B5BA5" d="M20.369,28.722c-0.233,0-0.459,0.021-0.678,0.062c-0.22,0.041-0.438,0.087-0.657,0.135
				c-0.219,0.049-0.435,0.094-0.647,0.135s-0.436,0.063-0.667,0.063c-0.028,0-0.079,0.003-0.153,0.01
				c-0.076,0.007-0.155,0.004-0.237-0.01c-0.083-0.014-0.158-0.039-0.226-0.073C17.034,29.009,17,28.951,17,28.868
				c0-0.25,0.075-0.45,0.226-0.602c0.151-0.152,0.342-0.276,0.575-0.373c0.233-0.097,0.493-0.173,0.78-0.228
				c0.288-0.055,0.562-0.121,0.822-0.197c0.261-0.076,0.493-0.169,0.698-0.28c0.206-0.11,0.35-0.27,0.431-0.477
				c0.083-0.194,0.147-0.474,0.195-0.84s0.089-0.774,0.124-1.224c0.033-0.449,0.061-0.919,0.082-1.41
				c0.021-0.491,0.034-0.968,0.041-1.431c0.007-0.463,0.011-0.889,0.011-1.276c0-0.387,0.006-0.698,0.021-0.934
				c0.164-0.262,0.335-0.411,0.513-0.446c0.178-0.034,0.397,0.039,0.658,0.218c0,1.175-0.023,2.34-0.072,3.495
				c-0.048,1.154-0.024,2.361,0.072,3.619l4.684-1.43c0.192-0.056,0.339-0.07,0.442-0.042c0.103,0.027,0.174,0.079,0.216,0.155
				c0.041,0.076,0.065,0.163,0.072,0.26c0.006,0.097,0.01,0.194,0.01,0.29c0,0.208-0.106,0.388-0.318,0.539
				c-0.212,0.153-0.486,0.291-0.822,0.416c-0.336,0.125-0.711,0.239-1.13,0.342c-0.417,0.104-0.835,0.204-1.253,0.301
				c-0.418,0.097-0.815,0.193-1.192,0.291c-0.376,0.097-0.688,0.201-0.935,0.311c-0.123,0.677-0.202,1.455-0.236,2.333
				c-0.034,0.878-0.01,1.753,0.072,2.624c0.082,0.871,0.229,1.677,0.441,2.417c0.212,0.74,0.513,1.306,0.904,1.701
				c0.39,0.394,0.873,0.553,1.448,0.476c0.575-0.076,1.259-0.493,2.054-1.254c0.014,0.014,0.075,0.097,0.185,0.249
				c0.109,0.152,0.3,0.489,0.3,0.489s-0.088,0.108-0.095,0.116c-0.828,0.953-1.584,1.528-2.271,1.728
				c-0.691,0.201-1.304,0.142-1.837-0.176c-0.535-0.318-0.99-0.85-1.367-1.597c-0.377-0.747-0.671-1.587-0.883-2.52
				c-0.213-0.934-0.346-1.908-0.401-2.925C20.211,30.558,20.246,29.607,20.369,28.722z"/>
			<path fill="#9B5BA5" d="M33.824,33.369c-0.301,0.483-0.685,0.933-1.15,1.348c-0.467,0.414-0.956,0.754-1.469,1.016
				c-0.514,0.263-1.027,0.433-1.541,0.508c-0.514,0.077-0.973,0.018-1.376-0.176c-0.404-0.193-0.729-0.542-0.976-1.047
				c-0.246-0.504-0.355-1.207-0.329-2.105c-0.041-0.635,0.052-1.261,0.278-1.877c0.226-0.614,0.538-1.182,0.935-1.701
				c0.396-0.518,0.862-0.965,1.396-1.337c0.534-0.374,1.096-0.629,1.685-0.768c0.588-0.138,1.184-0.142,1.787-0.01
				c0.603,0.131,1.171,0.438,1.705,0.922c0.014,0.788,0.027,1.507,0.041,2.157c0.014,0.651,0.052,1.294,0.114,1.93
				c0.061,0.636,0.153,1.289,0.276,1.959c0.124,0.671,0.301,1.421,0.534,2.251c0.151,0.276,0.182,0.536,0.093,0.778
				c-0.089,0.241-0.219,0.417-0.39,0.528c-0.172,0.111-0.356,0.135-0.555,0.073c-0.199-0.063-0.333-0.267-0.401-0.611L33.824,33.369
				z M28.401,32.684c0.068,0.733,0.229,1.255,0.483,1.566c0.253,0.312,0.554,0.467,0.903,0.467c0.35,0,0.72-0.136,1.109-0.405
				c0.391-0.27,0.75-0.623,1.079-1.058c0.329-0.436,0.599-0.927,0.811-1.473c0.212-0.546,0.325-1.096,0.339-1.649
				c0-0.179-0.017-0.373-0.052-0.58c-0.034-0.208-0.091-0.401-0.174-0.582c-0.083-0.179-0.188-0.328-0.318-0.446
				c-0.13-0.117-0.298-0.176-0.503-0.176c-0.521,0-1.003,0.134-1.448,0.405c-0.445,0.27-0.832,0.618-1.161,1.047
				c-0.329,0.428-0.589,0.898-0.78,1.41C28.497,31.722,28.401,32.214,28.401,32.684z"/>
			<path fill="#9B5BA5" d="M36.721,35.173c0.711,0,1.317-0.132,1.817-0.395c0.499-0.261,0.969-0.642,1.407-1.14
				c0-0.083-0.045-0.353-0.135-0.809c-0.088-0.457-0.188-1.03-0.297-1.722c-0.109-0.691-0.216-1.462-0.319-2.313
				c-0.103-0.85-0.165-1.717-0.184-2.603c-0.021-0.885,0.011-1.742,0.092-2.572c0.082-0.83,0.253-1.569,0.513-2.219
				c0.26-0.65,0.626-1.172,1.099-1.566c0.474-0.394,1.079-0.591,1.818-0.591c0.63,0,1.119,0.194,1.469,0.581
				s0.592,0.899,0.729,1.535c0.137,0.636,0.181,1.362,0.134,2.178c-0.047,0.816-0.158,1.659-0.328,2.53
				c-0.172,0.871-0.385,1.732-0.638,2.583c-0.253,0.85-0.513,1.625-0.78,2.322c-0.267,0.699-0.528,1.286-0.78,1.763
				c-0.254,0.477-0.463,0.777-0.626,0.902c0.259,0.843,0.543,1.524,0.852,2.043c0.308,0.519,0.617,0.912,0.924,1.183
				c0.309,0.27,0.613,0.448,0.915,0.538s0.579,0.139,0.832,0.145c0.254,0.008,0.476,0,0.667-0.02
				c0.193-0.021,0.337-0.011,0.433,0.03c0.15,0.07,0.305,0.18,0.462,0.332c0.157,0.152,0.257,0.312,0.298,0.477
				c0.041,0.167-0.014,0.311-0.164,0.436s-0.46,0.187-0.925,0.187c-0.794,0-1.476-0.097-2.043-0.291
				c-0.57-0.193-1.058-0.481-1.47-0.86c-0.411-0.38-0.766-0.85-1.067-1.411c-0.301-0.56-0.583-1.213-0.842-1.96
				c-0.356,0.374-0.668,0.681-0.934,0.923c-0.267,0.242-0.538,0.436-0.813,0.581c-0.273,0.146-0.575,0.25-0.904,0.312
				c-0.328,0.061-0.718,0.093-1.17,0.093L36.721,35.173z M42.452,20.446c-0.466,0.069-0.846,0.292-1.14,0.664
				c-0.295,0.374-0.528,0.844-0.699,1.411c-0.17,0.567-0.287,1.199-0.348,1.898c-0.063,0.698-0.09,1.407-0.083,2.125
				c0.006,0.719,0.041,1.421,0.103,2.106c0.061,0.684,0.128,1.285,0.205,1.804c0.074,0.519,0.15,0.934,0.225,1.245
				c0.076,0.311,0.127,0.453,0.154,0.425c0.397-0.276,0.757-0.768,1.079-1.473c0.322-0.706,0.599-1.496,0.833-2.375
				c0.232-0.878,0.406-1.791,0.523-2.737s0.167-1.805,0.154-2.573c-0.013-0.766-0.103-1.389-0.268-1.866
				C43.027,20.623,42.781,20.405,42.452,20.446z"/>
		</g>
		<path fill="#007DC3" d="M14.93,22.746c0.448-0.839,1.486-1.152,2.317-0.699c0.831,0.453,1.141,1.5,0.692,2.339
			c-0.656,1.229-2.994,1.966-2.994,1.966S14.245,24.026,14.93,22.746z"/>
	</g>
	<g>
		<path fill="#007DC3" d="M2.33,17.292V2.35h5.887v0.769H4.027v5.294h3.659v0.79H4.027v8.09H2.33z"/>
		<path fill="#007DC3" d="M13.106,2.222c2.315,0,4.287,2.861,4.287,7.6s-1.984,7.599-4.287,7.599c-2.314,0-4.274-2.86-4.274-7.599
			C8.832,6.022,10.424,2.222,13.106,2.222z M10.456,9.713c0,8.322,5.208,8.342,5.208,0C15.664,1.537,10.456,1.329,10.456,9.713z"/>
		<path fill="#007DC3" d="M18.833,17.292V2.35h3.323c2.157,0,3.907,2.135,3.907,4.739c0,2.177-1.255,4.034-2.917,4.568l2.333,5.635
			h-1.785l-2.263-5.486H20.53v5.486H18.833z M24.366,7.089c0-2.135-1.449-3.949-3.836-3.949v7.898
			C22.952,10.953,24.366,9.181,24.366,7.089z"/>
		<path fill="#007DC3" d="M27.478,17.292V2.35h0.884l3.394,12.594L35.133,2.35h0.884v14.942H34.32V9.138l-2.387,8.154h-0.354
			l-2.404-8.197v8.197H27.478z"/>
		<path fill="#007DC3" d="M41.038,2.35h1.061l3.641,14.942h-1.732l-0.689-3.031h-3.482l-0.671,3.031h-1.733L41.038,2.35z
			 M41.55,6.961l-1.537,6.51h3.129L41.55,6.961z"/>
	</g>
	<g>
		<path fill="#007DC3" d="M62.788,22.279c2.221,0.637,6.003-2.796,8.881-5.911c-2.339-2.379-4.215-5.511-3.654-9.667
			C68.565,2.604,71.9,1.5,71.377,1.032c-0.338-0.302-5.949,1.553-11.069,5.061C60.167,13.046,60.474,21.614,62.788,22.279z
			 M64.181,14.588c1.124-0.289,2.306,0.556,2.639,1.887c0.333,1.331-0.307,2.642-1.431,2.931c-1.123,0.288-2.304-0.556-2.639-1.886
			C62.417,16.189,63.058,14.877,64.181,14.588z"/>
		<path fill="#007DC3" d="M59.831,25.034c1.41-1.369-1.885-6.34-0.82-18.005c-1.541,1.169-2.991,2.49-4.176,3.95
			c-1.842,2.269-3.453,4.811-4.59,7.463C54.943,22.506,59.116,25.728,59.831,25.034z"/>
		<path fill="#007DC3" d="M71.924,16.627c-0.048-0.046-0.093-0.094-0.139-0.141c-3.408,4.373-7.869,10.423-7.796,12.044
			c0.063,1.368,0.383,6.705,0.539,12.132c0.968-0.019,1.749-0.122,2.236-0.251c6.111-1.623,10.584-6.441,11.395-11.699
			C78.97,23.458,74.379,19.037,71.924,16.627z"/>
		<path fill="#007DC3" d="M49.86,19.396c-1.827,4.787-2.045,9.862,0.744,14.285c2.68,4.247,6.826,6.041,10.322,6.681
			C62.263,30.258,57.757,26.442,49.86,19.396z"/>
	</g>
	<path fill-rule="evenodd" clip-rule="evenodd" fill="#9B5BA5" d="M80.411,4.94c-1.359-2.562-4.636-3.373-7.319-1.812
		c-2.684,1.563-3.756,4.905-2.396,7.467c1.359,2.562,4.635,3.373,7.318,1.81C80.697,10.845,81.769,7.502,80.411,4.94z"/>
</g>
</svg>
