<?xml version="1.0" encoding="utf-8"?>
<!-- Generator: Adobe Illustrator 24.0.0, SVG Export Plug-In . SVG Version: 6.00 Build 0)  -->
<svg version="1.1" id="Capa_1" xmlns="http://www.w3.org/2000/svg" xmlns:xlink="http://www.w3.org/1999/xlink" x="0px" y="0px"
	 viewBox="0 0 373.21 107.5" style="enable-background:new 0 0 373.21 107.5;" xml:space="preserve">
<style type="text/css">
	.st0{clip-path:url(#SVGID_2_);fill:url(#SVGID_3_);}
</style>
<g>
	<g>
		<g>
			<path d="M135.36,75.8l-0.09-42.04l-15.52,35.58h-10.72L93.5,33.75V75.8H78.81V11.02h18.02l17.56,38.53l17.56-38.53h17.93V75.8
				H135.36z"/>
			<path d="M176.3,11.67c0,4.99-3.51,8.5-8.41,8.5c-4.9,0-8.41-3.51-8.41-8.5c0-4.9,3.51-8.41,8.41-8.41
				C172.78,3.26,176.3,6.77,176.3,11.67z M159.85,75.8V25.99h15.89V75.8H159.85z"/>
			<path d="M186.09,75.8V7.23h15.99V75.8H186.09z"/>
			<path d="M231,75.8l-25.13-64.68h17.56l16.54,47.59l16.54-47.59h16.91L248,75.8H231z"/>
			<path d="M321.19,50.85c0,15.34-10.9,25.5-27.17,25.5c-16.36,0-27.26-10.16-27.26-25.5c0-15.34,10.9-25.41,27.26-25.41
				C310.28,25.44,321.19,35.51,321.19,50.85z M282.84,51.03c0,7.76,4.53,12.94,11.18,12.94c6.56,0,11.09-5.17,11.09-12.94
				c0-7.67-4.53-12.94-11.09-12.94C287.37,38.1,282.84,43.36,282.84,51.03z"/>
			<path d="M354.64,25.99h17.46L356.3,50.2l16.91,25.6h-18.39l-9.06-15.62L335.6,75.8h-17.56l17-25.5l-15.89-24.3h18.3l8.32,14.32
				L354.64,25.99z"/>
		</g>
		<g>
			<path d="M86.6,102.92v2.06H76.12V86.01h2.17v16.91H86.6z"/>
			<path d="M110.96,95.49c0,5.34-4.39,9.59-9.92,9.59c-5.55,0-9.94-4.25-9.94-9.59c0-5.37,4.39-9.54,9.94-9.54
				C106.57,85.96,110.96,90.16,110.96,95.49z M93.3,95.49c0,4.17,3.52,7.51,7.75,7.51c4.23,0,7.7-3.33,7.7-7.51
				c0-4.17-3.47-7.48-7.7-7.48C96.82,88.01,93.3,91.32,93.3,95.49z"/>
			<path d="M132.26,88.72l-1.3,1.65c-1.46-1.49-3.52-2.38-5.61-2.38c-4.28,0-7.72,3.31-7.72,7.48c0,4.15,3.44,7.48,7.72,7.48
				c2.09,0,4.12-0.87,5.61-2.28l1.33,1.49c-1.87,1.76-4.42,2.93-7.05,2.93c-5.47,0-9.81-4.25-9.81-9.62c0-5.31,4.39-9.51,9.89-9.51
				C127.93,85.96,130.45,87.01,132.26,88.72z"/>
			<path d="M154.45,97.17c0,4.93-2.98,7.91-7.94,7.91c-4.99,0-7.99-2.98-7.99-7.91V86.01h2.17v11.16c0,3.68,2.22,5.83,5.83,5.83
				c3.6,0,5.77-2.14,5.77-5.83V86.01h2.17V97.17z"/>
			<path d="M168.3,88.1v16.88h-2.17V88.1h-6.18v-2.09h14.55v2.09H168.3z"/>
			<path d="M197.27,95.49c0,5.34-4.39,9.59-9.92,9.59c-5.55,0-9.94-4.25-9.94-9.59c0-5.37,4.39-9.54,9.94-9.54
				C192.88,85.96,197.27,90.16,197.27,95.49z M179.6,95.49c0,4.17,3.52,7.51,7.75,7.51c4.23,0,7.7-3.33,7.7-7.51
				c0-4.17-3.47-7.48-7.7-7.48C183.12,88.01,179.6,91.32,179.6,95.49z"/>
			<path d="M212.47,98.94c-0.41,0.03-0.84,0.05-1.27,0.05h-5.04v5.99h-2.17V86.01h7.21c4.74,0,7.48,2.33,7.48,6.37
				c0,3.14-1.52,5.26-4.25,6.15l4.44,6.45h-2.47L212.47,98.94z M211.19,96.9c3.44,0,5.39-1.52,5.39-4.47c0-2.87-1.95-4.34-5.39-4.34
				h-5.04v8.81H211.19z"/>
			<path d="M228.51,88.1v6.23h9.57v2.09h-9.57v6.5h11.06v2.06h-13.22V86.01h12.87v2.09H228.51z"/>
			<path d="M258.4,87.69l-0.92,2.03c-1.71-1.14-3.71-1.6-5.23-1.6c-2.44,0-4.04,0.92-4.04,2.52c0,4.88,10.68,2.33,10.65,9.21
				c0,3.17-2.79,5.2-6.86,5.2c-2.76,0-5.47-1.19-7.26-2.9l0.98-1.95c1.76,1.71,4.17,2.68,6.31,2.68c2.74,0,4.44-1.11,4.44-2.93
				c0.03-4.99-10.65-2.33-10.65-9.13c0-2.98,2.63-4.9,6.56-4.9C254.58,85.93,256.82,86.63,258.4,87.69z"/>
			<path d="M282.97,104.98h-2.14v-6.42l-7.34-12.55h2.25l6.15,9.89l6.07-9.89h2.22l-7.21,12.46V104.98z"/>
			<path d="M323.32,104.98l-0.03-15.64l-6.91,13.63h-1.3l-6.88-13.63v15.64h-2.06V86.01h2.68l6.94,13.66l6.91-13.66h2.66v18.97
				H323.32z"/>
			<path d="M335.51,100.18l-2.11,4.8h-2.3l8.51-18.97h2.25l8.48,18.97h-2.36l-2.11-4.8H335.51z M340.66,88.48l-4.23,9.62h8.51
				L340.66,88.48z M339.28,83.65l3.25-3.68l2.14,1.03l-3.36,2.66H339.28z"/>
			<path d="M367.51,87.69l-0.92,2.03c-1.71-1.14-3.71-1.6-5.23-1.6c-2.44,0-4.04,0.92-4.04,2.52c0,4.88,10.68,2.33,10.65,9.21
				c0,3.17-2.79,5.2-6.86,5.2c-2.76,0-5.47-1.19-7.26-2.9l0.98-1.95c1.76,1.71,4.17,2.68,6.31,2.68c2.74,0,4.44-1.11,4.44-2.93
				c0.03-4.99-10.65-2.33-10.65-9.13c0-2.98,2.63-4.9,6.56-4.9C363.69,85.93,365.94,86.63,367.51,87.69z"/>
		</g>
	</g>
</g>
<g>
	<defs>
		<path id="SVGID_1_" d="M16.49,98.9c-2.38,0-4.3,1.93-4.3,4.3c0,2.38,1.93,4.3,4.3,4.3h35.46c2.38,0,4.3-1.93,4.3-4.3
			c0-2.38-1.93-4.3-4.3-4.3H16.49z M24.88,88.56c-2.38,0-4.3,1.93-4.3,4.3c0,2.38,1.93,4.3,4.3,4.3h18.69c2.38,0,4.3-1.93,4.3-4.3
			c0-2.38-1.93-4.3-4.3-4.3H24.88z M27.31,65.11c0,0.49,0.16,0.94,0.43,1.31c0.3,0.41,0.73,0.71,1.24,0.84
			c0.18,0.05,0.36,0.07,0.56,0.07c1.23,0,2.22-0.99,2.22-2.22c0-1.23-0.99-2.22-2.22-2.22S27.31,63.89,27.31,65.11 M44.19,63.23
			c0,0.1,0.01,0.19,0.02,0.28c0.13,1.02,0.95,1.82,1.97,1.93c0.07,0.01,0.15,0.01,0.23,0.01c1.23,0,2.22-0.99,2.22-2.22
			c0-0.08,0-0.15-0.01-0.23c-0.05-0.51-0.28-0.97-0.61-1.32c-0.4-0.42-0.97-0.68-1.6-0.68C45.18,61.01,44.19,62,44.19,63.23
			 M30.49,53.8c0,1.23,0.99,2.22,2.22,2.22c1.23,0,2.22-0.99,2.22-2.22c0-1.23-0.99-2.22-2.22-2.22
			C31.48,51.58,30.49,52.57,30.49,53.8 M42.04,52.86c0,1.23,0.99,2.22,2.22,2.22c1.23,0,2.22-0.99,2.22-2.22
			c0-1.23-0.99-2.22-2.22-2.22C43.03,50.64,42.04,51.64,42.04,52.86 M60.14,40.88h-0.09v11.98c-2.1,25.12-25.73,25.46-25.73,25.46
			c-0.11,0-0.23,0.01-0.34,0.02v-0.02c0,0-23.63-0.34-25.73-25.46h0V40.88c0-2.25-1.83-4.08-4.08-4.08c-2.25,0-4.08,1.83-4.08,4.08
			H0v11.98c0,0.01,0,0.01,0,0.02c-0.02,0.92-0.28,32.16,33.98,33.6v-0.02c0.11,0.01,0.22,0.02,0.34,0.02c0.15,0,0.3-0.01,0.44-0.02
			c34.32-1.72,33.54-33.6,33.54-33.6V40.88c0-2.25-1.83-4.08-4.08-4.08C61.97,36.8,60.14,38.63,60.14,40.88 M10.28,46.26v4.05
			l11.87-11.87V34.4L10.28,46.26z M34.33,29.09c0,1.23,0.99,2.22,2.22,2.22c1.23,0,2.22-0.99,2.22-2.22c0-1.23-0.99-2.22-2.22-2.22
			C35.32,26.87,34.33,27.86,34.33,29.09 M49.41,24.95c0,0.29,0.06,0.56,0.15,0.81c0.3,0.77,1.03,1.33,1.89,1.4
			c0.06,0,0.12,0.01,0.18,0.01c1.23,0,2.22-0.99,2.22-2.22c0-1.23-0.99-2.22-2.22-2.22C50.4,22.73,49.41,23.72,49.41,24.95
			 M23.22,17.91c0,1.23,0.99,2.22,2.22,2.22c1.23,0,2.22-0.99,2.22-2.22c0-1.23-0.99-2.22-2.22-2.22
			C24.21,15.69,23.22,16.68,23.22,17.91 M38.41,13.73c0,0.57,0.22,1.09,0.57,1.48c0.4,0.44,0.97,0.73,1.61,0.74
			c0.02,0,0.03,0,0.04,0c1.23,0,2.22-0.99,2.22-2.22c0-1.23-0.99-2.22-2.22-2.22C39.41,11.51,38.41,12.51,38.41,13.73 M34.13,0
			C20.96,0,10.28,10.68,10.28,23.85v18.51l26.69-26.69c-0.29-0.56-0.45-1.2-0.45-1.87c0-2.27,1.84-4.12,4.12-4.12
			c2.27,0,4.12,1.84,4.12,4.12c0,2.27-1.84,4.12-4.12,4.12c-0.59,0-1.15-0.13-1.65-0.35L26.05,30.49v7.95l-15.7,15.7
			c0.21,2.89,0.93,5.63,2.07,8.15l35.52-35.52c-0.27-0.54-0.42-1.15-0.42-1.8c0-2.27,1.84-4.12,4.12-4.12
			c2.27,0,4.12,1.84,4.12,4.12c0,2.27-1.84,4.12-4.12,4.12c-0.62,0-1.2-0.14-1.73-0.38L13.76,64.85c1.71,2.79,3.97,5.2,6.64,7.08
			l5.3-5.3c-0.19-0.47-0.29-0.98-0.29-1.51c0-2.27,1.84-4.12,4.12-4.12c2.27,0,4.12,1.84,4.12,4.12c0,2.27-1.84,4.12-4.12,4.12
			c-0.73,0-1.41-0.19-2-0.52l-4.72,4.72c2.66,1.44,5.62,2.38,8.77,2.72l11.13-11.13c-0.26-0.54-0.41-1.14-0.41-1.78
			c0-2.27,1.84-4.12,4.12-4.12c2.27,0,4.12,1.84,4.12,4.12c0,2.27-1.84,4.12-4.12,4.12c-0.62,0-1.21-0.14-1.74-0.39l-9.3,9.3
			c12.59-0.65,22.61-11.06,22.61-23.82v-22.2l-3.27,3.27v10.78l-6.77,6.77c0.27,0.55,0.43,1.17,0.43,1.82
			c0,2.27-1.84,4.12-4.12,4.12c-2.27,0-4.12-1.84-4.12-4.12c0-2.27,1.84-4.12,4.12-4.12c0.61,0,1.19,0.14,1.71,0.37l5.87-5.87v-6.88
			L36.34,51.87c0.31,0.58,0.48,1.23,0.48,1.93c0,2.27-1.84,4.12-4.12,4.12c-2.27,0-4.12-1.84-4.12-4.12c0-2.27,1.84-4.12,4.12-4.12
			c0.57,0,1.1,0.11,1.6,0.32l23.68-23.68v-2.47c0-4.11-1.04-7.97-2.87-11.35L40.27,27.34c0.25,0.53,0.39,1.12,0.39,1.75
			c0,2.27-1.84,4.12-4.12,4.12c-2.27,0-4.12-1.84-4.12-4.12c0-2.27,1.84-4.12,4.12-4.12c0.64,0,1.24,0.15,1.78,0.41L53.61,10.1
			c-2.58-3.64-6.14-6.54-10.32-8.27l-14.2,14.2c0.29,0.57,0.46,1.2,0.46,1.88c0,2.27-1.84,4.12-4.12,4.12
			c-2.27,0-4.12-1.84-4.12-4.12c0-2.27,1.84-4.12,4.12-4.12c0.58,0,1.14,0.12,1.64,0.34l13.3-13.3C38.39,0.29,36.29,0,34.13,0
			L34.13,0z"/>
	</defs>
	<clipPath id="SVGID_2_">
		<use xlink:href="#SVGID_1_"  style="overflow:visible;"/>
	</clipPath>
	
		<linearGradient id="SVGID_3_" gradientUnits="userSpaceOnUse" x1="60.1401" y1="125.7313" x2="60.3263" y2="125.7313" gradientTransform="matrix(0 -577.2492 -577.2492 0 72612.7109 34823.3203)">
		<stop  offset="0" style="stop-color:#2D368E"/>
		<stop  offset="0.8872" style="stop-color:#28AAE1"/>
		<stop  offset="1" style="stop-color:#28AAE1"/>
	</linearGradient>
	<rect x="-0.28" y="0" class="st0" width="69.37" height="107.5"/>
</g>
</svg>
