<?xml version="1.0" encoding="utf-8"?>
<!-- Generator: Adobe Illustrator 15.1.0, SVG Export Plug-In . SVG Version: 6.00 Build 0)  -->
<!DOCTYPE svg PUBLIC "-//W3C//DTD SVG 1.1//EN" "http://www.w3.org/Graphics/SVG/1.1/DTD/svg11.dtd">
<svg version="1.1" id="Layer_1" xmlns="http://www.w3.org/2000/svg" xmlns:xlink="http://www.w3.org/1999/xlink" x="0px" y="0px"
	 width="203.5px" height="117px" viewBox="0 0 203.5 117" enable-background="new 0 0 203.5 117" xml:space="preserve">
<g>
	<path fill-rule="evenodd" clip-rule="evenodd" fill="#007DC3" d="M192.081,102.516c-8.891,12.645-41.306,10.911-69.189,5.337
		c-55.721-11.141-92.512-7.466-119.868,5.61c0.776,2.293,3.29,3.216,7.576,1.392c5.089-2.168,46.869-17.301,112.422-3.501
		C180.214,123.397,207.509,107.958,192.081,102.516L192.081,102.516z"/>
	<g>
		<g>
			<path fill="#9B5BA5" d="M21.004,92.729c-1.114-1.256-2.17-2.853-3.169-4.786c-1-1.934-1.948-4.066-2.849-6.397
				c-0.901-2.333-1.751-4.763-2.555-7.293c-0.803-2.527-1.554-5.016-2.258-7.462c-0.705-2.447-1.376-4.753-2.015-6.92
				c-0.64-2.166-1.237-4.057-1.793-5.679c0-0.627,0.26-1.001,0.785-1.115c0.524-0.116,1.032-0.108,1.524,0.023
				c0.588,1.29,1.195,2.82,1.815,4.588c0.622,1.769,1.278,3.664,1.965,5.679c0.688,2.017,1.385,4.125,2.09,6.325
				c0.702,2.197,1.424,4.355,2.16,6.471c0.737,2.116,1.483,4.16,2.236,6.125c0.753,1.969,1.522,3.743,2.307,5.332
				c0.395-0.595,0.796-1.563,1.205-2.901c0.409-1.34,0.843-2.934,1.301-4.787c0.459-1.853,0.951-3.894,1.475-6.126
				c0.522-2.23,1.105-4.537,1.743-6.92c0.639-2.378,1.343-4.775,2.112-7.19c0.769-2.414,1.613-4.728,2.53-6.945
				c0.458,0,0.867,0.232,1.227,0.695c0.361,0.465,0.54,0.928,0.54,1.389c0,0.035-0.006,0.06-0.024,0.074
				c-0.015,0.017-0.024,0.043-0.024,0.075v0.1c-0.065,0.099-0.228,0.809-0.491,2.131c-0.261,1.324-0.72,3.382-1.373,6.175
				c-0.657,2.796-1.573,6.375-2.751,10.739c-1.18,4.364-2.717,9.639-4.619,15.821c0,0.298-0.098,0.629-0.293,0.991
				c-0.197,0.364-0.443,0.688-0.736,0.968c-0.296,0.281-0.624,0.505-0.983,0.671C21.725,92.745,21.365,92.796,21.004,92.729z"/>
			<path fill="#9B5BA5" d="M37.17,68.986c0.068-0.241,0.204-0.449,0.411-0.623c0.205-0.172,0.435-0.277,0.693-0.31
				c0.258-0.034,0.538,0.017,0.847,0.155c0.308,0.139,0.598,0.398,0.872,0.778c0.104,3.666,0.181,7.407,0.232,11.225
				c0.051,3.821,0.042,7.615-0.026,11.382c-0.206,0.276-0.479,0.527-0.821,0.751c-0.342,0.228-0.668,0.37-0.977,0.442
				c-0.307,0.068-0.574,0.023-0.795-0.131c-0.222-0.154-0.301-0.474-0.233-0.96L37.17,68.986z"/>
			<path fill="#9B5BA5" d="M51.448,71.837c-0.584,0-1.149,0.052-1.696,0.155c-0.549,0.103-1.095,0.218-1.643,0.337
				c-0.548,0.122-1.088,0.236-1.619,0.338s-1.089,0.156-1.668,0.156c-0.07,0-0.197,0.007-0.384,0.025
				c-0.189,0.017-0.387,0.01-0.592-0.025c-0.206-0.034-0.395-0.097-0.565-0.182c-0.172-0.086-0.256-0.233-0.256-0.439
				c0-0.624,0.187-1.125,0.563-1.505c0.377-0.381,0.856-0.69,1.438-0.933c0.582-0.243,1.232-0.433,1.95-0.57
				c0.721-0.138,1.405-0.303,2.056-0.493c0.652-0.19,1.232-0.423,1.746-0.701c0.514-0.274,0.874-0.674,1.078-1.192
				c0.207-0.485,0.368-1.185,0.488-2.1c0.121-0.916,0.222-1.937,0.31-3.061c0.083-1.122,0.152-2.297,0.204-3.524
				c0.052-1.228,0.085-2.419,0.103-3.578c0.018-1.159,0.026-2.223,0.026-3.19c0-0.968,0.016-1.746,0.052-2.334
				c0.41-0.655,0.838-1.028,1.281-1.116c0.446-0.084,0.994,0.098,1.645,0.546c0,2.938-0.059,5.851-0.18,8.738
				c-0.119,2.886-0.06,5.902,0.18,9.047l11.709-3.575c0.48-0.14,0.847-0.176,1.105-0.105c0.257,0.067,0.436,0.198,0.54,0.387
				c0.103,0.19,0.162,0.407,0.179,0.649c0.016,0.242,0.026,0.485,0.026,0.724c0,0.521-0.266,0.969-0.796,1.348
				c-0.531,0.383-1.215,0.728-2.055,1.039c-0.84,0.313-1.778,0.597-2.825,0.856c-1.043,0.259-2.088,0.51-3.132,0.752
				c-1.046,0.243-2.037,0.483-2.979,0.726c-0.941,0.242-1.719,0.501-2.337,0.778c-0.306,1.693-0.504,3.636-0.589,5.833
				c-0.085,2.195-0.026,4.384,0.181,6.559c0.204,2.178,0.571,4.192,1.104,6.041c0.53,1.851,1.283,3.266,2.259,4.253
				c0.975,0.985,2.183,1.382,3.621,1.19c1.438-0.189,3.148-1.231,5.135-3.136c0.034,0.035,0.187,0.241,0.463,0.622
				c0.273,0.381,0.75,1.224,0.75,1.224s-0.221,0.27-0.238,0.29c-2.07,2.382-3.96,3.821-5.676,4.319
				c-1.728,0.502-3.259,0.355-4.594-0.439c-1.337-0.796-2.476-2.125-3.417-3.993c-0.942-1.868-1.678-3.968-2.207-6.3
				c-0.532-2.334-0.864-4.77-1.002-7.312C51.053,76.427,51.139,74.05,51.448,71.837z"/>
			<path fill="#9B5BA5" d="M85.085,83.453c-0.753,1.209-1.713,2.333-2.875,3.37c-1.167,1.035-2.39,1.885-3.673,2.539
				c-1.284,0.658-2.567,1.082-3.853,1.27c-1.284,0.192-2.432,0.045-3.441-0.44c-1.009-0.481-1.821-1.354-2.44-2.617
				c-0.614-1.261-0.889-3.017-0.822-5.264c-0.101-1.588,0.131-3.152,0.695-4.692c0.565-1.536,1.344-2.956,2.337-4.252
				c0.991-1.295,2.156-2.412,3.491-3.344c1.335-0.934,2.739-1.573,4.211-1.919c1.471-0.344,2.96-0.354,4.468-0.024
				c1.506,0.327,2.927,1.097,4.263,2.305c0.035,1.971,0.068,3.768,0.103,5.392c0.034,1.628,0.129,3.235,0.284,4.825
				c0.152,1.59,0.383,3.223,0.691,4.898c0.309,1.679,0.753,3.554,1.334,5.628c0.378,0.69,0.454,1.34,0.231,1.945
				c-0.222,0.604-0.548,1.043-0.974,1.319c-0.431,0.277-0.892,0.338-1.387,0.183c-0.498-0.156-0.831-0.667-1.002-1.528
				L85.085,83.453z M71.527,81.741c0.17,1.833,0.574,3.137,1.208,3.914c0.633,0.779,1.385,1.168,2.258,1.168
				c0.875,0,1.799-0.339,2.773-1.012c0.977-0.675,1.875-1.557,2.698-2.644c0.821-1.089,1.497-2.317,2.027-3.682
				c0.531-1.367,0.813-2.74,0.847-4.124c0-0.448-0.042-0.933-0.129-1.451c-0.085-0.519-0.228-1.002-0.435-1.454
				c-0.206-0.447-0.471-0.82-0.796-1.114c-0.326-0.292-0.745-0.439-1.258-0.439c-1.303,0-2.507,0.335-3.621,1.012
				c-1.112,0.674-2.08,1.544-2.903,2.619c-0.822,1.069-1.472,2.246-1.951,3.524C71.766,79.337,71.527,80.566,71.527,81.741z"/>
			<path fill="#9B5BA5" d="M92.328,87.964c1.779,0,3.294-0.33,4.544-0.987c1.247-0.653,2.422-1.605,3.518-2.851
				c0-0.207-0.112-0.881-0.337-2.021c-0.221-1.143-0.469-2.575-0.742-4.304c-0.272-1.729-0.539-3.656-0.797-5.781
				c-0.256-2.125-0.411-4.293-0.46-6.508c-0.053-2.212,0.026-4.354,0.23-6.429c0.205-2.074,0.632-3.923,1.283-5.548
				c0.649-1.625,1.566-2.93,2.746-3.915c1.185-0.984,2.697-1.479,4.546-1.479c1.575,0,2.798,0.485,3.672,1.453
				c0.874,0.968,1.48,2.249,1.823,3.837c0.342,1.59,0.453,3.406,0.335,5.444c-0.118,2.041-0.396,4.148-0.82,6.326
				c-0.431,2.178-0.962,4.33-1.594,6.458c-0.634,2.124-1.283,4.061-1.951,5.806c-0.668,1.747-1.32,3.214-1.951,4.408
				c-0.636,1.191-1.159,1.943-1.566,2.255c0.648,2.107,1.357,3.811,2.129,5.108c0.771,1.297,1.542,2.279,2.311,2.957
				c0.771,0.674,1.533,1.12,2.287,1.345c0.753,0.225,1.446,0.347,2.079,0.363c0.635,0.02,1.188,0,1.667-0.051
				c0.482-0.053,0.843-0.026,1.082,0.076c0.374,0.174,0.762,0.45,1.154,0.83c0.392,0.379,0.643,0.779,0.745,1.192
				c0.102,0.417-0.034,0.777-0.41,1.09s-1.151,0.467-2.313,0.467c-1.984,0-3.688-0.243-5.107-0.727
				c-1.425-0.483-2.646-1.202-3.676-2.151c-1.026-0.95-1.915-2.125-2.668-3.526c-0.753-1.398-1.457-3.033-2.106-4.899
				c-0.89,0.934-1.67,1.703-2.335,2.307c-0.668,0.605-1.345,1.089-2.032,1.451c-0.683,0.364-1.437,0.624-2.26,0.78
				c-0.819,0.153-1.796,0.233-2.926,0.233L92.328,87.964z M106.655,51.147c-1.165,0.173-2.116,0.729-2.85,1.66
				c-0.737,0.934-1.32,2.109-1.748,3.526c-0.426,1.417-0.717,2.998-0.871,4.745c-0.156,1.746-0.226,3.518-0.207,5.314
				c0.016,1.798,0.103,3.552,0.258,5.265c0.152,1.709,0.321,3.213,0.513,4.509c0.186,1.297,0.375,2.334,0.563,3.112
				c0.19,0.776,0.317,1.131,0.386,1.063c0.994-0.691,1.893-1.919,2.698-3.683c0.804-1.764,1.498-3.739,2.081-5.936
				c0.58-2.196,1.016-4.476,1.307-6.843s0.418-4.513,0.386-6.432c-0.033-1.915-0.257-3.473-0.669-4.666
				C108.092,51.589,107.478,51.045,106.655,51.147z"/>
		</g>
		<path fill="#007DC3" d="M37.849,56.896c1.12-2.097,3.716-2.879,5.792-1.748c2.076,1.133,2.852,3.75,1.729,5.847
			c-1.639,3.071-7.485,4.916-7.485,4.916S36.137,60.098,37.849,56.896z"/>
	</g>
	<g>
		<path fill="#007DC3" d="M6.35,43.262V5.906h14.717v1.921H10.593v13.236h9.147v1.974h-9.147v20.225H6.35z"/>
		<path fill="#007DC3" d="M33.291,5.585c5.788,0,10.717,7.152,10.717,18.999c0,11.847-4.96,18.997-10.717,18.997
			c-5.786,0-10.686-7.15-10.686-18.997C22.605,15.086,26.585,5.585,33.291,5.585z M26.664,24.315c0,20.805,13.021,20.856,13.021,0
			C39.685,3.873,26.664,3.353,26.664,24.315z"/>
		<path fill="#007DC3" d="M47.606,43.262V5.906h8.308c5.392,0,9.767,5.338,9.767,11.848c0,5.443-3.137,10.086-7.292,11.42
			l5.834,14.088h-4.463l-5.658-13.716h-2.253v13.716H47.606z M61.439,17.753c0-5.337-3.623-9.873-9.59-9.873v19.745
			C57.904,27.413,61.439,22.983,61.439,17.753z"/>
		<path fill="#007DC3" d="M69.219,43.262V5.906h2.21l8.485,31.485l8.442-31.485h2.209v37.356h-4.242V22.875l-5.968,20.386h-0.884
			l-6.011-20.494v20.494H69.219z"/>
		<path fill="#007DC3" d="M103.12,5.906h2.653l9.103,37.356h-4.332l-1.724-7.578h-8.706l-1.679,7.578h-4.332L103.12,5.906z
			 M104.399,17.434l-3.843,16.275h7.822L104.399,17.434z"/>
	</g>
	<g>
		<path fill="#007DC3" d="M157.494,55.729c5.552,1.593,15.007-6.991,22.202-14.778c-5.848-5.948-10.537-13.778-9.136-24.166
			c1.377-10.242,9.714-13.003,8.408-14.174c-0.845-0.756-14.873,3.883-27.673,12.652C150.941,32.646,151.71,54.067,157.494,55.729z
			 M160.978,36.502c2.811-0.721,5.765,1.389,6.598,4.717c0.832,3.327-0.768,6.605-3.577,7.328c-2.808,0.72-5.759-1.389-6.597-4.714
			C156.569,40.505,158.171,37.224,160.978,36.502z"/>
		<path fill="#007DC3" d="M150.102,62.616c3.525-3.423-4.712-15.85-2.051-45.012c-3.853,2.922-7.479,6.224-10.439,9.875
			c-4.604,5.672-8.633,12.026-11.475,18.657C137.882,56.297,148.314,64.351,150.102,62.616z"/>
		<path fill="#007DC3" d="M180.336,41.599c-0.12-0.115-0.231-0.236-0.347-0.353c-8.521,10.933-19.673,26.057-19.49,30.111
			c0.156,3.42,0.957,16.763,1.348,30.331c2.42-0.047,4.373-0.306,5.592-0.628c15.277-4.056,26.459-16.104,28.486-29.247
			C197.95,58.677,186.474,47.625,180.336,41.599z"/>
		<path fill="#007DC3" d="M125.175,48.521c-4.568,11.968-5.112,24.656,1.86,35.713c6.699,10.616,17.065,15.103,25.806,16.702
			C156.183,75.678,144.918,66.136,125.175,48.521z"/>
	</g>
	<path fill-rule="evenodd" clip-rule="evenodd" fill="#9B5BA5" d="M201.552,12.382c-3.398-6.403-11.59-8.431-18.299-4.528
		c-6.709,3.907-9.389,12.263-5.99,18.668c3.398,6.404,11.586,8.432,18.295,4.525C202.267,27.143,204.948,18.788,201.552,12.382z"/>
</g>
</svg>
