<svg xmlns="http://www.w3.org/2000/svg" viewBox="0 0 136.93 87.05"><defs><style>.cls-1{fill-rule:evenodd;}</style></defs><g id="Capa_2" data-name="Capa 2"><g id="Capa_1-2" data-name="Capa 1"><path class="cls-1" d="M136.87,65.75V30H115.62V6.57h-.09V6.13h-.08V5.7h-.09V5.44h-.09V5.1h-.08l-.09-.43H115l-.08-.35h-.09V4.06L114.67,4l-.09-.34-.17-.09V3.37h-.09l-.08-.26L114.06,3V2.85l-.77-.69-.52-.6h-.18l-.08-.18h-.17l-.09-.17h-.17L112,1,111.64,1V.86h-.17V.78L111,.6V.52h-.26V.43h-.26V.35h-.25V.26h-.35V.17h-.35V.09H109V0H6.67V.09H6.15V.17H5.8V.26H5.46V.35H5.2V.43L4.68.52V.6L4.34.69V.78H4.16V.86H4V1H3.82V1H3.64l-.08.17H3.38l-.08.17H3.13L3,1.64H2.78l-.35.43-.77.69v.18l-.26.17v.17l-.18.09v.17l-.17.09L1,4H.88v.18H.79l-.17.52H.53v.25H.45v.26H.36v.26H.27v.35H.19v.34H.1v.52H0v58.5a13.46,13.46,0,0,0,.17,3.37V69H.27v.26H.36v.26H.45v.25H.53V70H.62l.09.35H.79v.26l.18.09c.05.17.11.34.17.51l.17.09v.17l.17.09.09.26.43.34v.18h.09l.26.34h.17l.35.43H3l.17.26h.17l.09.18.35.08.08.18h.18v.08l.34.09V74c2,.88,5.31.61,8.12.61h96.6l2.07-.61V74l.35-.09v-.08l.34-.09.09-.17h.17l.09-.18h.17l.09-.17h.17l.35-.43h.17l.09-.17.43-.35v-.17l.43-.35v-.17l.17-.09.09-.26h.09l.08-.34.17-.09.09-.34h.09v-.18H115l.09-.43h.09l.08-.52h.09l.09-.69h.08v-.52h.09V45h6.31V65.66a8.85,8.85,0,0,0,.08,1.9v.78c.15.52.29,1,.43,1.56h.09v.17h.09v.26h.08v.17h.09v.18l.17.08.09.35h.09l.08.26.17.08v.18l.35.25v.18l.26.17.52.61h.17l.26.34h.17l.09.17h.17l.09.18h.17l.09.17h.17v.09l.35.08V74h.25V74h.18v.09l.52.09a6.54,6.54,0,0,0,4.49,0l.52-.09V74h.17V74h.26v-.09l.34-.08V73.7h.18l.08-.17h.18l.08-.18h.18l.08-.17h.18l.25-.34h.18l.17-.26.6-.52v-.18l.35-.25v-.18l.17-.08.09-.26h.09l.08-.35.18-.08.69-1.91A12,12,0,0,0,136.87,65.75ZM100.5,30H68.44a11.46,11.46,0,0,0-2.76.17h-.52v.09h-.34v.09h-.26v.08H64.3v.09l-1,.34-.09.18-.34.08v.09l-.26.09-.09.17h-.17l-.17.26H62l-.34.43-.61.52v.17l-.34.26v.17l-.17.09v.17l-.18.09v.17h-.08V34h-.09v.17h-.09v.17H60v.17h-.09v.18H59.8v.26h-.08v.25h-.09v.26h-.09v.35h-.08v.35h-.09v.6h-.08a8.21,8.21,0,0,0,.17,2.51h.08c.09.37.18.74.26,1.12h.09l.17.52h.09V41h.09l.08.35.18.08v.17l.17.09v.17l.26.18v.17l.77.69.35.43h.17l.18.26h.17l.09.17h.17l.08.18h.18v.08l.34.09v.09l.35.08v.09H64v.09h.17v.08h.26v.09l.6.09v.08h.44v.09l3.11.08H100.5V59.53H15.14V15.12H100.5ZM14.88,86.31v-.08h.17l.26-.35h.08v-.26h.09V81c0-.51.1-1.23-.17-1.47-.1-.35,0-.1-.26-.26L15,79.06h-.17V79h-.17v-.09h-.26V78.8H14.1a14.37,14.37,0,0,0-5.19-.52c-.22.2-1.11.06-1.46.17L5.63,79l-.09.17H5.37v.09l-.26.17A15.73,15.73,0,0,0,5,81.82v3.89l.43.52h.17v.08H5.8v.09h.26v.09h.26v.08h.26v.09h.35v.09h.52v.08h.6v.09h1a8.91,8.91,0,0,0,2.33.08v-.08h1v-.09l1.12-.08c.15,0,.81-.34,1-.26v.08h.17v.09H15v.09c.18.09.21,0,.35.17H16v-.09a3,3,0,0,1-1-.52Zm-.35-.26v.09s-.76-.3-.86-.34v-.09H13c.22.26.71.26.95.52.17,0,.07,0,.17.08a10.83,10.83,0,0,1-3.72.44,8,8,0,0,1-1.81-.09l-1.73-.17V86.4l-.52-.09v-.08L6,86.14v-.09H5.8V86l-.26-.17c0-.18,0-.08-.08-.18V79.57l.26-.17.08-.17H6v-.09l.34-.08V79l.52-.09V78.8h.35v-.09H7.7v-.09h.61v-.08c.4-.12,1,.14,1.3-.09a13,13,0,0,1,4.32.52h.25v.09l.52.17v.09l.26.17a18.55,18.55,0,0,1,.09,3c0,.32.07.86-.09,1V85.8h-.08C14.76,86,14.77,86,14.53,86.05ZM82,82.86V83h4.41v2.68l-.18.09V86c-.27.07-.39.25-.6.34h-.26v.09h-.26v.09h-.43v.08h-.43v.09h-.87a10.78,10.78,0,0,1-3.54,0H79v-.09h-.43v-.08h-.43V86.4l-.52-.09v-.08l-.34-.09L77.17,86l-.26-.09a28.67,28.67,0,0,1-.09-4.66c0-.43-.13-1.4.09-1.65.16-.58,1.38-.77,2-.95h.69c.45-.12,1.23.06,1.73-.08v-.09l1.47.09c1.13,0,3.16.29,3.54.95v.26h.09v.08h.34v-.34h-.09c-.16-.61-1.36-.85-2-1h-.61a14.6,14.6,0,0,0-5.87.17l-.87.18v.08l-.52.18v.08l-.43.35v4.58c0,.42-.13,1.39.09,1.64.16.59,1.15.85,1.73,1h.43a12.11,12.11,0,0,0,3.11.25H83v-.08h1v-.09h.6v-.08H85v-.09h.35v-.09h.26v-.08h.26V86.4l.52-.17v-.09l.34-.26a18.55,18.55,0,0,0,.09-3ZM99.12,79v-.09h-.26V78.8h-.18v-.09L98,78.62v-.08h-.43v-.09h-.69v-.09H95.75a8.49,8.49,0,0,0-2.16-.08v.08H92.46v.09h-.69v.09h-.43v.08H91v.09h-.34v.09h-.26v.08l-.52.18v.08l-.43.35v7.43h.43V83.46h9.59v3.46h.43V79.57l-.43-.51Zm.34,4.23H89.87V80.52c0-.3-.06-.78.09-1,.14-.5,1.12-.7,1.64-.86h.52a14.56,14.56,0,0,1,5.1,0h.51v.09h.35v.08h.34V79l.52.17v.09h.18v.09l.34.25ZM28.27,78.36v5.28a6.89,6.89,0,0,1-.09,2.07L28,85.8a2.17,2.17,0,0,1-.52.43h-.17v.08h-.26v.09h-.35v.09h-.43v.08h-.6v.09H24.55v.09a9.79,9.79,0,0,1-2.5-.09H21v-.09h-.6v-.08H20V86.4h-.34v-.09h-.26v-.08H19.2a2.56,2.56,0,0,0-.61-.35v-.17l-.17-.09V78.36H18v5.45c0,.6-.14,1.67.17,2,.32.54,1.24.74,1.9,1h.52a16.29,16.29,0,0,0,5.44,0h.52v-.09l1-.17V86.4l.52-.17v-.09h.17v-.09l.26-.17.08-.43h.09V80.61a8.23,8.23,0,0,0-.09-2.25Zm3.28,8.56H32V78.36h-.43Zm13.39-7.69-.08-.17-1.56-.52h-.52a11.8,11.8,0,0,0-2.93-.18H34.92v8.56h4.75a10.56,10.56,0,0,0,2.42-.09l1.64-.17v-.09H44v-.08h.26V86.4h.26v-.09h.17v-.08h.18l.08-.18h.18c.05,0,.06-.11.17-.17s0-.07.09-.17V81.13c0-.61.1-1.46-.18-1.81Zm-.17,6.57c-.23.35-1,.54-1.47.69h-.43a11.18,11.18,0,0,1-2.85.17H35.35v-8h4.58a10.3,10.3,0,0,1,2.33.09h.61v.09h.43v.08h.35V79H44l.87.52a28.7,28.7,0,0,1,.08,4.66C44.94,84.69,45.05,85.52,44.77,85.8Zm13.13.86-1.72-.09L55,86.14v-.09l-.35-.25A17.77,17.77,0,0,1,54.53,83V78.36H54.1v5.53c0,.61-.14,1.67.17,2a2.79,2.79,0,0,0,1.21.78h.35v.09l1.12.08a8.27,8.27,0,0,0,1.9.09h3.46v-.17H57.9Zm16-8,.08-.26H64.38v5.45a6.35,6.35,0,0,0,.09,1.9c.1.37.7.64,1,.78h.26v.08H66v.09h.44a13.68,13.68,0,0,0,3.63.26H74c0-.17,0-.08-.08-.17s-.58-.09-.87-.09H70.78a16.24,16.24,0,0,1-4.41-.26H66a10,10,0,0,1-1.12-.6c0-.18,0-.58-.08-.78h-.09l.09-2.25h6.73a8.73,8.73,0,0,0,2.34-.09H74V82.6a11.51,11.51,0,0,0-2.85-.09h-6.3V78.62Zm32.48,8-1.72-.09v-.08L104,86.4l-.86-.52c-.19-1,0-2.38-.09-3.54s-.09-2.67-.09-4h-.43v5.28a6.37,6.37,0,0,0,.09,1.9c.07.58.66.85,1.12,1H104v.09h.35v.09l1.12.08a8.24,8.24,0,0,0,1.9.09h3.37v-.17h-4.41Z"/></g></g></svg>